<svg xmlns="http://www.w3.org/2000/svg" xml:space="preserve" viewBox="0 0 256 256">
  <defs>
    <path id="a" d="M59.3 37.6H188v85.3H59.3z" />
  </defs>
  <g fill="#fff" stroke="#c7d9e8" stroke-linecap="round" stroke-linejoin="round" stroke-miterlimit="10"
    stroke-width="4.5">
    <path d="M62.3 215.6s-5.8 37 15.9 108c-21.3-45.1-26.8-84.8-21.8-145.3" />
    <path
      d="M88 224c-1.4-38.4-.4-82.4-5.2-84.6-11.5-5-21.1 3.8-25.4 13.5-4.3 9.7-4 43.5 7.1 80.9 16.2 54.4-14 149.6 31.2 166.6-20.6-17.6-18.4-55.9-15-89.7 1.7-16.8 8.6-49 7.2-86.7z" />
    <path
      d="M81.6 288.2c-3 31.9-2.6 72 14.7 88.5-10.6-6-18.6-17.3-22.3-41.6m137-141.6s14.4 34.5 10.4 108.7c9.8-49 5.7-88.8-13.6-146.3" />
    <path
      d="M188 207.8c-7.8-37.6-19.4-80.1-15.2-83.4 10-7.7 21.4-1.4 27.9 7s14.3 41.3 12.5 80.2c-2.7 56.8 49.4 142 9.6 169.3 15.8-22 4.5-58.7-7-90.7-5.6-15.9-20-45.5-27.7-82.4z" />
    <path d="M209.6 268.5c10.5 30.3 19.8 69.4 6.9 89.6 8.9-8.4 14-21.3 11.7-45.8" />
  </g>
  <path fill="#fff" stroke="#c7d9e8" stroke-linecap="round" stroke-linejoin="round" stroke-miterlimit="10"
    stroke-width="5.4"
    d="M103.7 263.3s-23-29.5-37.7-25.1c-14.8 4.4-27 41-7.2 46 7.4-1.7 10-9.5 10-9.5s2 9.6 11.6 8.8a10 10 0 0 0 10-9.4l13.3-10.8zm84-2.8s11-35.7 26.3-36.9c15.4-1.2 40 28.7 23.1 40.4-7.5 1.1-12.8-5.2-12.8-5.2s1.8 9.6-7.6 12.3C207.4 274 204 266 204 266l-16.2-5.4z" />
  <path fill="#fff" stroke="#c7d9e8" stroke-linecap="round" stroke-linejoin="round" stroke-miterlimit="10"
    stroke-width="4.5" d="m131.4 238.2-34 3.6s.5 22 4 29.3c5.7-1 14.3-7.7 22.8-10.3 8.4-2.6 7.2-22.6 7.2-22.6z" />
  <path fill="snow" stroke="#dbb3b5" stroke-linecap="round" stroke-linejoin="round" stroke-miterlimit="10"
    stroke-width="2.9"
    d="M182.8 378.6c-2.7-11.2-13.3-43.5-12.3-54.6a57 57 0 0 0-5.4-28.8c-.1-6.4 1.2-25.5 5.2-31.2 4.2-6 14.7-7.3 14.2-12.4-.6-7-8.2-15.8-8.2-15.8-7.2-7.2-13.8-8.6-13.8-8.6V220l-16.5 9.3s-9 5.8-18.9 19.2c-12.6 17.1-23 54.8-22.7 71.2a682 682 0 0 0 6.6 69.8c1.3 7.5 3.2 13 5.8 15.6 2.4 1.5 4.6 2 7 1.8 5.7-.6 6-4 6-4s-.6-13.1.3-19.4c1-6.3 6-36 6-52 0-2.7 0-5.4.2-8 1.5 8.8 5.9 14.9 11.6 28.7 9.8 23.7 19.7 52 22.4 53.8 2.7 1.8 9.2 1.3 11.6-1.2a51 51 0 0 0 1-26.2z" />
  <path fill="none" d="M162.5 222.5v6.6" />
  <path fill="#dbb3b5"
    d="M157.7 224c-4 2.4-4.7 3-11.1 5.3-.4.2.8 2 .3 2.2 0 .5 3.3-.7 6.6-2 2.8-1 6.5-3 9.6-2.1v-5.8c-1.3.3-3.2 1-5.4 2.3z" />
  <path fill="none" stroke="#dbb3b5" stroke-linecap="round" stroke-linejoin="round" stroke-miterlimit="10"
    stroke-width="4.5" d="M123.3 314.4s5.4 4.2 13 8.3" />
  <path fill="#fff" stroke="#c7d9e8" stroke-linecap="round" stroke-linejoin="round" stroke-miterlimit="10"
    stroke-width="4.5"
    d="m129.8 385.8.3-2.7a45 45 0 0 1-21-1.3l.5 6.4c1 12 6 15.9 6 15.9s3.8 3 7.6 3.3c4 .3 5.9-1.7 6.6-2.7.8-1-.3-14.8 0-18.9zm53.2-8.3c-7.4 3.7-15.6 6-23.3 4.9l2.4 7.5a38 38 0 0 0 7.7 15.3c3.5 3.5 9.6 1.7 12.1-.4 2.6-2.1 3.2-11.1 2.4-20.7-.1-1.6-.6-4-1.3-6.6z" />
  <g fill="#fff" stroke="#c7d9e8" stroke-linecap="round" stroke-linejoin="round" stroke-miterlimit="10"
    stroke-width="4.5">
    <path
      d="M127.2 392.7s3 0 3.4-.5l.4-1s.8 1.5.8 2-2.1 5.4-2.1 5.4-2.6-.3-2.6-.5l.1-5.4zm-9 3.7s-2.4 2.3-3.2 2.2c-.9-.2-3.2-1-3.4-1.3-.5-1-1.7-4.5-1.5-5 .1-.5.8-1.4.8-1.4l.6 1.7s3.4.7 7 0c-.2 1.2-.3 3.8-.3 3.8z" />
    <path
      d="M131.3 401.9c-.5-2.1-1.6-5-1.6-5l-2-.2c0-1.2 0-4.9-.5-5.3-1-.7-8.4-.5-9 .4-.3.4-.2 4 .1 5.2h-.7c-3.6.7-5.9.3-5.9.3s-.5 2.7 0 5.3a10 10 0 0 0 2.2 4.5c.8 1 12.3 2 16.7.4.4-1.8.8-3.4.7-5.6z" />
    <path
      d="M118.4 397.2s0 3.1.3 3.6c.4.5 9.4.5 10 0 .5-.6-1.1-4-1.4-4.2-.4-.2-7.2-1.1-9 .6zm49.9-4.5s-3 0-3.5-.5c0-.4-.3-1-.3-1s-.8 1.5-.8 2 2 5.4 2 5.4 2.7-.3 2.7-.5l-.1-5.4zm9 3.7s2.4 2.3 3.2 2.2c.9-.2 3.2-1 3.4-1.3.5-1 1.7-4.5 1.5-5-.1-.5-.8-1.4-.8-1.4l-.7 1.7s-3.3.7-6.9 0c.2 1.2.3 3.8.3 3.8z" />
    <path
      d="M164.2 401.9c.5-2.1 1.6-5 1.6-5l2-.2c0-1.2 0-4.9.5-5.3 1-.7 8.4-.5 9 .4.3.4.1 4-.1 5.2h.7c3.6.7 5.9.3 5.9.3s.4 2.7 0 5.3a9.7 9.7 0 0 1-2.3 4.5c-.8 1-12.2 2-16.7.4-.3-1.8-.7-3.4-.6-5.6z" />
    <path d="M177 397.2s.1 3.1-.2 3.6c-.4.5-9.4.5-10 0-.5-.6 1.1-4 1.4-4.2.3-.2 7.2-1.1 8.9.6z" />
  </g>
  <path fill="#3f3f3f" stroke="#666" stroke-linecap="round" stroke-linejoin="round" stroke-miterlimit="10"
    stroke-width="4.5"
    d="M104.7 301.8s-9.5 7.9-11.3 13.5c3.4 2.7 5.6 3.3 5.6 3.3l2.3 3.6s7 4.5 14.6 3.8c1.1 0 2.5-.4 2.5-.4 1.5 1.1 5.3 4 13.9 3h2.7c1.3.4 7 2.4 9.2 2.6 2.2.2 3.8.2 12.8-1.8 1.1 0 3-.9 3-.9 1.3.7 9.6 0 14.7-2.7l.7-1.5h2.5s6.7-2.7 9-5.9c-8.1-5.8-16-12.6-16-12.6z" />
  <path fill="#3f3f3f" stroke="#666" stroke-linecap="round" stroke-linejoin="round" stroke-miterlimit="10"
    stroke-width="4.5" d="M168.5 300s-61-5.3-61.5-4h-.3s-.8 1.6-2 5.8l66.7 4.9c-.5-2.1-1.7-5.5-3-6.7z" />
  <g stroke-linecap="round" stroke-linejoin="round" stroke-miterlimit="10" stroke-width="4.5">
    <path fill="#fff" stroke="#c7d9e8"
      d="M126.9 243.5s-21.3 38.3-29.4 58.7c11.7 9.3 71 15 84.8 6.6A1169 1169 0 0 0 173 242l-27.8 10.5z" />
    <path fill="#fff" stroke="#c7d9e8"
      d="M152.9 246.7c2.3 1.9 14.2 13 29.6 23.4 10.6-14.5 10.4-31.6 10.4-31.6s-32-5-34.6-4.7l-5.4 13z" />
    <path fill="#fff" stroke="#c7d9e8" d="M139.2 242.6c.9 0 17 2.7 17 2.7l-13.4 9-3.6-11.7z" />
    <path fill="#3f3f3f" stroke="#666"
      d="M137.4 230.3c.6 3.9 6 21.6 6 21.6-10.5-5.1-19.5-11.1-19.5-11.1s11.4-10.2 13.5-10.5zm6.9 21.9 24.8-24s12.6 9.9 13.8 13.8a484 484 0 0 1-38.6 10.2zm-.6.9-10 11.6-3-7.5zm0 0 6 12.5 5.3-5z" />
  </g>
  <g stroke-linecap="round" stroke-linejoin="round" stroke-miterlimit="10">
    <path fill="snow" stroke="#dbb3b5" stroke-width="4.5"
      d="M98.3 217.4s-8-6.2-12.4-1c-4.5 5.2 1.7 23.6 14.1 24.1 8.5.3 9.2-7.4 9.2-7.4" />
    <path fill="snow" stroke="#dbb3b5" stroke-width="2.9"
      d="M99 240.5s.6.7 9.9 3.8a70.3 70.3 0 0 0 40.7-1c15-6 28.8-14.8 33.7-26 0 0 2.6-11.5-1.6-26.7.7-13.5.8-28.8-15.7-47.3-16.4-18.4-41.3-18-59.5-10.8-17.3 6.7-32.4 23.2-29.4 52.1 2.1 20 9.2 36.7 9.2 36.7z" />
    <path fill="#fff" stroke="#c7d9e8" stroke-width="4.5"
      d="M193.3 165.2c-7-23-24.4-46.2-75.3-34.6-56.7 12.9-59.9 65.8-46.7 88.6a62 62 0 0 0 30.7 24s-29.8-34-12.2-50.7c7.7-9.2 47-27.7 47-27.7s14.1-1.3 23.6 2.8a162 162 0 0 1 23.3 32.5l7.6 4.6a56.8 56.8 0 0 0 2-39.5z" />
    <path fill="#fff" stroke="#c7d9e8" stroke-width="4.5" d="M173.7 186.5s14 50 8 62.4c14.2-13.6 12-50.3.7-70.8" />
  </g>
  <g fill="#fff" stroke="#c7d9e8" stroke-linecap="round" stroke-linejoin="round" stroke-miterlimit="10"
    stroke-width="4.5">
    <path
      d="M73.5 179a67 67 0 0 0 4.8 38c7.8-4.2 22-10.1 21.2-10 0 0-2.3-5.3-1-12.4.8 3.5 4.8 10.9 4.8 10.9s25.2-9.9 39.1-12.4c-.7-5.4-6.3-26.2-6.3-26.2s11.4 19.3 12.3 25.4c23.4-6 33.7-7 33.7-7s-2.6-19.6-14.5-33.6" />
    <path
      d="M157.6 155.4c.3.8 29.3 52.5 16.6 81.5 37-25.1 10-84-6-91.5m-86 32.2c.2 1-1 49.7 28.8 75-50.3-8.8-49.2-67.3-43.5-78.5" />
  </g>
  <path fill="#fff"
    d="M218.3 97.7c-4.3-17-53.6-19.3-110-5S9.7 132.3 14 149.3c4.3 17 53.5 19.3 109.9 5 56.4-14.3 98.7-39.6 94.4-56.6zm-96 50.6c-53 13.4-98.8 12.7-102.4-1.5-3.7-14.3 36.4-36.8 89.4-50.2 53-13.4 99-12.7 102.5 1.6 3.6 14.3-36.4 36.7-89.4 50.1z" />
  <path fill="none" stroke="#db6072" stroke-linecap="round" stroke-linejoin="round" stroke-miterlimit="10"
    stroke-width="4.5"
    d="M218.3 97.7c-4.3-17-53.6-19.3-110-5S9.7 132.3 14 149.3c4.3 17 53.5 19.3 109.9 5 56.4-14.3 98.7-39.6 94.4-56.6zm-96 50.6c-53 13.4-98.8 12.7-102.4-1.5-3.7-14.3 36.4-36.8 89.4-50.2 53-13.4 99-12.7 102.5 1.6 3.6 14.3-36.4 36.7-89.4 50.1z" />
  <path fill="#fff"
    d="M112.3 108.5C93 113.5 78.4 122.1 80 128c1.5 5.8 18.4 6.6 37.8 1.7 19.4-4.9 33.9-13.6 32.4-19.5-1.5-5.8-18.4-6.6-37.8-1.7zm4.9 19.1c-18.3 4.7-34 4.4-35.3-.5-1.2-4.9 12.5-12.6 30.8-17.2 18.2-4.6 34-4.4 35.2.5 1.2 5-12.5 12.6-30.7 17.2z" />
  <path fill="none" stroke="#c7d9e8" stroke-linecap="round" stroke-linejoin="round" stroke-miterlimit="10"
    stroke-width="4.5"
    d="M112.3 108.5C93 113.5 78.4 122.1 80 128c1.5 5.8 18.4 6.6 37.8 1.7 19.4-4.9 33.9-13.6 32.4-19.5-1.5-5.8-18.4-6.6-37.8-1.7zm4.9 19.1c-18.3 4.7-34 4.4-35.3-.5-1.2-4.9 12.5-12.6 30.8-17.2 18.2-4.6 34-4.4 35.2.5 1.2 5-12.5 12.6-30.7 17.2z" />
  <g fill="snow" stroke="#dbb3b5" stroke-linecap="round" stroke-linejoin="round" stroke-miterlimit="10"
    stroke-width="2.9">
    <path d="M91 246.6c-3.6.4-9.4 6.5-7.8 10.3 2.3 5.4 3.6 5.9 3.6 5.9 15.4.1 21.3-18.5 4.3-16.2z" />
    <path d="M91.3 246.6s5.8-1.2 33.3-5.5l1.8 14.1c-20.9 4-28.9 10-39.3 7.5" />
    <path d="M119.6 243s7-8 10.5-8c5.7.7 8.1 2 9.7 5.2 1.4 3 3.1 6.7 1.8 10.3-9.8 8.3-6.7 5.7-16.9 5" />
  </g>
  <g fill="snow" stroke="#dbb3b5" stroke-linecap="round" stroke-linejoin="round" stroke-miterlimit="10"
    stroke-width="2.9">
    <path d="M193 242.8c3.7.4 9.7 6.2 8.3 10.1-2.2 5.5-3.5 6-3.5 6-15.4.7-21.8-17.7-4.8-16z" />
    <path d="M192.8 243s-5.8-1.1-33.4-4.5l-1.4 14.2c21 3.2 29.2 9 39.6 6.1" />
    <path d="M164.4 240.3s-7.3-7.7-10.8-7.7c-5.6 1-8 2.4-9.4 5.6-1.4 3-3 6.7-1.5 10.3 10 8 6.9 5.4 17 4.5" />
  </g>
  <path fill="#c7d9e8" d="m93 229.3 31.6-11.5 1.8 5-31.7 11.5zm51.3-17.6 32.4-9.4 1.5 5.1-32.4 9.4z" /><text
    xml:space="preserve" fill="#db6072" stroke="#fff" stroke-linecap="round" stroke-width="3.5"
    font-family="UD Digi Kyokasho NK-B" font-size="66.7" font-weight="700" paint-order="stroke markers fill"
    style="-inkscape-font-specification:'UD Digi Kyokasho NK-B, Bold';font-variant-ligatures:normal;font-variant-caps:normal;font-variant-numeric:normal;font-variant-east-asian:normal;text-align:start;white-space:pre;shape-inside:url(#a)"
    transform="rotate(19.6 284.7 -55.3) scale(1.44299)">
    <tspan x="59.3" y="104.6">zzz
    </tspan>
  </text>
</svg>
