<svg xmlns="http://www.w3.org/2000/svg" xmlns:xlink="http://www.w3.org/1999/xlink" viewBox="0 0 256 360">
  <defs>
    <linearGradient id="a">
      <stop offset="0" stop-color="#8fc9f0" />
      <stop offset="1" stop-color="#8fc9f0" stop-opacity="0" />
    </linearGradient>
    <linearGradient xlink:href="#a" id="b" x1="233.5" x2="234.9" y1="216.5" y2="241" gradientUnits="userSpaceOnUse" />
  </defs>
  <g transform="translate(-97.3 -57.8) scale(.95302)">
    <g fill="#fff" stroke="#c7d9e8" stroke-linecap="round" stroke-linejoin="round" stroke-miterlimit="10"
      stroke-width="4.7">
      <path d="M158.9 199.1s-10.2 38 4.5 114.5c-17.1-49.5-18.5-91.5-6.5-154" />
      <path
        d="M184.7 210.8c2.9-40.3 8.9-86 4-88.9-11.3-6.6-22.4 1.6-28 11.2-5.5 9.7-9 45-1.6 85.2C170 277 128 373 173.1 395.7c-19.6-20.8-13-60.4-5.7-95.3 3.7-17.3 14.5-50.2 17.3-89.6z" />
      <path
        d="M171 277c-6.7 33-10.8 75 5.4 94-10.4-7.4-17.5-20.1-18.6-45.9m158.7-132.5s11.2 37.6-1.2 114.6c15.6-50 15.7-92 2-154.2" />
      <path
        d="M291 205c-4-40.1-11.3-85.8-6.6-88.7 11.2-7 22.4.9 28.3 10.4 5.8 9.5 10.3 44.7 4 85.1-9 59 35.7 153.6-8.8 177.7 19-21.3 11.2-60.8 2.9-95.4-4.1-17.2-15.8-49.7-19.8-89.1z" />
      <path d="M306.6 270.8c7.6 32.7 13 74.6-2.8 94.2 10.3-7.8 17-20.7 17.4-46.5" />
    </g>
    <path fill="#fff" stroke="#c7d9e8" stroke-linecap="round" stroke-linejoin="round" stroke-miterlimit="10"
      stroke-width="5.7"
      d="M202.6 277s-21.4-32.7-37.3-29.3c-15.8 3.3-31.7 40.7-11.3 47.5 8-1.2 11.3-9 11.3-9s1.1 10.1 11.3 10.1c10.2 0 11.3-9 11.3-9l14.7-10.2zm88.3 4s14.2-36.5 30.4-36.4c16.2 0 39.4 33.3 20.9 44.2-8 .5-13-6.6-13-6.6s1 10.2-9 12.3c-9.9 2.1-12.9-6.5-12.9-6.5l-16.4-7z" />
    <g fill="snow" stroke="#dbb3b5" stroke-linecap="round" stroke-linejoin="round" stroke-miterlimit="10"
      stroke-width="3">
      <path d="M231.4 249.6c-14.9 6.8-36 40.7-49.8 69l14.5 4.7c13.2-25.4 32.1-49.3 35.6-58.9 1.6-7.8 3-15.5-.3-14.8z" />
      <path d="M195.3 320.2s2.5 12.6.3 15c-2.2 2.6-4.4-4.6-6-4.6-1.5 0-13.8 7.8-17.5 6.9-2.2-.6 4-14.8 11-21.7" />
    </g>
    <path fill="#fff" stroke="#c7d9e8" stroke-linecap="round" stroke-linejoin="round" stroke-miterlimit="10"
      stroke-width="4.7" d="m218.7 248.9-23.6 27s9.8 12.9 17.6 16c2.5-12 6-43 6-43z" />
    <path fill="snow" stroke="#dbb3b5" stroke-linecap="round" stroke-linejoin="round" stroke-miterlimit="10"
      stroke-width="3"
      d="M279.3 392.8c-2.9-11.7-14-45.6-13-57.2 1-11-2.3-25.4-5.6-30.2-.1-6.8 1.2-26.8 5.4-32.8 4.4-6.2 15.4-7.7 15-13-.6-7.3-8.7-16.6-8.7-16.6-7.5-7.6-14.5-9-14.5-9v-7.6l-17.3 9.8s-9.5 6-19.8 20.1c-13.2 18-24.2 57.5-23.8 74.8a715 715 0 0 0 6.9 73.2c1.4 7.9 3.3 13.6 6.1 16.3 2.5 1.7 4.8 2.2 7.4 2 6-.7 6.3-4.2 6.3-4.2s-.7-13.8.3-20.4c1-6.6 6.3-37.7 6.3-54.7l.1-8.3c1.7 9.3 6.2 15.7 12.2 30.1 10.3 25 20.7 54.6 23.5 56.5 2.8 1.9 9.7 1.4 12.2-1.3a52.4 52.4 0 0 0 1-27.5z" />
    <path fill="none" d="M258 229v7" />
    <path fill="#dbb3b5"
      d="M253 230.6c-4.4 2.6-5 3.2-11.7 5.6-.5.2.8 2.2.3 2.3 0 .5 3.4-.7 6.9-2 3-1 6.8-3.2 10-2.3V228c-1.3.4-3.2 1-5.5 2.5z" />
    <path fill="none" stroke="#dbb3b5" stroke-linecap="round" stroke-linejoin="round" stroke-miterlimit="10"
      stroke-width="4.7" d="M216.8 325.5s5.7 4.4 13.6 8.7" />
    <path fill="snow" stroke="#dbb3b5" stroke-linecap="round" stroke-linejoin="round" stroke-miterlimit="10"
      stroke-width="3" d="m261.8 266.3 23.2 60 13.2-4.2c-5.3-21.6-14.4-59.4-19.1-69.3" />
    <path fill="snow" stroke="#dbb3b5" stroke-linecap="round" stroke-linejoin="round" stroke-miterlimit="10"
      stroke-width="3"
      d="M284 324s-2.7 13.8-.3 16.5c2.4 2.8 4.8-5.1 6.6-5.1 1.7 0 15 8.6 19.2 7.5 2.4-.6-4.5-16-12-23.6" />
    <path fill="#fff" stroke="#c7d9e8" stroke-linecap="round" stroke-linejoin="round" stroke-miterlimit="10"
      stroke-width="4.7"
      d="m223.7 400.5.3-3c-7.6 1.2-15 1.2-22.1-1.3l.6 6.8c1 12.5 6.2 16.6 6.2 16.6s4 3.2 8 3.5c4.1.3 6.2-1.8 7-2.9.8-1-.3-15.5 0-19.7zm55.8-8.8c-7.8 4-16.4 6.2-24.5 5.1 1 2.9 2 5.8 2.5 8a39.6 39.6 0 0 0 8.1 16c3.6 3.6 10 1.7 12.7-.5 2.7-2.2 3.4-11.6 2.6-21.7-.2-1.6-.7-4.2-1.4-7z" />
    <g fill="#fff" stroke="#c7d9e8" stroke-linecap="round" stroke-linejoin="round" stroke-miterlimit="10"
      stroke-width="4.7">
      <path
        d="M221 407.6s3 0 3.5-.4c0-.5.4-1.1.4-1.1s.8 1.6.8 2a68 68 0 0 1-2.2 5.7s-2.7-.2-2.7-.5l.1-5.7zm-9.6 4s-2.4 2.4-3.3 2.2c-1-.1-3.4-1-3.5-1.3a19 19 0 0 1-1.7-5.3c.2-.5 1-1.4 1-1.4l.6 1.8s3.5.7 7.2 0l-.3 4z" />
      <path
        d="M225.2 417.3c-.5-2.2-1.7-5.2-1.7-5.2l-2-.3c-.2-1.2 0-5-.6-5.5-1-.7-8.8-.5-9.5.4-.3.5-.1 4.2.2 5.4h-.8c-3.8.8-6.2.3-6.2.3s-.4 3 0 5.7c.4 1.8 1.4 3.4 2.4 4.7.8 1 12.8 2 17.5.3.4-1.8.8-3.5.7-5.8z" />
      <path
        d="M211.7 412.4s-.1 3.3.3 3.8 9.9.5 10.4-.1c.6-.6-1.1-4.2-1.4-4.4-.4-.1-7.5-1.1-9.3.7zm52.3-4.8s-3.1 0-3.6-.4c0-.5-.4-1.1-.4-1.1s-.8 1.6-.8 2c0 .6 2.2 5.7 2.2 5.7s2.8-.2 2.8-.5l-.2-5.7zm9.5 4s2.5 2.4 3.3 2.2c1-.1 3.4-1 3.6-1.3a19 19 0 0 0 1.6-5.3c-.2-.5-1-1.4-1-1.4l-.6 1.8s-3.5.7-7.2 0l.3 4z" />
      <path
        d="M259.7 417.3c.5-2.2 1.7-5.2 1.7-5.2l2-.3c.2-1.2 0-5 .6-5.5 1-.7 8.8-.5 9.5.4.3.5.1 4.2-.2 5.4h.8c3.8.8 6.2.3 6.2.3s.5 3 0 5.7a11 11 0 0 1-2.4 4.7c-.8 1-12.8 2-17.5.3-.4-1.8-.8-3.5-.7-5.8z" />
      <path d="M273.3 412.4s0 3.3-.4 3.8-9.8.5-10.4-.1c-.6-.6 1.1-4.2 1.5-4.4.3-.1 7.5-1.1 9.3.7z" />
    </g>
    <path fill="#3f3f3f" stroke="#666" stroke-linecap="round" stroke-linejoin="round" stroke-miterlimit="10"
      stroke-width="4.7"
      d="M197.3 312.3s-10 8.2-11.8 14.1a20 20 0 0 0 5.9 3.5l2.3 3.8s7.3 4.7 15.3 4c1.2 0 2.6-.5 2.6-.5 1.7 1.2 5.7 4.3 14.6 3.1 2.2.2 2.9 0 2.9 0 1.4.5 7.3 2.6 9.6 2.8 2.4.3 4 .3 13.5-1.8 1.1 0 3-1 3-1 1.4.7 10.2 0 15.6-2.8l.7-1.7h2.6s7-2.8 9.4-6c-8.5-6.2-16.7-13.3-16.7-13.3z" />
    <path fill="#3f3f3f" stroke="#666" stroke-linecap="round" stroke-linejoin="round" stroke-miterlimit="10"
      stroke-width="4.7" d="M264.2 310.4s-64-5.6-64.5-4.2h-.3s-.8 1.6-2.1 6l70 5.2c-.6-2.2-1.7-5.8-3-7z" />
    <g stroke-linecap="round" stroke-linejoin="round" stroke-miterlimit="10" stroke-width="4.7">
      <path fill="#fff" stroke="#c7d9e8" d="M233.5 250.1c1 0 17.9 2.9 17.9 2.9l-14.2 9.4-3.7-12.3z" />
      <path fill="#fff" stroke="#c7d9e8"
        d="M220.6 251s-22.3 40.3-30.8 61.7c12.3 9.7 74.5 15.7 89 6.9-1.3-18.6-9.8-70.1-9.8-70.1l-29.2 11z" />
      <path fill="#fff" stroke="#c7d9e8"
        d="M264.3 253c0 3.1-1.3 20 .3 39.5 18.8-.9 32.7-12.2 32.7-12.2s-17-29.5-18.9-31.4l-14.1 4z" />
      <path fill="#3f3f3f" stroke="#666"
        d="M231.6 237.2c.6 4.1 6.3 22.7 6.3 22.7-11-5.4-20.5-11.7-20.5-11.7s12-10.6 14.2-11zm7.2 23L265 235s13.2 10.4 14.5 14.5a488 488 0 0 1-40.6 10.7zm-.6 1-10.4 12.2-3.1-7.9zm0 0 6.3 13.1 5.6-5.3z" />
    </g>
    <path fill="snow" stroke="#dbb3b5" stroke-linecap="round" stroke-linejoin="round" stroke-miterlimit="10"
      stroke-width="4.7" d="M196.5 200.4s-7-8-12.6-3.6c-5.7 4.4-3.1 24.7 9.6 27.7 8.7 2 11-5.8 11-5.8" />
    <path fill="#fff" stroke="#c7d9e8" stroke-linecap="round" stroke-linejoin="round" stroke-miterlimit="10"
      stroke-width="4.7" d="M199.3 208s-.7 34.7 7.8 48.9c-17.7-7.8-26.9-44.6-24-58a46.5 46.5 0 0 0 16.2 9.2z" />
    <path fill="snow" stroke="#dbb3b5" stroke-linecap="round" stroke-linejoin="round" stroke-miterlimit="10"
      stroke-width="3"
      d="M192.5 224.4s.4.8 9.4 5.8c8 4.4 27.2 10 42.1 7.2 16.7-3.2 32.7-9.4 40-20 0 0 5-11.2 3.8-27.7a60.7 60.7 0 0 0-6.6-51.9c-13.2-22.3-39-26.9-59.1-23.2-19.2 3.4-38.1 17.4-40.8 47.7a146 146 0 0 0 2 39.7z" />
    <circle cx="253.8" cy="243.8" r="2.8" fill="#dbb3b5" transform="scale(.9427)" />
    <path fill="#fff" stroke="#c7d9e8" stroke-linecap="round" stroke-linejoin="round" stroke-miterlimit="10"
      stroke-width="4.7"
      d="M304.8 166c-2.6-25.2-15.7-52.6-70.5-51-61 1.8-75 55.6-66 81.8 6.7 19.5 26.7 30.9 26.7 30.9s-23.8-41.1-2.2-54.7c9.7-7.9 53.9-19 53.9-19s14.8 1.6 23.8 7.7a172.4 172.4 0 0 1 17.3 38.2l7 6.2c5.2-7 11.9-22 10-40.2z" />
    <path fill="#fff" stroke="#c7d9e8" stroke-linecap="round" stroke-linejoin="round" stroke-miterlimit="10"
      stroke-width="4.7" d="M280.3 183.8s4.4 54.3-4.3 66c17.3-11.2 22.4-49.4 15-72.8" />
    <rect width="110" height="45.4" x="178.4" y="195.9" fill="url(#b)" ry="0"
      transform="matrix(.99465 -.1033 .00874 .99996 0 0)" />
    <ellipse cx="260.6" cy="201.7" fill="#fff" stroke="#c7d9e8" stroke-linecap="round" stroke-linejoin="bevel"
      stroke-width="3" rx="12.5" ry="12.4" />
    <ellipse cx="210.6" cy="207.5" fill="#fff" stroke="#c7d9e8" stroke-linecap="round" stroke-linejoin="bevel"
      stroke-width="3" rx="12.5" ry="12.4" />
    <g fill="#fff" stroke="#c7d9e8" stroke-linecap="round" stroke-linejoin="round" stroke-miterlimit="10"
      stroke-width="4.7">
      <path
        d="M178.7 155.8a70.2 70.2 0 0 0-2.7 40.1c8.8-2.7 24.7-6 23.8-6 0 0-1.3-6 1.4-13 .2 3.8 2.8 12.2 2.8 12.2s28-5 42.8-4.8c.3-5.7-1.2-28.3-1.2-28.3s7.8 22.2 7.5 28.7c25.3-1.5 36-.3 36-.3s1.4-20.8-8-37.6" />
      <path
        d="M270 148.5c.2 1 19.6 60 .7 87.4 43.1-18.4 27.3-84.4 12.3-95.5m-95 15.8c0 1-11 50.9 14.4 83-50-19.2-37-79.3-28.9-89.6" />
    </g>
    <path fill="#fff"
      d="M344.2 101.4C343.2 83 293 70.8 232 74c-61 3.3-109.6 20.8-108.6 39.2 1 18.4 51.2 30.7 112.2 27.4 61-3.3 109.6-20.8 108.6-39.2zm-109 32.7c-57.3 3.1-104.4-7-105.2-22.4-.8-15.4 45-30.4 102.2-33.4 57.3-3.1 104.4 7 105.3 22.4.8 15.4-45 30.4-102.3 33.4z" />
    <path fill="none" stroke="#db6072" stroke-linecap="round" stroke-linejoin="round" stroke-miterlimit="10"
      stroke-width="4.7"
      d="M344.2 101.4C343.2 83 293 70.8 232 74c-61 3.3-109.6 20.8-108.6 39.2 1 18.4 51.2 30.7 112.2 27.4 61-3.3 109.6-20.8 108.6-39.2zm-109 32.7c-57.3 3.1-104.4-7-105.2-22.4-.8-15.4 45-30.4 102.2-33.4 57.3-3.1 104.4 7 105.3 22.4.8 15.4-45 30.4-102.3 33.4z" />
    <path fill="#fff"
      d="M233 91.1c-21 1.2-37.7 7.2-37.4 13.5.3 6.3 17.6 10.5 38.5 9.4 21-1.1 37.7-7.1 37.4-13.5-.4-6.3-17.6-10.5-38.6-9.4zm1 20.7c-19.7 1-35.8-2.4-36.1-7.7-.3-5.3 15.4-10.5 35.1-11.5 19.7-1 35.9 2.4 36.2 7.7.2 5.3-15.5 10.4-35.2 11.5z" />
    <path fill="none" stroke="#c7d9e8" stroke-linecap="round" stroke-linejoin="round" stroke-miterlimit="10"
      stroke-width="4.7"
      d="M233 91.1c-21 1.2-37.7 7.2-37.4 13.5.3 6.3 17.6 10.5 38.5 9.4 21-1.1 37.7-7.1 37.4-13.5-.4-6.3-17.6-10.5-38.6-9.4zm1 20.7c-19.7 1-35.8-2.4-36.1-7.7-.3-5.3 15.4-10.5 35.1-11.5 19.7-1 35.9 2.4 36.2 7.7.2 5.3-15.5 10.4-35.2 11.5z" />
  </g>
</svg>
