<svg xmlns="http://www.w3.org/2000/svg" viewBox="0 0 700 700"><g stroke="#000"><path fill="#444" stroke-width="1.4" d="M301.6 116.1c-.6-3-7.6-3.7-11-3.5-15.7 1-23.6 17.2-30.1 28.5-9.5 16.3-27 18.3-39.1 33.3-12 12.6-12.8 30.1-.4 42.8 2.2 3.9 5.5 7.9 9.3 10.1 2 1 4.6 1.4 4.8.4-10.3-1.4-9.8-16-6.4-23.2.4-1.4 3-6.1 3.2-4.7.6 4.9 2 12.7 5.7 16.2 2 2 4.6 5.7 7.3 7 4 5 11.1 10.4 18 8.6.4-.2.6-1.2 0-1.1a6 6 0 0 1-5.6-1.1c-4.2-3-6.6-7.8-7.2-12.8a35 35 0 0 1 1.1-13.7c.4-1 1.2 1.4 1.6 2.4 3.2 7 6.9 13.3 15 14.3 1.8.1 4.5.4 5.7-1.1.8-1 .6-1.1-.4-.7-10 3-14.5-10-15.3-17.8-1.3-10.4 2.7-19 7.1-28.7 8.8-14.7 26-26.3 33.3-39.9 1.9-2.3 6.9-11.6 3.4-15.3zM221 214.8a39.5 39.5 0 0 1-3.3-19.7 28 28 0 0 1 12.2-18.3c1-.6 1-.5.4.5a51 51 0 0 0-9.3 37.5z"/><path fill="#2b121c" stroke-width="1.4" d="M270 164.5c-9.8 13.4-16 29.3-10 45.1l-5.9-4.3c-.5-.4 0 2-.2 2.2-1-.8-1.6-4.9-2.5-2.9a26.6 26.6 0 0 0-1.3 12.2c-4-21.4 5-39.8 18-54.1 10.2-10.3 21.6-21 29.9-33.2 4.6-6.8 3-13.2 2.2-14.8.4-.4.9 0 1.3 1 2.2 4.8-.7 10.9-2.8 14.8-3.5 5.1-5.9 9.1-12 15.5-5.8 6.4-15.7 16.6-16.8 18.5zM244.9 223c-7.8-2.8-13-12.4-13.6-20.7-.2-1.3-1.3 2-1.7 3.4-2.6 5.8-3.6 13.3-.3 19-5.5-2.3-6.2-8.4-6.5-13.7-.3-13.9 11.7-25.9 21.7-34.3.6-.1 3.2-4 3.3-2.7-10.3 13.7-13 34-3 49z"/><path fill="#e6cdd7" stroke-width="1.4" d="M304.3 235.7c-.8 0-2.4-.2-2.8.2-1.3 1-1.9 4.3.3 6.2 1.3-.7 3.4-1.4 4.5-1.8-.6-1.3-.7-3.8-2-4.6z"/><path fill="#dbb5b6" stroke-width="1.4" d="M398.6 298h-.2c-4.5 4.6-9.5 9-15 13.2-1.1.9-3.4 2-4.6 2.4-.2 0 3 19.7 3.2 19.5 4.1-3.6 8.5-8.3 11.8-12.7L406 304a16 16 0 0 1-7.5-6zm-44.9-51.6c2.6.9 4.4 2.7 5.2 5.3 1.3 3.9 1.7 8.1 1.3 12.8 0 0-4.7-3.2-6.3-4.7a48.8 48.8 0 0 1-5.2-6.8c-.8-1.7-1-3.8-2-5 2.2-1.3 5.5-2 7-1.6z"/><path fill="#403e4f" stroke-width="1.4" d="m394.3 331.8-1-1.5c.2-2.3 0-4.5-.6-6.5l-4.7-.6c-.3-.4-2.7-1.6-2.5-2.2.7-4.7-2.6-7.6-3.6-11.7-.5-3.8-4 .7-4.5 1.8-2.6 7.3.9 17.2 6.1 23 2.6 2 11 2.8 10.8-2.3zm-34.6-81.7c-4.7-6.4-12.5-6.5-14.8-6.4-4.9 2.7 13.2 27.4 18.2 27 0-7.4-.6-16.1-3.4-20.6z"/><path fill="#343443" stroke-width="1.4" d="M351.2 245c11.5 1 11.6 15.8 12 24.3-6.6-2.2-10-8.6-14.2-14 3 1.6 10.3 8 11 9.6 2.4 1.1.3-6.7 0-8.9-.8-2.9-1-3.5-2.2-6-2.1-3.4-7.7-4.9-6.6-5zm36.8 78.2 4.8.6c.6 2 .9 5.5.5 7.8-4.5 1-6.5-4.1-5.3-8.4zm-7.7 9.2c-.2-.2.7-.3.6-.8 1-2.6 8.4-.3 6.6 1.5l-7.2-.7z"/><g transform="scale(1.4)"><path fill="#dbb5b6" d="m244 476.1.5-.2v-1.6l-1-1.1-.5.4v1.2l1 1.3zm-55.4-26.3-.8-1-2.5-2.2-.9-.6c-.1-.5.4-2 .5-2l2 .7 2.5 1.2-.8 4z"/><path fill="#f4e7de" d="M281.2 270.7c0-1.8.4-4 .2-6-.4-3.6-2.7-7.1-3.7-10.8-1.2-4.4-2.5-8.8-4-13l-3.5-19.3c-1.2-5.2-3-10.3-5.3-15-.4-.9-.7-2.4-.7-3.2a80.5 80.5 0 0 0-.9-8.1c-2.2-2.1-4.3-4-6.2-6.6a32 32 0 0 0-3-4.5c-1.2-1.1-2.9-1.7-4.2-3.5-.5-1.3-1.1-2.3-1.8-3.2a10 10 0 0 1 4.4-1.5l-.5-.2a170 170 0 0 1-8.6-2.6 3 3 0 0 1-1.6-1.2c-1.4-2.1-.3-5.9.6-8-.5-.7-1.6-.3-2.8-.4h-.4c-.4-.2-.4-.4 0-.5a23 23 0 0 1-9.6-4.5v.3l-.1.2c-.1 0-.2 0-.2-.2h-.1l-.1.2c0 2.7-.1 5.2-.6 7.4-.9 1.6-2 2.7-3.5 3.4-2.4 1-5.8-.6-7.9.7a9.5 9.5 0 0 0-3 3.8c-2.8 6-3.7 12.8-5.5 19.1-3 10-6.2 20-9.9 29.9l10.1 4.6.3-.6c4.1-8.5 8-17.2 11.5-26.1l2.5 4.9c.6 1.1 1.2 2.2 1.6 3.4 2 6.2 5.3 11.5 8.3 17.1 1.2 2.4 2.1 4.6 2.3 7 .6 6.4-.5 12.4-3.3 18a207.4 207.4 0 0 0-5 11.2 54.7 54.7 0 0 0-3.5 18.8c0 6.7-.6 13.4-.6 20.1a485.6 485.6 0 0 0 2.3 32c.4 3 .5 6.3.6 9.4l-.4 4.5c-.7 3.4-3 4.7-6 6.2-2.9 1.6-4.8 2.6-7 5.1a58.9 58.9 0 0 0-8.9 14.3l-5.5 15.6-6.1 15c-2 3-4.1 4.5-6.7 6.5-4.3 3.3-3.1 8.2-2.2 12.7 1 4 .6 8-.3 12.2a15 15 0 0 0-.3 4c.1 2 .1 5.6 2 7 0 0 .5.3.6 0 .2-.2.3-1.4.3-1.4l.2.4c0 .7-.1 2 .2 2.6.2.5.5.8 1.3 1l.5-.3.1-2.1.2-.1c.2 0 .2 0 .2.2-.2 1.7-.5 4 2.3 3.5l.2-3.5a.1.1 0 1 1 .3 0l.2 3.7c.2.5.6.9 1 1.1h.5c.3 0 .6-.2.9-.5a19.3 19.3 0 0 1-.2-5.4l.1.1.7 5.5c1 .6 2.5.8 3-.7.5-1.4-.3-2.5-.4-3.7-.2-3-.4-6-.8-9.1-.4-4.4.2-8.7.8-13 1-5.3 1.2-10.8 3.7-15.6a299.5 299.5 0 0 1 25-35c2.2-2.8 4.3-4.8 6.2-6.3 3.2-2.4 6.1-4.7 7.6-8 .5-1 1-2 1.2-3.5l2.2-11c2-12.1 4.4-24 7.2-36h.6c-.1 1.2-.4 2.3-.4 3.4-.5 7.5-1 15-1.7 22.5-.3 4.6-.8 7.8-1.3 9.6-.9 3-1.6 6-2.2 8.9-.3 1.9-.3 4-.2 6.1a50 50 0 0 1-.3 12.8c-.7 3.5-1.3 7.1-1.7 10.7-.6 4.5-1.2 8.8-1.2 13.5 0 12.2-.3 24.6-2.6 36.5a29 29 0 0 1-2.8 8.3 8.4 8.4 0 0 0-1.7 6c0 1 0 1.7-.3 2.2a17 17 0 0 0-1.2 9c.2 1.4 0 2.5 0 3.8-.5 1.7-1.1 3.4-1.9 5a5 5 0 0 0-.5 2.2c0 3 .6 6 2 8.6.2.7.7 1 1 1 1.7.8 2.7.4 3-1.3l-.5-5v-.1h.3c.7 1.5 1.1 3 1.3 4.5 0 .2.2.3.3.4 1.4 1 2.5.8 3.6-.4 0-.2.2-.3.4-.3.8 0 1.6-.4 2.2-1 .2 0 .2-.2.1-.3l-.4-2c0-.3 0-.3.2 0 .3.5.4 1 .3 1.6a.4.4 0 0 0 .8.2c.2-.5.5-.8.9-.9.1 0 .2 0 .2-.2.7-1.4 1-2.9.7-4.4-.5-3.3-.8-6.4-1-9.4 0-2.9-.4-5.4-.8-8.2-.2-2.1 1.8-4 1.9-6.3.1-3.9.4-6.6.8-8.2l4-16.3c2-7.8 4.2-15 6.7-22.3 3-9 4.3-18.3 3.7-27.8l-.3-8a47 47 0 0 1 2.5-14.4c4.2-11.8 7.3-20.5 9.1-26.2 3.2-9.8 5.5-18.7 6.7-26.5 1-6.4 1.5-12 1.4-16.7l-.2-9.1zm-57-100.1z"/><path fill="#dbb5b6" d="m245.7 474.8-.3-.9c-.1-.5-.2-1.7 0-1.8l.3 1.7c0 .4.2.9 0 1zm-4.6 2.2-.3-.9c-.1-.5-.2-1.7 0-1.8l.4 1.7v1zm-4.4-114.7c.8-.7 1.4-1.8 2.4-2.6a22 22 0 0 1-7.6 8c-2 1.5-4 3.5-6.2 6.2a299.2 299.2 0 0 0-25 35c-2.5 4.8-2.7 10.4-3.7 15.7l-.1-1.5c0-.5-.1-1-.3-1.4-1.3-3.2-1.8-7.6-2.3-10.2-.3-1.1-1-2.3-1-3.7l-.3-.4c-.8-.8-1-2-.7-3.5a491.3 491.3 0 0 0 11.6-30.6c1-2.7 2.2-5 3.8-7.2l4.8-5.8c1.8-2.3 3.4-3.5 5.9-4.7 2-1 3.9-2.2 5.7-3.4.8-.6 1.4-1.2 1.7-1.8.3-1 .3-1.8 0-2.7l.4-4.5.3 1s1.2 2 1.5 4.1.3 10 1.5 11.7c1.1 1.7 4.5 4.8 7.6 2.3zM228 193.6c.4.8.5 1.7.4 2.5 0 .2 0 .3-.2.3l-1-.2a3 3 0 0 0-2-.9l-.4.2-.8 2.9c-.5 3.7.2 7 .4 10.3l-3.8-7.4c1-2.9 2-5.8 2.8-8.7.3-.8 1-1.7 2-3h.2l.2.2-.5.9.1.3 2.7 2.6zm14.5 189.6c.4-3.7 1-7.4 1.7-11 .9-4.5.5-9.3.3-13.7-.1-1.7 0-3.3.1-5l.2 1.4a.2.2 0 0 0 .3 0l.3-1.3h.2c.1 2.6 0 5.1.6 7.7.7 2.3 1.9 5.4 1.7 7.8 0 .6-.4 1.5-1 2.5-1 2-1.9 4.1-2.5 6.3 0 .2-.2.3-.3.4l-.5.2s-.2.2-.1.3c.1.5 0 .9-.2 1.3l-.2.4-.6 2.7zm30.1-145.5c2.7 6.7 2.6 14 5.7 20.4 3.6 6.3 1.3 19 1.6 25-1-.2-.3-12-4.5-9.5-5 3-9.8 9.4-14.7 12.5a10.2 10.2 0 0 1-8.5.9c-2.5-19.1 7.5-4 13.7-13.6a48 48 0 0 0 6.7-35.7z"/><path fill="#dbb5b6" d="m271.6 276.6-9.5 8.7c-.9.8-6 6.5-7.1 8-3.2 4.7-3.7 10.6-4.7 16-.3-.2-.5-.2-.6 0a124 124 0 0 0 2.6-23h.3c1.7 1.2 5.6.1 5.6.1s2.5-.5 3-1l6.5-5.9c1.8-1.5 3-2.5 3.9-3zm-43.6-83c1.1.7 2.2 2.4 1.3 3.7h-.3l-1.9-1h1c.2 0 .3 0 .3-.2.1-.8 0-1.7-.3-2.5zm-4 4.8.2 3c0 .8.1 1.8.4 3 .3 1.3.2 2.6.7 4a75 75 0 0 0 3.3 7.7c1 1.7 2.5 4.2 4.8 7.5 1 1.5 2.4 3 3.6 4.4 1 1.3 1 2.3.4 3.8a6 6 0 0 0-.3 1.8v7a19 19 0 0 1-.6 4.9 212.5 212.5 0 0 1-10.9 26c-.5 1.6-1.5 17.4-1.8 20.7l-.2 1-.1.5c0 2.7-.2 5.4-.6 8l.1-7.8a1476 1476 0 0 0 .5-13.6c0-3.7.5-7.5 1.4-11.2.9-4 3-8.1 4.6-12.2l2.2-4.5a37.2 37.2 0 0 0 3.4-20.8c-1.7-4-4.2-9-7.4-14.8a40 40 0 0 1-3.3-8.1c-.2-3.2-1-6.6-.4-10.3zm11.9 243.2a7 7 0 0 1-.1 2.2 9 9 0 0 0-.3 2 31.3 31.3 0 0 1-1.6 10.1l-.2.4a22 22 0 0 1-1 6.2c0-1.3.2-2.4 0-3.9a14 14 0 0 1 .7-7c.7-2.3 1-4.7 1-7.5 0-1 .5-1.8 1.5-2.5zm6.7-277.7c-.9 2.1-2.1 6-.8 8.1.4.5 1 1 1.9 1.2 3 1 6 2 9 2.8-1.6 0-3 .6-4.6 1.5a22.1 22.1 0 0 1-5.3 1.8c-1.9.2-2.5-1.6-3.7-1.8-3.5-.7-6.4-1.6-8.7-3a141.5 141.5 0 0 1-6.1-4h.2a9 9 0 0 1 2.8 1.3c2.2 1.6 4.6 2.9 7.2 3.8a.3.3 0 0 0 .3-.4c-1-1.2-2.2-2.2-3.1-3.4a71.7 71.7 0 0 1-3.3-5.3c.6-2.3.7-6.2.5-8.8 2.4-2 7-1.2 10 0s3.8 2.8 3.7 6.2zm22.1 85.9a8.3 8.3 0 0 1 0-6.2c.1-.1.2-.2.3-.1.1 0 .2 0 .2.2-.3 1.8-.3 3.8 0 5.7 0 .3-.1.5-.3.5l-.2-.1z"/><ellipse cx="234.6" cy="478" fill="#dbb5b6" rx="1.2" ry=".8" transform="rotate(-19.1 234.6 478)"/><path fill="#dbb5b6" d="m194 451.1-.6-.2c-.4-1.7-.5-3.5-.3-5.3a.1.1 0 0 1 .2 0l.7 5.5zm-3-.8-.7-.2.2-3.5a.1.1 0 1 1 .3 0l.2 3.7z"/><ellipse cx="195.6" cy="449.5" fill="#dbb5b6" rx="1" ry="1.1" transform="rotate(-85.1 195.6 449.5)"/></g><path fill="#f4e7de" stroke-width="1.4" d="M314 238.8z"/><path fill="#2b121c" stroke-width="1.4" d="M296 182.4c-.4-2.9-5.9-26.7.5-43.6 1.8-5.2 5.2-10.7 8.2-16 .3-.6.2-.7-.3-.3a61.2 61.2 0 0 0-8.4 16.1c-2.7 6.6-4 14-6.2 20.6-3.2 5-4.8 7.1-7.8 11.9-3.9 7.7-5 14.3-5.3 17.8-.6 5.4-.4 11.8-.4 11.6 0 0 .7-14.2 4.3-22.8.6 1.8.9 7.3 7.6 13 .5.8 8.2 6.1 8.5 7 .6 0-.1-12.4-.6-15.3z"/><path fill="#9a7978" stroke-width="1.4" d="m374 219 .7 1c5.3-1.4 8.3-2.9 11-7.5l.3-4.8c-.9 6.5-4.5 9.4-12 11.2z"/><path fill="#dbb5b6" stroke-width="1.4" d="M384.5 202c1.2.4 1.8 1 1.8 1.6.1 9.4-3.4 13.2-12.4 15.4l10.6-17z"/><g transform="scale(1.4)"><path fill="#f4e7de" d="M280.9 93.6a44.6 44.6 0 0 0-46.3-14.9 32 32 0 0 0-19.4 14c-7 11.2-4.8 31-3.5 37.3v.1c-.1-.2 2.1 9.2 3.4 13 .3.8 5.9 8.4 8.5 10.9.9.9 3 2.4 6 4.6 3 2.3 12.2 5 13.6 5.2h7c4.8-.2 10.6-1.3 14.1-4.3.5-.3 1.4-1.4 2.8-3.1l7.5-12.1s7.5-13.5 7.7-14.1c.3-.7 11-21.2-1.4-36.6z"/><ellipse cx="248" cy="144.6" fill="#dbb5b6" rx=".3" ry=".5"/><path fill="#dbb5b6" d="M218 133c-1.8-11-9.4-35.3 16.6-54.3a32 32 0 0 0-19.4 14c-7 11.2-4.8 31-3.5 37.3 2.2.8 6 2.3 6.2 3z"/></g><path fill="#dbb5b6" stroke-width="1.4" d="M387 197.6c-1.1.7-1.4-6.4-2.5-7.4l14.8-18.3c0-.1-1.7 8.3-12.2 25.7z"/><path fill="#9a7978" stroke-width="1.4" d="M374 219h-.1a36 36 0 0 1-3.8 4.4 55.6 55.6 0 0 1-30 5.8l-.4.5a53.2 53.2 0 0 0 29.8-4.8c2.7-1.9 4-4.6 5.2-5l-.7-1z"/><g filter="url(#a)" transform="scale(1.4)"><path fill="#ffd9d7" d="M263.1 148.7c-.6-.2 6.5 1.7 3.6 7.7-.8 1.5-1.6 2-2.6 3.4-4.4 1.6-9.5-1.4-9.4-7.6.2-5.8 4.7-4.7 8.4-3.5zM219.8 138c2.4-1.4 5.8-1 11.3 2 3 1.6 4.6 6.4.7 8.8-2 2-5.8 2.7-8.5 1.7-9-4.2-6.3-11-3.5-12.5z"/></g><path fill="#fdfcfc" stroke-width="1.4" d="M339.4 462.8a28.6 28.6 0 0 0-24.4 1.6l.3 2.8c.5 4.4.6 8.9.8 13.3l-.6 6.3c-.9 4.7-4.2 6.5-8.3 8.7-4.1 2.2-6.8 3.6-9.8 7.2a82.4 82.4 0 0 0-12.4 19.9c-3.5 9.8-6 17.1-7.8 21.8a350 350 0 0 1-8.6 21c-2.6 4.4-5.7 6.3-9.3 9.1-6 4.7-4.4 11.5-3 17.9 1.2 5.7.7 11.1-.5 17a21 21 0 0 0-.5 5.6c.1 1.6.2 4 .8 6.2h-.1s.4 4.1 5 7.2c4.5 3 11 6.7 13.9 3.6v-.1c.3-.3.7-.7.9-1.3.7-2-.4-3.6-.5-5.2l-1.1-12.8c-.7-6.2.1-12.2 1-18.2 1.4-7.4 1.8-15.2 5.2-21.9a419.4 419.4 0 0 1 35-49c3-3.8 6-6.7 8.8-8.8 4.4-3.3 8.5-6.6 10.5-11.2.7-1.2 1.3-2.8 1.8-4.8 1.2-5.6 2.2-10.7 3-15.5l3.3-18c-1-.9-2.1-1.7-3.4-2.4z"/><path fill="#403e4f" stroke-width="1.4" d="m274.5 615-.8 1.6c-.6 1.2-1.5 4.7-1.5 4.7-.2.3-.6 0-.6-.2-.2-5-4-6.8-7.9-8.2-.3-.2-.3-.3 0-.4 2.7-.6 8.5-1.5 8.3-6.5-.1-.4.6-.6.7-.3.3 1.5.9 3.1 1.3 4.7.3 1.3.3 3.9.5 4.6z"/><path fill="#fdfcfc" stroke-width="1.4" d="m370 488.8 5.6-16.1a41.3 41.3 0 0 1-15.7 2c-4.5-.6-9.4-1.7-12.4-5.2a77 77 0 0 1-1.9 13.1 45.4 45.4 0 0 0-3.3 21c.4 5.7.7 11.9-.4 17.9-1 5-1.8 10-2.5 15-.7 6.3-1.6 12.3-1.6 18.9 0 17-.4 34.4-3.6 51.1-.8 4.3-2.1 8.1-4 11.6-1.7 2-2.5 4.7-2.4 8.5a9 9 0 0 1-.3 3c-1.4 4.3-2.6 7.6-1.7 12.5.3 2 0 3.5 0 5.4-.7 2.4-1.6 4.8-2.7 7a7.2 7.2 0 0 0-.7 3c0 4.3 1 8.4 2.8 12.2a2 2 0 0 0 1.3 1.4c1 .4 1.7.6 2.3.5a25 25 0 0 0 15.5-7v-.1l.2-.2c.9-2 1.2-4 .8-6.2-.6-4.5-1-8.9-1.2-13-.2-4.2-.7-7.7-1.2-11.5-.4-3 2.5-5.6 2.6-9 .2-5.3.6-9.2 1.1-11.5l5.7-22.8c2.7-10.8 5.8-20.9 9.3-31.1 4.3-12.7 6-25.7 5.3-38.9a67.9 67.9 0 0 1 3-31.5z"/><path fill="#403e4f" stroke-width="1.4" d="M326.2 655.6c-.2-1 1.5-.7 4.9-3.2.3-.2.8-.5 1.2-1.2 5.5-10-.3.6 9.9 4.3 1.4 1.3-1.7 1-4.5 2.3a7.3 7.3 0 0 0-3.7 6c0 .3-.6.3-.7 0-1.2-4.7-1.7-7-7-8.2z"/><path fill="#e9dae2" stroke-width="1.4" d="m370 488.8 5.6-16.1a41.3 41.3 0 0 1-15.7 2c-4.5-.6-9.4-1.7-12.4-5.2a77 77 0 0 1-3.7 20.1c4.2.6 15.1 2.4 17.7 6.4 3.1 5 .9 17.1 2.7 21a24 24 0 0 0 2.7 4.5v-1.2a67.9 67.9 0 0 1 3-31.5z"/><path fill="#343443" stroke-width="1.4" d="M343.3 636.8s.8-4.2.8-5.7v-1.8s-.9 1.3-1.2 2.8c-.3 1.5.1 4.7.4 4.7z"/><path fill="#403e4f" stroke-width="1.4" d="M345.2 645.5c.2-.6.3-2.4.1-3-.3-.8-1-1.3-1.2-1.8 0-3.3.3-5-1.5-7.3-2.4-3-11-3.7-12.9 0-.9 1.3-1.3 3-1.3 3-.9-1-1-4.6-.8-7.4.3-4.2 1.1-6.8.4-7.5-.5 1.4-1.4 3-2 4.5-.5 1.5-1 3-1 4.5-.3 3.5-.4 6.8 0 10.4-.3 4.8-2.5 10.6-3.6 15.6-.8 5.7.6 12.8 5.3 16.4 4 1.9 9 2.5 13.3.7 3.2-1.9 5-4.4 6-7.6 1-4 .7-8.8.2-12.8"/><path fill="#fff" stroke-width="1.4" d="M327.3 663.9c2.4 1.4 2.8 2.5 2.7 2.8-.3.4-1.2.4-1.7 0-.6-.4-1.1-1.2-1.3-2.6 0-.2 0-.3.3-.2zm8.5-23.8c1.6 0 4 .6 4.2 1.2 0 .3-1.5-.2-3.8-.3-1.6-.1-3.3.1-4.3.2-1 0-.6-1 .3-1 0 0 2-.2 3.6-.1z" opacity=".4"/><path fill="#343443" stroke-width="1.4" d="M345.3 644.5s-.2 1.7-.6 2.3c-.4.5-.7.6-.9.8 0 1.1.4 3.2.4 4.2a17 17 0 0 1-1.6 10.8c-.7 1-3 1.8-3.9 2-.3.1-.3 0-.1-.2 1.7-1.1 3.6-2 4.3-4.4 1-4.2 1-8.7.2-12-1.2-2.8-3.8-4.6-9.2-4.2-2 .3-4.5.2-5.6 2-1.5 4.8-2.2 10.4 0 15a15 15 0 0 0 2.8 3.2l-1.3-.5c-1.2-.8-2-1.7-2.6-2.7-2.5-4.2-.5-10 .4-14.8.2-.8-.4-2.5.5-2.8.3.4.3.5.7.6 1.2 0 2.3-.5 3.5-.7a14 14 0 0 1 5.2 0c4 1 4.3 1.7 6.1 3.3.8.6 1.2-2.2 1.7-1.9z"/><path fill="#343443" stroke-width="1.4" d="M346.4 663.6c0-.1-.1-.1-.2 0-.6.2-1.6 5.3-7.7 7.5-5.6 1.4-12.6-.6-14.8-6.2-1.2-2.6-1.4-5.8-2-8.6l-.3.2c-.8 5.6.6 12.8 5.3 16.4a16 16 0 0 0 13.4 1c3.3-1.9 5-4.7 5.9-8l.4-2.3zm-16.2-27.1c-.3 0-.1-.5-.2-.8l-.1-.2c-.3 0-.1.4-.3.3 0 .6-.4.8-1 .8l-.2-.2c-.3-.5-.6-1.5-.8-3.3-.4-2.4.3-6.3.1-6.5a19.8 19.8 0 0 0 0 10.5c0 1.3-1 2.6-.4 3.5.1 0 .3-.1.3-.3.2-2 1-2.9 3-3.1 3.3-1 7.5.1 9.4.8-2.7-2-6.4-2-9.8-1.5z"/><path fill="#403e4f" stroke-width="1.4" d="M276 605.2c.9-2.3 1.1-4.6.1-6.8 1-2.8 1.5-4.4-.6-7.1-3.9-1.3-9.6-2-11.6 2.5-.5-2.2-1.8-4-1.8-6.2.4-1.6.5-3 .5-4.1.4-5-1.8-11.3 3.3-14.4-.1-.7-1.7 0-2 .4l-4.2 2.3c-1.5.7-2 2.5-3 3.5-2.3 2.3-3.3 3.9-4.9 5.9-.8 2-.3 4.7.2 7 .2 1 1 4.2 1.7 5 .1.1.8 0 .9.2.2.8 0 4.4 0 5.3 0 3.3-.3 7.3-.6 10.6-.2 5-1 9.6 1.6 14 2.9 6.2 11 13.2 17.6 10.8a9 9 0 0 0 3.2-2c1.7-1.6 2.5-4 2.7-7.1-.3-6.8-2.4-13.3-3.2-19.8zm-11.5-3zm0 0z"/><path fill="#343443" stroke-width="1.4" d="M268 631.3c-7.5-3.3-10.5-9.9-11.5-17.3-1-7.2.3-14.7.8-21.2-.8-5.1-2.7-11-1.9-16.1-3.4 3.3-5 6.7-3.4 11.6.5 1.3.8 5 2.6 5.1 1 9.8-4 21.8 1.2 31a20 20 0 0 0 13.6 10.7c2.6.3 5.3-.8 7.7-3.8-2.1 1.5-6.2 1-9 0z"/><path fill="#343443" stroke-width="1.4" d="M275.6 591.2c1 .6 1 1.3 1.3 2 .5 1.7 0 3.2-.8 5.2 1 2.2.8 4.5-.2 6.8-.6.1-.5-.6-1.4-1.2l-1.2-.7c-.1 0-.1-.1 0-.1.8 0 1.8 1 2.4.1 2.7-4-2.3-5-5.2-5.7-.4-.6 1.2-.2 2.1 0l2.5.6c.9-2.3 2.1-6.9-1.7-7-2.4.2-6-1.2-7.3 1.2-.3 1.1-.3 2.4-.5 3.5.4.2 2.6.3 2.7 1-1-.3-3.1-.4-4.2 0-1.5.4-1.3 3.2-.5 4.9.2.5 1.3.4 1.6.6-.6.6-1.5.5-1.8 1.3-1.6 3.9-.8 10.4-.4 14.2a6 6 0 0 1-.6-1.5c-1.1-6.2-.7-9 0-14.8 0-2-1-4.9 1.3-5.7.7-.4.4-1.2 0-1.8.5-1.8.8-2.5 1.7-3 2.6-1.9 7.6-1 10.2 0zm3.5 33.8c-.3 4.7-6.6 4-9.7 2-.1-.1-.1-.5.1-.4 3.6 1.7 8 2.2 8.5-2.8 1-2.4 1 .4 1.1 1.2z"/><path fill="#fff" stroke-width="1.4" d="M266.2 621c.3.3 1.1 3.3 0 2.8-.7-.3-2.3-2.8-1.4-3.1.5 0 1 0 1.4.4zm2.1-21.8s4 .2 5.4 1.4c.6.4.7 1-.8.5-1.6-.5-4.7-1.1-5.5-1.2-.8 0-.5-.7 1-.7z" opacity=".4"/><path fill="#fdfcfc" stroke-width="1.4" d="M349 259.3c-1.5-8-2.8-17.8-11-22.6 1 5.8 1.6 7.7.6 7.5-2-.5-9.8-12.8-20.8-13.3-1.1 1-1.5 2-2.6 3.3 6.7 3 12.4 8 17.7 13l6.4 5.5c.1 0 .1 0 0 0 3.1 2.7 6 5 8.8 8l.8-1.4z"/><path fill="#e9dae2" stroke-width="1.4" d="M347 259.2c-1.5-1.8-4.9-5.1-4.9-5.4l-.6-4c0-.2 0-.4.2-.4 1.4-.3 2.5-1 3.8-.4 1.3 3.2 1.8 7 2.3 10.4l1.1-.1c-1-5.2-2-13.2-5-18.7-2-1.8-3.4-4-6-5.4-.3 1.1-.4 2.8-.3 4.3.2 1.2.2 2 .2 3.6a30.5 30.5 0 0 0-20.1-13.5c-1.1 1-1.4 3.3-2.5 4.6 6.7 3 12.4 8 17.7 13 1.9.4 3.9 1.4 5.7 1.3.5 0 1.5-.7 1.8 0 .5 1.5 1 4 .6 5.1-.6-.6-1.2-1-1.7-1 3.1 2.8 6 5.1 8.8 8v-.5c-.4-.3-.8-.5-1-.9z"/><path fill="#403e4f" stroke-width="1.4" d="M385.8 346s-7.4-37.3-7.9-39.2c-1.7-7-4.9-14.9-7.8-20.7.1-.8 1-5.9-1.3-13.3-.9-1.6-5-6.8-5.3-7.3a116 116 0 0 1-8.2-17.2c-1.4-2.6-3.5-3.6-5.9-4.8-2-2.7-4.8-4.3-7.9-5.1 0 0 2 2.1 3.7 5.8a93.1 93.1 0 0 1 3 15.4c-.2-.2-10.4-9.4-15.7-13.9a58.7 58.7 0 0 0-19.2-13.2c-2-.4-5.3 3.4-7 4.8-2.3 1.1-3.4.7-5.8 4.8 2.8-.7 8.8 2 11.4 8.4 5.5 10.5-3 31.6-3 31.7a655.5 655.5 0 0 0 10.4 22.8c1.7 3.7 5 9 7.3 14.6l1.6 4.8c.8 3 1.2 8.2.5 13.3-.6 5.5-1 7.4-1 7.4s9.2 16.7 43 10c15.7-3.4 15-9 15-9z"/><g fill="#343443" stroke-width="1.4"><path d="M349.5 243.5c-2-2.7-5-4.6-8.1-5.4a15.2 15.2 0 0 0 4.3 8c1.5 0 3.8-1.5 5-.4 3.5 5.6 5 11.3 6.2 17.4l.5-.1c-1.4-7.1-3.6-14-7.9-19.5zm-.2 31.5c0-6.4-.5-12.6-.9-16-.1 0 0 .4-.4.3.6 4.6.6 9.8.8 15a417 417 0 0 0-24.2-21.9c-.4 0-.2.2-.3.4 6.3 5.6 13 11.1 18.9 17.1 1.7 1.8 4 3.4 5 5.6.6 1.2.2 2.5 0 3.9.1 0 .5.2.4-.1 0-1.5.8-2.8.7-4.3zm-34-31.5a80.9 80.9 0 0 0-7.2-4.8c-2.4-1.5-2.6-1.1-.2.3l1.1.7a59 59 0 0 1 5.8 3.9l.5-.1z"/><path d="M324.6 252.4c-.4 0-.2.2-.2.4l-10.5-10.1c-.7-.7 1 .3 1.3.6 3.2 2.9 6.3 6 9.4 9zm36.9 9.5c1.2 2.1 3.8 4.6 5 6.8 2 2.3 2.6 4.2 2.9 7.2-.7-5.1-4-6.6-6.5-9-3.1-3-6-6.8-5.6-13.1l4.2 8zm-33.2 61.7-.1-.5c1.5-.5 10.4-10 15-22 3.8-10 5-21 5.3-24.6.2-1.4.2-1.4.4-1.5h.2l.1.2-.2.1.2.1-.1 1.2c-.4 3.6-1.6 14.7-5.4 24.7a53 53 0 0 1-15.4 22.3zm20.7-48.3-.3.1h.3z"/><path d="m330 337.6-.4-.3a289 289 0 0 1 6.3-6.3c6.5-6.4 11.3-11 14.5-19.2a121 121 0 0 0 6.7-27.4c.7-5.3 0-19.2-.3-21.6l.5-.1c.4 2.4 1 16.5.3 21.7-1 7.5-3 18.4-6.6 27.6-3.4 8.4-8.1 13-14.7 19.4l-6.3 6.2z"/></g><path fill="#3d3c4f" stroke-width="1.4" d="M351.5 380.3c2.4.1 27.7 2.5 31 5-.4 1-14.4 13.6-16.4 15.2s-10.7 4.5-13 4.3c-.2 0 .3-18-1.6-24.5z"/><path fill="#f5f3f3" stroke-width="1.4" d="M399 377.4c-5.6-6.5-14.7.2-21.6 0l-6.1 1c-17.6-.5-34-8.8-51.2-12-3.6 1.4-6.7 4.9-10.6 5.5-4.3.3-5.4 3.2-8.1 5.6-.3.3-.3.5 0 .6l10 5c.3.4 1.6 1.5 1.9 1.4.2 0 2-7.2 2-7.2l6.4-.2c1.2-1 .4-5 3.5-4.2 2.5 2.7 4.8 5.4 8.4 6.8 0 .2 3.9-.4 4-.4.3 0 .4-.1.4-.3 2-6 11.2 1.3 14 3.6 2.9.1 4 1.4 5.1 3 5.2 4 10-1.3 14.9 2 1.8-.7 5-3.7 7-2.8 4.5 2.6 8.4 0 12.5-1.6 3.8.6 5.7-2.2 7.6-4.7.3-.4.3-.8 0-1.1z"/><path fill="#e9dae2" stroke-width="1.4" d="m335.9 370.4.8.3c-.1 0-4.3 3.9-4.3 3.2-.3-.2 3.4-3.4 3.5-3.5zm41.6 7.7c-1.8.9.2.8 0 1.6-.3.4-.7.8-.4 1.2l2 3.9c-1-.4-2-.3-2.7.3l-4-5.1c-.5-.7.2-1.6-1.1-1.5l6.2-.4zm-12 1.4c.3-.1-.2 4.7-.4 4.6-5.3-2.4-7.7-8.6.4-4.6zm-50.2-2.2s-1.8 7.2-2 7.2c-.3 0-1.6-1-2-1.4.4.2 1 0 .7-.3-2-3.3-1.3-6.7-7-5.2-.2 0-.3 0 0-.3 3-3.6 6.6-.9 10.3 0z"/><path fill="#3d3c4f" stroke-width="1.4" d="M394.1 373.2s-10.7 4-22.2 3.8c-3.7 0-10-.5-19.6-2.9-13.2-3.3-27-7.6-27.5-7.7-.9 0-4.1-.6-6.8.4l-.5.8s2.3-.9 5.2-.6c2.9.3 22.9 6.7 26.8 7.6 7.2 1.8 15.4 3.5 21.3 3.6 6.2 0 16.2-.7 23.4-4 .6-.4.2-.8 0-1z"/><path fill="#fdfcfc" stroke-width="1.4" d="M477.3 414.1c-5-5.8-13.8-7.6-20.9-9.8-16 11.2-172.5 20.1-192.8 7.1-4.3 1.8-18 8.7-17.4 14l7.3 7.8c1.5.5 9.8 8.4 10.7 3.2.2 0 .3.1.4.4-4.9 8 22.5 12.6 27.3 12.9 1.1-.4 1-3.6 2.8-2.7a84.3 84.3 0 0 0 32.2 8c.3-.5 0-2.5.9-2.3 6.9.4 13.8.6 20.7.6 4.3.3 10.8-2.2 15-1.1l-.3 1.2c1.7 1 4.5.6 6.6.5a33 33 0 0 1 16.5 0c6 .7 11.5.3 16.7-1l9-2.4c.2 0 1.2-2.7 2-2.8 5.3-1.2 10.2-1 15.2-3.1 3.5-1.2 6.7-3.4 10.1-4.3.8.3 1.2.3 2 0 13.6-7.1 29-13 36-26.2z"/><path fill="#e9dae2" stroke-width="1.4" d="M451.1 410.5c.3-.7.7-1.2 1.4-1.6h.6c3 1.7 4.7 3.2 3.2 7 0 .2 2 2.4 1.7 2.4-2.4-.5-8-5-6.9-7.8zm-5.8.5c.5-.2.9 0 1 .5 1 2 3 5.7 2.2 8.1-.1.3-.5.5-.8.4a20 20 0 0 1-8.4-4.7l-.6-.3-.8-.3a.3.3 0 0 1-.1-.3v-.1l7.5-3.3zm-181.7.4c4.6 3 9 5.6 13.5 7.6-5 5.4-9.1 11.3-12.5 17.8-.1-.3-.2-.4-.4-.4a146.5 146.5 0 0 1 9.9-16.2c-1.5 0-2.6.2-3.6.7-6 3-11.6 7.1-17 12.3l-7.3-7.8c-.4-.4-.4-1 0-1.5 1-1.6 2.2-3 3.8-4.3a47 47 0 0 1 13.6-8.2zm154 7.4.7 15.3c0 .8 0 1-.5 1.6-.2 0-.2.2-.2.4v3a.6.6 0 0 1-1.2.1c-1.8-4.7-4-9.4-6.4-14a.7.7 0 0 0-1-.2 36.6 36.6 0 0 0-10.2 6.6c-1 .8-2 1-3.4.7a.6.6 0 0 1-.4-.4s-1.8-4.2-1.3-4.4c-1.2-2.5 24-8.7 24-8.7zm-130.1 4.7c3.6 1.6 7.3 2.8 11 3.6-.5 0-.7.3-.6 1 0 .2 0 .4-.2.5a29.6 29.6 0 0 0-4.6 7.3c-1 2-1.8 3.4-3.3 4.7a.6.6 0 0 1-1-.4l.1-3.2c0-1 0-2-.2-3-.8-3.4-1.2-6.9-1.2-10.5zm43.3 6.5.2.6v.5l-4.8 15a.3.3 0 0 1-.6 0c.3-5.3 0-10.5-1-15.5l6.2-.5zm40.2 1c-.3 0-.6.2-.8.4v.5c.5.3.6.6.5 1-1.6 4.7-3.4 9.4-5.4 14a.3.3 0 0 1-.5 0l-5.2-15.6 11.4-.2z"/><g fill="#403e4f" stroke-width="1.4"><path d="M384.3 328.1c-15.5 15-55 3.7-56.8 4-8.6 4.6-22.3 18.8-30.5 29.4a412 412 0 0 0-33.4 50.8c20.3 13 42.8 20.7 67.2 18.7 1.4-.3.5-2.6 2.5-2.1 22.9 5.4 45.9 3.5 68.2-3.5 19.1-5.4 40-10 56-21.2 0 0-45.6-60.6-73.2-76z"/><path d="M392.1 334.1c-1.3-.6-3.7-3-5-3.4-1.5-1.1-4.5-9-6-9.2-13.9 9-37 9.3-51.5 3.3-.6-.3-1.3 0-1.4.3-.6 2.4.3 4.8-1 7.5-.2.5-.6 1.1-1 1.3 18.3 12 48 13.3 66 .2z"/></g><path fill="#231e25" stroke-width="1.4" d="m352.6 298.7 15.5-3.2.4 2-15.5 3.2z"/><path fill="#36343f" stroke-width="1.4" d="M373.5 293.2c-.3-.7-1.3-1-4.6-.8l-2.3.3 12 47.2c1.5-.8 3-2.2 4.5-4 .8-1.1 2.6-4.9 3.5-5.9.3-.2-9.9-29.4-13-36.8z"/><path fill="#36343f" stroke-width="1.4" d="m371.8 294.6 1.3-1.4-1-2.4s2 .8 2.3 1.7 1 7.4 1 7.4l-4.4 1.9m-28.8-4a47.4 47.4 0 0 0-19.2 11.5s-1 2-.8 2.7c.2.6 1.9 5.1 3.2 7.7.3 2.6.4 7.2.1 8.7-.4 2-1 4-1.6 6.2-.3.8.2 1.6 1 1.8l7.9 2.3 8 2c3 .7 9.2 4.7 23.8 3.7l-8.5-50c-3.4.6-12 2.8-14 3.4z"/><path fill="#36343f" stroke-width="1.4" d="M330.8 303.6s-9.1 2.6-12.8-1c.8 3 .5 3.7 1.3 5l4.6 7.5 8.3-8"/><path fill="#231e25" stroke-width="1.4" d="M338.8 335.3c.6-4.5.8-8 1.7-12.2-2.5-6.6-4.6-14.3-6.9-21.4l-.8.4c1.5 6.8 4.4 13 5.9 20.2 0 .1 0 .2-.2.2-2.2-.5-4.4-.8-6.5-1.4-.2-.1-.3 0-.1.2 1.7 1.7 7.3 1.9 7.2 2l-1.5 16.6.7.3.5-4.9z"/><g fill="#231e25" transform="scale(1.4)"><circle cx="252" cy="213.9" r="1.3"/><circle cx="266.5" cy="216.1" r="1.3"/><path d="m265.4 216.7-13-2a.7.7 0 1 1 .2-1.5l13 2c.4 0 .7.5.6.9 0 .4-.4.7-.8.6z"/></g><g fill="#231e25" transform="scale(1.4)"><circle cx="253" cy="219.3" r="1.3"/><circle cx="267.4" cy="221.5" r="1.3"/><path d="m266.4 222-13-2a.7.7 0 1 1 .2-1.5l13 2.1c.4 0 .7.4.6.8 0 .5-.4.7-.8.7z"/></g><g fill="#231e25" transform="scale(1.4)"><circle cx="253.9" cy="224.7" r="1.3"/><circle cx="268.4" cy="226.9" r="1.3"/><path d="m267.3 227.4-13-2a.7.7 0 1 1 .2-1.5l13 2c.5.1.8.5.7 1 0 .3-.5.6-.9.5z"/></g><g fill="#231e25" transform="scale(1.4)"><circle cx="254.9" cy="230.1" r="1.3"/><circle cx="269.4" cy="232.2" r="1.3"/><path d="m268.3 232.8-13-2a.7.7 0 1 1 .2-1.5l13 2c.5.1.7.5.7.9-.1.4-.5.7-.9.6z"/></g><g fill="#231e25" transform="scale(1.4)"><circle cx="255.9" cy="235.4" r="1.3"/><circle cx="270.4" cy="237.6" r="1.3"/><path d="m269.3 238.2-13-2.1a.7.7 0 1 1 .2-1.5l13 2.1c.4 0 .7.5.6.9 0 .4-.4.6-.8.6z"/></g><g fill="#231e25" transform="scale(1.4)"><circle cx="265.1" cy="211.1" r="1.3"/><path d="m264.7 212.2-11 7.2c-.3.2-.8.1-1-.2a.7.7 0 0 1 .2-1l11-7.2c.3-.2.8-.2 1 .2.2.3.1.8-.2 1z"/></g><path fill="#231e25" stroke-width="1.4" d="m372 304.7-15.3 10.1a1 1 0 1 1-1.1-1.7l15.3-10.1a1 1 0 0 1 1.1 1.7zm1.6 7.7-15.4 10a1 1 0 1 1-1.1-1.7l15.4-10a1 1 0 0 1 1.1 1.7zm1.5 7.6-15.4 10.1a1 1 0 1 1-1.1-1.7l15.4-10.1a1 1 0 1 1 1.1 1.7z"/><g fill="#231e25" transform="scale(1.4)"><circle cx="257.2" cy="240.7" r="1.3"/><path d="m269 233.7-11 7.2c-.4.3-.8.2-1-.2a.7.7 0 0 1 .1-1l11-7.2c.4-.2.8-.1 1 .2.3.4.2.8-.2 1z"/></g><path fill="#231e25" stroke-width="1.4" d="M381 335.3c-.3 0-.5-.2-.5-.5l-4.5-1.7-3.8-1-4.2-.2-2.6 1.2-2.3.9-1 1-.9 1.1a8 8 0 0 0-1.2 2.5c-.9 2.3.3 3.1 1.8 4.5l.4.2a3 3 0 0 0 3.3-1.7l1.2-2c.5-.8.8-1.6 1.1-2.4h.1l-.3 3c0 2.2-.3 4.3-.5 6.5v.7c0 .2.2.3.3.3h1.6c.2 0 .3-.1.3-.3a950.2 950.2 0 0 0 .5-12.2c.1-.2.3-.2.4-.1.5.3 1 .7 1.2 1.2 1.6 3.2 3 6.4 4.3 9.7 0 .3.2.4.5.3l1.5-.5c.3 0 .4-.2.3-.5a43 43 0 0 0-2-4.7l-1.1-1.7c-.2-.2-.1-.3 0 0l.7.7c.7.7 2.1 1.4 3.1.8 1.9-1 3.5-3 2.3-5zm-14.8 1.5-2.6 4.8c-.4.7-1.2.5-1.8 0-1-1.2-1.2-2.2-.1-3.4 1-1 2-1.9 3-2.4a39.1 39.1 0 0 0 2.4-1.2l-1 2.2zm12.2 2.5c-.2.2-.4.2-.6 0l-4.8-4.6c-.3-.3-.3-.4.2-.3l4.5 1c.8 0 1.4.4 2.1.9l.2.3c0 1-.5 2-1.6 2.7z"/><path fill="#f4e7de" stroke-width="1.4" d="M276.8 316.5c-1.5 4.2-4.1 7.5-6.6 11.1a22 22 0 0 0-2.3 4.6l-3.4 10a239.8 239.8 0 0 1-12.4 30.8c-2.8 5.8-6.5 10.8-12.9 13-5.8 2-11.7 3.7-17.6 5.5-1.4.4-3.2 1.2-5.4 2.4l4.7-.8c2-.4 4.1-1.5 6.3-2l.2.1v.3c-.2.4-.6.6-1 .8a128 128 0 0 1-12 3.2l-3.6.4a.7.7 0 0 0-.2 1.3c4.2 1.1 7.6 1 12.1-.1s8.7-1 13-1.3c1.7-.1 3-.7 4.4-1.4l.2.1v.2a117 117 0 0 1-11.3 5.4 3.5 3.5 0 0 0-2.3 2.4v.4c0 .5.5 1 1 1 .9-.1 1.8-.2 2.7-.5a61 61 0 0 1 10.6-2.2c4.3-.6 8.3-2.4 12-5.4 3.5-2.9 2.6-6.3 4.3-9.9 5.5-11.3 11.9-22 19.2-32.2 4.6-6.4 8-11 10.5-16.4 1.4-3.2 2.5-7.2 3.3-12 0-.7.3-1.3.5-2l1.9-5-14.4-5.8-1.5 4z"/><path fill="#dbb5b6" stroke-width="1.4" d="m267.5 333.3-3 9a239.8 239.8 0 0 1-12.4 30.7c-2.8 5.8-6.5 10.8-12.9 13-5.8 2-11.7 3.7-17.6 5.5-1.4.4-3.2 1.2-5.4 2.4l4.7-.8c2-.4 4.1-1.5 6.3-2l.2.1v.3c-.2.4-.6.6-1 .8-4.4 1.4-8.3 2.4-12 3.2l-3.6.4a.7.7 0 0 0-.2 1.3 23 23 0 0 0 12.2-.1c4.4-1.1 8.6-1 13-1.3 1.6-.1 2.9-.7 4.3-1.4l.2.1v.2a117 117 0 0 1-11.3 5.4 3.5 3.5 0 0 0-2.3 2.4v.4c0 .5.5 1 1 1 1-.1 1.8-.2 2.7-.5a61 61 0 0 1 10.6-2.2c4.3-.6 8.3-2.4 12-5.4 3.5-2.9 2.6-6.3 4.3-9.9a233 233 0 0 1 9.2-17c-.7-11.7.7-24.1 1-35.6z"/><path fill="#dbb5b6" stroke-width="1.4" d="M214.4 395.5c.5-1.1 1-1.7 1.8-1.6l4.7-.8c2-.4 4.1-1.5 6.3-2a.2.2 0 0 1 .3.4c-.3.4-.7.6-1.1.8-4.4 1.4-8.3 2.4-12 3.2z"/><path fill="#403e4f" stroke-width="1.4" d="M314 240.6c0-1.6-5.5-4-9.5-3-3.8 1-8 3.5-9.6 6a211.1 211.1 0 0 1-16 33.2c-5.2 13.1-24 16.2-21.2 28.6 1.5 7 5.2 13.7 12.4 17.6-.8 1.6-6.2 1.8-7.7 3-1.2 2.8 3.2 7.2 5 8.4 4.8 3.6 10.4 3.8 16.2 2.4 5.6-.5-.3 4.4 9 4.1 2-1.1 1.3-9.6-1.4-11.4 11-.2 17.2-9 17.4-11.6 1.6-9.8-.6-15.2 0-21.8 2.7-29.5 11.8-33.8 5.5-55.5z"/><path fill="#343443" stroke-width="1.4" d="M306.2 308.7c-1.3-3.8-.4-9.3 0-11.8 1.3-7 1.3-26.6 4.9-28.9 2.3-3.2 3-7.3 3.7-10.2 0 0 .2 4.1-2.6 16.7-2.3 12.3-4.7 22.5-6 34.2zm-4.4-69.7c.1.2-4.4 1.9-8.6 11.8a83.7 83.7 0 0 1-9.3 21.2c-5.5 9.3-12.6 19.5-22.5 24.1-.2.9-1 .2-1.4.9-.7 0 3.2-4 4.6-5.1 12.7-9.2 18-22.7 24.6-37 3.1-6 4-13.3 12.6-16zm-33.5 85.8c.8-.6 1.5-1.2 1.8-1.8 5.2-1 .2-6.9.2-9.3.2-11.8 4.2 3.7 4.9 7 1 7.5 15 6.2 10.6 8.5-11 1.2-11.4-7.4-18.5-2.4-.3 0-.3-.3-.3-.6.3-.4 1-.2 1.3-1.4z"/><path fill="#fff" stroke-width="1.4" d="M361.7 261.4c0-1-1.2-1.9-1.7-3-.4-1.2 0-2.5.5-3.5.5-2-3-2.7-3-6.3.6-3.3-5-2.2-3.5-5.6 1.4-4.5-3-3.5-6.1-3.2-2.5.7-4.4-1.2-6-2.7-.7-1.6.7-4.6-1.2-5.5a12 12 0 0 1-4 1c-4.4.2-10.6-1.3-13.3-2.1-2-.7-4.3-3.4-5-.8 0 1.9-.6 3.5-2 4.2-.5.3-5.9 2.6-8.5 1.8-1.6-.5-3.4-2-4.5-.6-1.8 1-.4 4 1.6 4.3.3.2 1.4.8 1.1 1-1.1 1.3-.4 3.2.4 4.5 2 3.3 3 2.5 2.6 6.6.2 1.4 1.5 2 2.2 2.9.9 1.2 2 1.7 3.4 2 .6 2-.7 3.9 1.7 5 6 1.5 2.9 3 6.5 6.4 1-.2 2.8.8 3.8.3.9 2.3 1 2.3 3.4 2.7 3.3-.6 4.9 3.5 9.7.8 2.6 2 5.5 1.7 8.6 0 2.2.6 7 .8 7.1-2.9.3-.6 1.1-.8 1.7-.5 3.4.5 3-2.4 4.2-3.2-1-1.4.2-2.6.3-3.6z"/><path fill="#010105" stroke-width="1.4" d="M338 242.9c1.7 1.4-.3 3.5-1.9 2-1.7-1.4.3-3.5 2-2zm3.8 7.9c1.9 1.1.2 3.6-1.6 2.6-1.8-1.1-.2-3.6 1.6-2.6zm4.2 8.6c2.2 1.3.4 3.8-1.6 2.5-2-1.3-.3-3.8 1.7-2.5z"/><path fill="#e6cdd7" stroke-width="1.4" d="M325.7 237.7c-2.2.5-9.6-1.4-8-3.9a44 44 0 0 0 11.2 3.4c1.6-.2 3 .1 4.5.5 1.4-1 2.4-.4 4.2-.2 1 .2 1.6-.3 2.4-.5 2 0 .7 1-.2 1.3-.5.4-.3 1.3-1.1 1.4-.7 0-2 .5-2.7.1a1 1 0 0 0-1 0c-1.5.6-1.4-2.4-2.9-1.5-2.8 2.4-3.7-1-6.4-.6zm-13 2.4c0-.2.1-1 .3-.5 1.3.8.7 2.4 1.2 3.7.7 1.4 1.5 2.6 2 4.1.3 1 1.4 1.5 1.5 2.6l.6 2.6c-.2 1.3-1.5-2.8-2.4-2.7-.7-.3-2.4.3-2.5-.8.2-.7 2 .4 2.2-.3-.7-1.2-1.8-2.1-1.6-3.6-.3-1.3-.5-3.4-1.9-4-.6-.4-4.8.8-2.9-.7.4-.4 3.5.4 3.5-.4zm35.9 2.9c.6 1.8 1.8 3.4 2.6 5 .8.6 4.6 4.4 2.8 4.7-1.2-1.7-3.7-2-4-4.4-.4-2.4-1.9-4.4-3-6.3.2-1.2 1.6.4 1.6 1zm-27.2 13.8c-1.2-.8-.9-2.2-1.5-3.3-.3-.4.5-.6.7-.3.9.6.7 1.5 1.1 2.4.7 1.5 2.2 2.6 2.9 3.8-1.1.2-2.5-1.8-3.2-2.6zm35.8 1.7c-.6 1.5-1.4-3.6-2.4-4.2-.2-.3.2-.6.6-.6.8 0 1.2.6 2 0 .1 0 .2 0 .3.2 0 .6-1 .9-.5 1.6.5 1 .4 2 0 3zm.6 3.2c0 .5-1.5 1.3-1.9 1.6-.5.7-.7 1.5-1.8 1.1-1.4-.8 2.8-2.3 2.8-3.9.7-1 1.5.6 1 1.2zm-30 3.6c.7-1.8.1-3.1-1.6-4-1-.9 1-1.3 1.5-.4 1 1.6 2.6 2.6 4.3 3.5 1 1.3 5.4-.3 5 1.3-.9.4-1.7 1-2 2-1 1.2-1-1.1-1.7-1.4l-2.6-1.3c-1.2-.6-2 0-2.5 1-.2.4-.4.4-.7.2-.3-.3.2-.6.3-1zm23.3.9c-.7.3-2.8.5-1.5 1.6.7.3.7.7 0 1-2.4 1.3-6-4.3-7.5-1 .1.6.7 1.8-.5 1.6-.6 0-1.4 0-1.5-.8l-.6-1.8c-.2-.5.4-1 1-.8 1 .3 1.9-.1 3 .2 1.7.8 3.4-.3 5-.6 1 .2 2.4-.4 3.1.1.1.5-.2.4-.5.5z"/><path fill="#f6f2ee" stroke-width="1.4" d="M332.3 174.2c0 .3 1.1 13.3-7 21.8-2.7 1.4-9.5-.3-12.3-1.9-4.4-5.8-4.2-12-3.8-21 2.2-3.4 9-4.7 13.8-3.3s9.3 4.4 9.3 4.4z"/><g transform="scale(1.4)"><path fill="teal" d="M234.8 123.7s-1.1-.7-3.7-1c-2.6-.4-5.1 0-5.1 0s-1.6 1.7-2.3 4.4c-.6 2.2-2.2 8.5 1.7 12.2l5.7 1c3.7-2.5 4.2-8.4 4.3-9.8.4-3-.6-6.7-.6-6.8z"/><ellipse cx="228.5" cy="132.1" fill="#004e58" rx="2.7" ry=".7" transform="rotate(-82.3 228.5 132)"/></g><path fill="#f6f2ee" stroke-width="1.4" d="M370.8 208.8c-.3 0-9-1-10.9-4.7-.6-5 1.3-15 4.7-18.5 3.2-3.5 12.2 0 14.6 1.8 2.3 1.8 4.2 9 4.2 9s-5.1 11.7-12.6 12.4z"/><g transform="scale(1.4)"><path fill="teal" d="M268.6 134c-.1-.4-.3-1-3-1.7-2.8-.7-5.4.6-5.5.6 0 0-1 1.3-1.7 3.4a27 27 0 0 0-1.5 6.4c0 1 0 3 .7 3.8.8 1 2.3 1.5 2.7 1.6 1.7.5 3.1.5 3.1.5 1.7-.8 4.3-4.8 5-7.4.8-3 .7-5.7.2-7.2z"/><ellipse cx="260.7" cy="140.9" fill="#004e58" rx="2.4" ry=".6" transform="rotate(-74.2 260.7 141)"/></g><g fill="#87cefa" transform="scale(1.4)"><ellipse cx="224.2" cy="131.5" rx="1.8" ry="1.2"/><ellipse cx="258.5" cy="140.1" rx="1.8" ry="1.2"/></g><g fill="#fff" transform="scale(1.4)"><ellipse cx="229.3" cy="127.4" rx="2.5" ry="1.1" transform="rotate(-81.7 229.3 127.4)"/><ellipse cx="262.2" cy="135.9" rx="2.2" ry=".9" transform="rotate(-74.7 262.2 136)"/></g><path fill="#f4e7de" stroke-width="1.4" d="M334 178.2c-.2-.1.2-9.2-8.4-11.6-7.6-2.1-15.4 2-17 4.3 7.2 1 25.3 7.3 25.3 7.3z" class="skincolor"/><g fill="#4c3739" stroke-width="1.4"><path d="m308.4 171.1-.2.5c-.5 5 1 12 1 12-.2-2.5 1-6.3 1.8-8.6.5-1.3 1.4-2.2 2.6-2.4l2.2-.4-5.8-2.2-1.6 1.1z"/><path d="M311.5 172.9c.4 0 23 8.2 23 7.2 0-1-.7-4.4-1.1-4.7-.4-.2-18.5-6.2-20.9-6.2s-4 2-4 2l3 1.7z"/></g><path fill="#dabaad" stroke-width="1.4" d="M333.7 171.3c-2-1.4-4-2.4-6.3-3.1-.1 0-.2-.1-.1-.2v-.2s0-.1.1 0c2.5.4 4.7 1.5 6.6 3 .1.1.1.3 0 .4h-.1c0 .1-.1.1-.2 0z"/><path fill="#f4e7de" stroke-width="1.4" d="M363.3 186.6s3-4.8 11.6-3.2a15 15 0 0 1 11.6 11c-3-2.4-23.2-7.8-23.2-7.8z" class="skincolor"/><g fill="#4c3739" stroke-width="1.4"><path d="M381 192.9c.5 1.2.7 2.7.5 4.4-.2 2.2-1 4.2-2.5 6v.1h.3l7.5-8s-.1-.9-.6-2.2l-5.2-.3z"/><path d="M362.4 187.7s20.2 7.6 24 7c.2-1.6-1.5-4-1.5-4s-18.6-6-19.2-5.7c-2.1 1-3.3 2.7-3.3 2.7z"/></g><path fill="#dabaad" stroke-width="1.4" d="M373.4 180.8c-2.3-.3-4.7-.3-7 .1l-.3-.1v-.3c2.5-.7 5-.8 7.3-.3.2 0 .3.2.2.3v.2h-.2z"/><path fill="#444" stroke-width="1.4" d="M412.7 173.8c-.6-18-6.2-37.2-17.4-51.6A63.3 63.3 0 0 0 349 99c-8.8.6-16.3-2.2-26.2.4a60.7 60.7 0 0 0-39 26.6c-13.7 21.5-22.2 50.8-7.7 74.6 1.2-3.6-2-18.2 11-37.3.8 3.8 4.6 5.8 6.1 8.4 2.5 8.4 10 11.2 10.3 11.5 2 6.2 2 5.3 4 8.3 3 4.8 5.9 6.3 8.2 6.8a27 27 0 0 1-4.8-9.5 35.1 35.1 0 0 1-.9-19.7c8-11.6 17.3-22.6 25.9-33.6 3-3.7.8 2 .8 3.6-1.3 7.6-.3 15.5.9 22.8.5 2.8 1.6 5.2 2.9 7.3.4.6 1.4.8 2.5 1v-3.6c1 1 1.6 2.6 2.2 4 5 1.2 10.2 3 15.4 3.2 2.2-4.4 3.6-9 4.9-13.7.3-.4.5-.4.5.2 0 4.8-.6 9.3-1.8 13.6 0 .3.4.5.5.4.3 0 1.1 0 1.3.2 3.2 2.5 8.1 2.8 11 5.4.2.4.7-.3.9-.4a61 61 0 0 1 8.1 4c2.1 3.6-.8 9.5-1.8 13.5-2.6 5.3-5.5 16.2-11 18.6-.3 0 0 .5.1.4 1-.2 5.8-4 6.7-4 .7 0-4 6.2-5.3 6.7-.5.4-2.4 2.5-1.5 2a31 31 0 0 0 18.8-13.6c1.1 5.3-3 13.4-5.5 18.4-.6.8-.4 1 .6.7 9.9-4.7 16.2-16.3 17.7-26.3.2-.2 1.2-10 1.7-9.7 1 2.2 1.2 12 1 14.6a25.1 25.1 0 0 1-5.7 14.9c1.8-.7 15.4-8.3 10.9-45.9z"/><path fill="#fffeff" stroke-width="1.4" d="M290.8 130.2c-.1-1 1.9-3.6 3-2.3.6 1.8-2.6 5.8-3 2.3zm29.2-29.7c2.8.3-5 2.3-11.5 5.3-7.4 3.5-12.2 7.2-14.2 8.6-.3-.2 2.8-3.2 7.7-6.3a59.1 59.1 0 0 1 18-7.6zm-17 36.1c-1-1.3.4-4.2 2-4.7 1.3 0-.4 6.4-2 4.7zm55.2 3.9c-.2 3.3-2.7 3.2-2.5-.2.2-3.3 2.8-3.1 2.5.2zM379 142c1.1 4.9-2.6 5.7-3.6.7s2.7-5.7 3.7-.7zm-18 2c-.8.1-.6-1.3-.7-1.8-.4-3.9 2.2-4.2 2.5-.3.4 1.9 0 2-1.7 2.1z" opacity=".4"/><path fill="#2b121c" stroke-width="1.4" d="M338.8 169.6c-3.6-7.4-3.2-16.3-3.1-24.7.3-3.3 1.1-7.2 1.8-10.3 0-.5-.1-.6-.5-.3-9.2 11.1-18 23.4-26.5 35.4-2 6.5.5 22 3.9 26.7-5.3-5.3-5.2-16-5.4-22.1a95.6 95.6 0 0 1 7-44.4 42.7 42.7 0 0 1 10.3-15c6.4-5.2 12.6-7.2 20.3-5.6.3 0 .4.4.2.5-21.7-1.4-33 22.1-35.2 40.5.3 1.8 2-4 2.5-4.6 2.8-6 5-10.2 8-14.9.1-.3.8-.4.6.1a93.2 93.2 0 0 0-12 27.5c5-7 10.9-13.5 17.7-19 .1-.2.4 0 .3.1-6.6 8.5-18.5 15.6-18.6 27.4-.1 1.5.2 1.7 1.1.4a400 400 0 0 1 29.4-38.3 64.9 64.9 0 0 0-3.5 27.5c.2 4.5.5 8.1 2.8 12.8 0 .2-1 .2-1 .3zm52.6 39.2c-4.8 6-7.3 8.6-14.2 10.7 1.8-1 4-1.9 4.3-2.3 14.6-9.3 17.5-29.9 17.1-45.4a68.4 68.4 0 0 0-16.3-45.7 40.1 40.1 0 0 0-21-14.7c-1.5-.5-3-.4-4.4-.7v-.2c12.7-1.2 23 7.7 29.2 17.8a77.4 77.4 0 0 1 13.2 47.6c-.2 9-.5 10.8-2.1 18-1 4.8-2.7 10.9-5.8 15zm-87-86.3c-3.8 4.7-7.3 11-9.4 16.6-2.7 6.6-3 13.4-5.3 20.1l-3 4.8c1.4 3 5.2 7.3 6.6 7.7a59.4 59.4 0 0 1 3.2-32.9c1.8-5.2 5.2-10.7 8.2-16 .3-.6.2-.7-.3-.3z"/><path fill="#444" stroke-width="1.4" d="M280.7 157s-6.6 24.6 3 40.3c0 0-3.8-6.6.3-28.1 1-5 2.5-10.5 4.8-16.4"/><path fill="#2b121c" stroke-width="1.4" d="M379.7 207.4a85.3 85.3 0 0 0 3-65.9c.4-.5 1 1.7 1.3 2 7 20 7.4 44-2.8 63-.4.7-1.7 3.2-1.5 1zm-15-33.1c-.1.1-.5 0-.5-.4 1.2-4.3 1.8-8.8 1.8-13.6 0-.6-.2-.6-.5-.2a74.3 74.3 0 0 1-5 13.7c-.2-.5-.2-1 .1-1.7 1-2 1.6-4 2.3-5.9 2.4-5.5 3.2-11.7 4.4-17.4-.7 8.5.6 16-2.6 25.5z"/><path fill="#2b121c" stroke-width="1.4" d="M377.9 179.5c-.3.3-.9 1-1 .1a41.3 41.3 0 0 0 5-22.2c1.3 6.6 0 15.9-4 22zM343.8 168c-1.2-1.7-.7 1.4-.5 2 .1.6-.5.1-.5-.2-.2-3.7-1.7-7.4-1.5-11 0-.7.7.3.7.6.3 4 2 8 3.7 11.4-1 .5-1.4-2.2-2-2.8zm-67.6 32.7a53 53 0 0 1-7.7-19.2c-1.1-7.7 0-22.7 3.8-30.4-2.4 9-4 23.6-3 30.6a78 78 0 0 0 6.9 19zm31-8.5c2.6 3.4 4.4 4.8 7.9 6.2a22 22 0 0 1-8.5-8.5 63 63 0 0 1-5-17.9 40.8 40.8 0 0 0 3.7 16.7 23 23 0 0 0 2 3.5z"/><path fill="#2b121c" stroke-width="1.4" d="M302.7 180.8s-4.4-5.2-3-15.1c0 0-.2 9.7 2.6 12l.4 3.1zm98.3 39.3c7.6-9.1 6.3-17.4 5.5-28.3-.2 0-.7 4-1 5.4-1.6 20.8-18.4 30.8-18.8 29.2a22 22 0 0 0 7.5-5.5 43 43 0 0 0 10.8-26.1c.5-4.2.7-11 1.7-12.8 5 26.8-2.5 37-5.6 38.1zm-28.6.6 6.6-7.9c.1-.2-2.4 1.8-2.6 1.7-.5.2-3.6 2.4-3.3 1.1 4.3-1.9 8.4-5.3 11-8.6-.4 2.5-2.2 5-4 7.8-1.5 2.5-4.4 4.1-6.4 5.4-.2.4-1.4 1-1.3.5zm-88.6-50s1.8-15.9 5.4-19.7c0 0-4.1 10.7-5 20.9l-.4-1.2z"/><path fill="#f4e7de" stroke-width="1.4" d="M302 183.2s-1.7-4.8-4-7.8a8.7 8.7 0 0 0-3.8-3.3l-1.8-.3c-1.4 0-2.7.6-3.9 1.6-3.7 3.4-5.3 8-4.8 13.6.4 4 5.6 8.9 10 12.6a9.6 9.6 0 0 0 8.3 2.3h.5l-.5-18.7z"/><path fill="#9a7978" stroke-width="1.4" d="M301.7 201.6a9 9 0 0 1-7.8-2.3c-4.4-3.7-9.5-8.4-10-12.3-.4-5.5 1.2-10 4.9-13.3 1-1 2.3-1.6 3.6-1.6l1.7.3c1.2.5 2.5 1.5 3.7 3.2a35 35 0 0 1 3.8 7.5s.3.6.6.5c.2 0 0-.5 0-.5 0-.1-1.7-4.9-3.9-7.9a9 9 0 0 0-4-3.4 5.6 5.6 0 0 0-6 1.4 16 16 0 0 0-5 13.8c.5 4.2 5.7 9 10.2 12.9a10 10 0 0 0 8.4 2.3c.1 0 1.1-.1 1.1-.3 0 0-.1-.4-1.3-.3z"/><path fill="#dbb5b6" stroke-width="1.4" d="M292 191.4c-.6-3.9 3.7-5.6 4-9 0-.1 0-.2-.2-.3a10 10 0 0 0-7.8 3.2 1 1 0 0 0-.3.4l-.8 3.4c0 .2-.3.3-.5.3a.4.4 0 0 1-.3-.3c-1.1-5.6-.9-11.2 4.8-14.1 3.1-1.6 6.1 5.6 6.5 7.5.3 1.6.6 2.9 1.1 3.7.1.2 0 .4-.1.5l-1.1.6c-.2 0-.3.2-.3.4-.3 1-.3 1.7 0 2.2a34 34 0 0 1 2.3 4.8.9.9 0 0 1-1 1.1c-2-.5-5.8-2-6.2-4.4z"/><path fill="#dbb5b6" stroke-width="1.4" d="M298 191.8h-4.2a.6.6 0 0 0-.3 1.2l4.8 2.6a.4.4 0 0 0 .6-.4l-.2-1.7c.4.6.5 1.1.4 1.6-.1.6-.5.9-1.2.6-2-.7-5.5-2.1-5.8-4.4-.3-2 1.4-4.7 2.7-6.1.7-.7.9-1.5 1.3-2.4a.5.5 0 0 0-.5-.7c-3.3-.1-6 1-8 3.5a1 1 0 0 0-.2.7 5 5 0 0 1-.7 2.7c0 .1-.2.2-.3.1l-.1-.1c-.8-3-1-5.5-.4-7.5a9 9 0 0 1 5-6.5c3-1.4 6 5.3 6.3 7.2.3 1.7.7 3.1 1.2 4 .1.3 0 .5-.1.6l-1 .4c-.3.1-.4.3-.5.6-.3 1.1.1 2.4 1.2 4z"/><g transform="scale(1.4)"><path fill="#fddad4" d="M246.7 155.6s-1 1.2-3.5.5c-2.5-.6-2.8-2.1-2.8-2.1l6.3 1.6z" class="lip"/><ellipse cx="244.5" cy="156.1" fill="#fff" opacity=".5" rx=".1" ry=".2" transform="rotate(-75 244.5 156)"/></g><path fill="#f2abaa" stroke-width="1.4" d="M336.7 215.4c-.2 1 1.2 1.4 2 1.6 1.6.5 5.2 1.8 6.4.8.4-.5.1-2.4.1-2.4-.6-1-3.6-1.6-5.8-1.4-1.5.2-2.6 1-2.7 1.4z"/><path fill="#d47e81" stroke-width="1.4" d="M339.6 214c.2.1 5.1 1 4.8 3-.2.9-.6 1-1.1 1 2.1.7 2.4-1.3 1.8-2.7l-.1-.2c-1.9-1-3.5-1-5.4-1z"/><path fill="#444" stroke-width="1.4" d="M327.1 119.3c-2.4-2.6-17 .6-19.9 4.8a30 30 0 0 1 13-11.4c-.9-1.4-5.8-.8-12.3 1.4-11 5-21.7 19-28.9 36.7-9.1 24-6.5 40.4-6 41.5 1.5.7 3.2 1.6 3.6 1.5a114 114 0 0 0 13.2 7.2c.5.6 1.9 1.4 2.8.8 1.4.9 3.2 1.5 5.5 2 2.6 3 11.5 4.6 14.9 6.3.2 0 .4 0 .3-.2-8.5-21-7.2-43.7-3.2-62 1.8-3.4 3.3-9 6-14.6a45 45 0 0 1 11-14z"/><path fill="#2b121c" stroke-width="1.4" d="m283.7 198-2.2-1.7c-3.5-20.6 1.5-37.9 8.5-54.6a40 40 0 0 1 7.4-11.4c-1.8 3.2-4.6 6.8-6.5 11.5-6.8 17.7-12.5 37.6-7.2 56.2zm31.9-63.2c-2 4.8-5 13.1-6.8 18 .3-3.1 3.4-13.3 6.8-18zm-7 21.9c-1.6 17.6-2.1 36.2 4.6 52.7-6.7-10.7-7.2-26.3-6.5-40.3a63 63 0 0 1 1.9-12.4zm-5.9 49.7a8 8 0 0 1-4.6-2.6 69 69 0 0 1 0-30.8c-.5 10.8-1.5 23.2 4.6 33.4zm-10.1-4.6c-1 .1-1.9-.2-2.5-1-2.2-2.5-1.6-13.6-1.3-16.8.6 3.8 1 14.8 3.8 17.8z"/><path fill="#444" stroke-width="1.4" d="M410.6 160.9c-2.2-12.7-10.2-29.5-12-28.8 1.7 4.7 1.4 11.6 1.2 16.6-.9-5.2-9-11.8-10.6-11.5 3.3 6.7 4.6 21.6 3.7 35.7-1.4 10.7-2.3 19.3-8.2 29.8-4.7 6.7-9 13.8-16.5 17.8-.7 1 2 1.2 2.7 1.2 8 2.4 17.2 1.8 25.1-.5 4.6-2.3 6.5-7.7 7.7-10.5-.5 3.6-2 7-4.6 9.4-.6 1.2 5.7-1.1 6.7-1.5 9.4-14.2 7.4-38.9 4.8-57.7z"/><path fill="#2b121c" stroke-width="1.4" d="M393 170.6a60.3 60.3 0 0 1-22.8 50.2c-.5.5.1.9.7 1-.7 0-3.3-.5-2.7-1.3 7.6-5 12.2-12.4 16-18.5 7.3-14.2 6.8-18 8.9-31.4zM377.3 223c-1.1-.3-2.7-.3-3.8-.5 5.5-2 10.5-11.4 12.9-13.7-2 5.3-5.1 10.1-9.1 14.2zm14.2-.8a28 28 0 0 1-8.3 1c7.3-1.3 10.8-7.2 14.4-13a34 34 0 0 1-6.1 12zm-48.1-61.9c-.4-.6-13.6-8.8-15.1-9.4 8.3.1 12.2 3.6 12.9 4.5.7 1 2.2 5 2.2 5zm23.4 6.5c.5-.4 13.8-2 15-1.8-5.7-3.4-10.1-2-11-1.5-1 .5-4 3.3-4 3.3z"/><path fill="#403e4f" stroke-width="1.4" d="M381.7 247.7c-.2-.2-1-2.7-1.4-3.3.7-.1.7-2.3 0-2.3.6-1.9 0-5 0-7.5 1-.1.4-1.7.3-2.4 0 0 0-5.5-.2-6.1.3-.6 1-2.2 0-2.1a27 27 0 0 0 0-7.7s.9-2-.1-1.9c.4-1.7.2-4 0-5.9 0-.8.3-2.7-1.2-2.3-.2 1.3-.2 2.8-.1 4.2l.1 3.8c-.1 1-1.2 1.7-.1 2.1v7.5c-.2.5-.8 1.6 0 2.2-.5.4.2 5.2 0 6.4v2.3a42 42 0 0 0 .2 7.3c.2.3-.3 2.1-.2 2.4l-1 2.8a4 4 0 0 0-.3 1 47.7 47.7 0 0 0 1.8 10.7c.7 0 2.6-9.6 2.2-11.2z"/><path fill="#343443" stroke-width="1.4" d="M379 256.7c1 3.5 1.2-1.3 1.5-2.5.3-2 1.2-4 1-6 0-.6-.3-1.2-.5-1.7.5.6.6 1 .7 1.4.2 1.3-.2 3.1-.4 4.5-.3 1.3-1.3 6.7-1.7 6.5-.3-.1-.5-1.2-.6-2.2z"/><path fill="#eeeae7" stroke-width="1.4" d="M379.6 216.7c.3 2.7-.1 10.3-.3 2.7 0-.7-.3-3 .3-2.7zm-.2 9.7c.3-.2.4 5.7.1 5.6a15 15 0 0 1 0-5.6zm.2 14.7c-.2.2-.5-5.6-.1-5.8.3-.1.2 5.7 0 5.8zm-.8 6.3c-.1.4-.5 1.6-.7 1 .1-.8.5-2.3.8-2.8.3-.5.6-.2.5.2l-.6 1.6zm.8-40.4c.3 2.8 0 10.4-.3 2.8 0-.6-.2-3 .3-2.7z"/><path fill="#fff" stroke-width="1.4" d="M369.8 193c6 1.4 9.6 7.4 8 13.3-1.5 6-7.5 9.7-13.5 8.3-6-1.4-9.5-7.3-8-13.3 1.5-6 7.6-9.7 13.5-8.3z" opacity=".2"/><path fill="#403e4f" stroke-width="1.4" d="M380.4 203.3c-.3-.4-.8-.7-1.5-.9h-.3c-.4-4.9-3.9-8.9-8.7-10a11.9 11.9 0 0 0-13.7 7.3l-.5 1.5a11.4 11.4 0 0 0 11.2 14c5 0 9.7-3.2 11.3-8.3.9.1 1.6-.2 1.8-.8l.5-2-.1-.8zm-15.8 10.3a9.8 9.8 0 0 1-7.4-12.2 10.5 10.5 0 0 1 12.4-7.6 9.8 9.8 0 0 1 7.3 12.2 10.5 10.5 0 0 1-12.3 7.6z"/><path fill="#fff" stroke-width="1.4" d="M379.5 205.2c.2-.3.4-1 .3-1.4 0-.3-.2-.5-.5-.5.4.4.1 1.3.2 1.9z"/><path fill="none" stroke="#fff" stroke-linecap="round" stroke-linejoin="round" stroke-miterlimit="10" stroke-width=".3" d="M375.6 196.8s-1.2-2.1-4.5-3.3"/><path fill="#343443" stroke-width="1.4" d="M380.3 244.4a5 5 0 0 1-1.4 0c-.3-.4-.7-1-.7-1.3 0-.5.5-1 1-1.2.2.2.8.1 1.2 0 .4 0 1 .7.9 1.2 0 .8-.7 1.3-1 1.3z"/><path fill="#eeeae7" stroke-width="1.4" d="M379.2 242.4c-.4.2-.6 1 0 1.2.2 0 .3-1 0-1.2z"/><path fill="#343443" stroke-width="1.4" d="M380.3 234.7a5 5 0 0 1-1.4 0c-.3-.4-.7-1-.7-1.3 0-.5.5-1 1-1.2h1.2c.4 0 1 .7.9 1.2 0 .7-.7 1.3-1 1.3z"/><path fill="#eeeae7" stroke-width="1.4" d="M379.2 232.7c-.4.2-.6 1 0 1.2.2 0 .3-1 0-1.2z"/><path fill="#343443" stroke-width="1.4" d="M380.3 226.2a5 5 0 0 1-1.4 0c-.3-.4-.7-1-.7-1.3 0-.6.5-1 1-1.3.2.2.8.2 1.2 0 .4 0 1 .8.9 1.3 0 .7-.7 1.2-1 1.3z"/><path fill="#eeeae7" stroke-width="1.4" d="M379.2 224.2c-.4.1-.6 1 0 1.2.2-.1.3-1.1 0-1.2z"/><path fill="#343443" stroke-width="1.4" d="M380.3 216.4a5 5 0 0 1-1.4 0c-.3-.4-.7-1-.7-1.3 0-.5.5-1 1-1.2.2.2.8.2 1.2 0 .4 0 1 .7.9 1.2 0 .8-.7 1.3-1 1.3z"/><path fill="#eeeae7" stroke-width="1.4" d="M379.2 214.4c-.4.2-.6 1 0 1.2.2 0 .3-1 0-1.2z"/><path fill="#403e4f" stroke-width="1.4" d="M408.4 129s7.1-9.4 7.3-10c2.7-10.2-11.2-20.9-19.2-25.5-12.8-6.2-11.6-1.2-19 6.4-5.6-2.9-16.6-9-20.8-2.5-4.1 15 19.7 36.9 33.1 46.8 6 4.5 19.4 9.2 23.8 4.7 5.4-5.5-5.2-20-5.2-20z"/><g fill="#343443" stroke-width="1.4"><path d="M416.1 117c0 1.4-.5 2-.5 2 0-3-1.5-6.1-3.1-8.7a36.4 36.4 0 0 0-10.8-11.8c-7.7-5.1-12-6.5-15.8-6.3-1.2 8 20.3 31.1 29.3 27.4-2.7 3.9-5 7.5-7.3 9.8-9.5 9.3-15.7 6.5-16 6.2-3.8-4-9.9-6.4-13.2-11.3-3.6-4.1-8-11.5-8.6-17.3-.5-3.9-.2-5-1.9-6-2.9-2.2-11.5-1.6-11.3 1.6-3.5-10.5 10.9-9.2 17.8-4 1.2.8 2 1.6 2.8 1.4 2-1.3 5.2-7.8 9-9.1a33 33 0 0 1 19.4 9.2c5.4 4.8 10.3 10.5 10.2 16.9z"/><path d="M413.4 138.3c0 .2-.7 1.2-.7 1.2 5.3 11.7-4.5 12.2-13 8.8a88 88 0 0 1-24-17.3 88.9 88.9 0 0 1-14.4-17.8 27.2 27.2 0 0 1-4-16c-6.8 16 28.6 49.8 47.1 53.2 4.8 1.3 8.3.2 9.8-2.4 1.3-2.3 1.1-6.3-.8-9.7z"/></g><path fill="#251416" stroke-width="1.4" d="M417 127.3c-1.4-.7-7.9 2.4-8.8 2-.3 0-.3-.7-1.5-1-1-.2-.9.2-1.8 0-2.3-1.5-3.3-6.7-6-8-2.1-.5-3 4-3.6 4.3A35.5 35.5 0 0 1 381 113a17.6 17.6 0 0 1-3.7-12.9c-3.7.2-5 3.2-4.9 6.2a27 27 0 0 0 5.8 13c4 6 11.4 10.2 14.9 12.3-1 2.7-.7 3.8.3 4.4 2 1 6.5-.5 9.5-1.8.5.6 1 1.2 3.2 1.1 2.4 2.1 4.8 6.4 6 5.8.5-.2 1.4-2.2 1.4-2.4 1.3-3.4 5.4-8.4 3.6-11.5z"/><path fill="#352427" stroke-width="1.4" d="M417 128c-2.8-.6-6.4 2.6-8.7 2 .3-.3-1.2-1-1.9-1.1-.4 0-.7.2-1.2 0-2.4-1.7-4.3-7-6.1-7.9-1-.5-2-.1-3.1 3.2-1.6 1.2-4.8-1.5-6-2 .4 1.3 6.5 2.9 5.1 4.1-.6 1.4-1.3 2.8-1.6 4.1 0 .4-1 5.4.9 5.8.9.1 2.6 0 5.6-.9-1.8-.2 1.7-1 2.3-1.3.7-.2.5-1.6.6-2 0-1-1.4-.9-2-1.4-1.6-1 1-3 1.9-.6.4 1.2 1.6 2.1 1 3.5-.2 1 1.6.8 2 .3 2 .3 2-2 3.1-2.7.6 0 .4.9 1 .9 3.1-.2.4 1.9-.9 2.3-.7.2-1.5 0-2.2.4-1.4.6 3.7 3.5 2.1 3.7.8.7 3.6 4.7 4 .8-.6-4 3.7-7.3 4.1-11.3z"/><path fill="#f0f0f0" stroke-width="1.4" d="M445 209.7a.3.3 0 0 0-.3-.4h-1.6a37.4 37.4 0 0 0-11.7 4.7c2.6-2 5.6-3.5 8.5-5l6.3-3.9a12 12 0 0 0 3.9-4.3.3.3 0 0 1 .5 0l.8 2.6a.3.3 0 0 0 .5.2c2.4-1.4.5-5.3-.8-6.9l-3-3.7c-2-2.3-2.7-4.8-1.8-7.6 2.2-6.5 12.1-7.2 17.5-6.3a31 31 0 0 1 18.6 10.2c2.4 2.7 4.2 6.2 2.5 9.6 0 .2 0 .4.2.5 2 1.3 3.7 3 5.2 5 2 2.8 2.8 7 1.8 10.2-2 6.4-10.4 7.9-16.3 7-.2-.1-.6 0-.7.2-4.8 5.8-13.7 5.7-20.2 3.5-.5-.2-1-.1-1.4.2a21.1 21.1 0 0 1-7.5 3.8 65.8 65.8 0 0 1-12.4 2.6c-.7 0-1.1.8-1.6 1.2-1 .9-1.1 2-.5 3.2l.4.2c1.6.2 3.2 0 4.9-.4a34.2 34.2 0 0 1 9.2-.7c-1.3.2-2.7.2-4 .5-2.5.4-5 1-7.6 1.2a18 18 0 0 0-4 1c-.5.1-1.2 0-1.7-.2l-5.7-2.1c-1.8-.7-3-2-3.6-4-1.2-4-.5-7.4 2-10.3 2-2.3 5.6-4 8.6-5.5a48 48 0 0 1 4.6-2 1539.2 1539.2 0 0 0 10.3-4.2v-.1z" opacity=".5"/><path fill="#f4e7de" stroke-width="1.4" d="m403 257-2.8-4.4c-.7-1.1-1.5-1.4-2.8-.9l-2.2 1.2c-.6.6-1.3 1-1.9 1.3a12 12 0 0 1-3.8 1c-.5.1-.8.5-.7 1 0 .4.2.7.6.9 1.3.7 3.4.8 4.6.4l4-1.4c.3 0 .6 0 .8.4l2.9 5.2 3.4-1.8-.8-1.1c-.5-.6-1-1.2-1.3-1.8z" class="skincolor"/><path fill="#393b3f" stroke-width="1.4" d="m437.3 245.9 1.7 3.8-64.4 27.6s-1.5.5-2.3-1 .9-2.5.9-2.5l64-28z"/><path fill="#e0c9c0" stroke-width="1.4" d="m394.7 276 .1 1.2 6.4.4-.1-1.2zm9.3-11.3c.9.5 1.6 1.3 2.1 2.3.1.2 0 .3-.2.4-1.7.5-3.2.2-4.4-1a8 8 0 0 1 2.5-1.7z" class="skincolor2"/><path fill="#f4e7de" stroke-width="1.4" d="M403.9 264.7a5 5 0 0 1 2 2.2c.1.1 0 .3-.1.3-1.8.5-3.3.2-4.4-1l-6.4-3.5c-1-.5-1.9-.5-2.6 0l-4.6 2.9a10.5 10.5 0 0 1-5.6 2.7c-.3.3-.3.8 0 1.3.1 0 2.3 1.6 4 .8l7.7-3.4c.5-.2 1.1 0 1.8.6 1.8 1.7 3.5 3.4 5.7 4 1.3.4 1.3.6 0 .6h-4.9l-3.2-.4c-3.5-.3-5.4 1.2-8.3 2.6-.5.3-1 .6-1.3 1l-.2.3v1c0 .4.2.6.5.6 1 0 1.7 0 2.5-.5a6 6 0 0 1 2.8-.8 54.2 54.2 0 0 1 11.5 1.3v.1l-4.5-.5c-.7-.2-1.4-.1-2.3 0-1.1.2-1.7 1.2-2 2.2l-.7 2.8c-.2 1.1-.9 2-1.2 3.2l.1.3c.8.5 1.5.3 2.1-.4a7 7 0 0 0 1.5-2.8l.8-1.4a25.5 25.5 0 0 1 5.6 2.9c-.1.6-.3.7-.7.1-.2-.3-.5-.8-1-.8-.1 0-.2 0-.2.3a18 18 0 0 0 2.8 10.4l-.1.1h-.2c-.2 0-.3 0-.4-.3L399 291l-.4 1.4c-.5 1.9-2.5 7.4-2.4 7.6a13 13 0 0 0 9.5 4.5c.2 0 .2-.1.3-.2.7-3 1.7-5.7 2.8-8.4.4-.9.3-1.8-.3-2.6l-.2-.4a26 26 0 0 1 0-4l.7-10.4c.1-1.2.4-2.4.7-3.6l.1-1.6a4 4 0 0 0-.4-1.9c-.8-1.4-1.6-2.8-2-4.5a15.7 15.7 0 0 0-.9-3.2l-2.7 1.1z" class="skincolor"/><path fill="#e0c9c0" stroke-width="1.4" d="M396.5 272.1s2.8.2 2-1.5l-2.7-2.7c-1-.9-2-1-2-1 .6-.1 1.2 0 1.9.7 1.8 1.7 3.5 3.4 5.7 4 1.3.4 1.3.6 0 .6h-4.9zm4.6 21.5a18 18 0 0 1-2.8-10.3c0-.2 0-.3.3-.3.4 0 .7.5 1 .8.3.6.5.5.6-.1l-.5-.5c-1.7-1-3.4-1.8-5.1-2.4l-.2.3 3.2 1.4c.2 0 .3.2.3.4l.1 2.8a51.4 51.4 0 0 0 1 5.2l1.4 2.6c0 .2.2.3.4.3h.2l.1-.2z" class="skincolor2"/><path fill="#ddca9b" stroke-width="1.4" d="m418.8 253.9 1.5 3.8c.1 0 .7.3 1 .2 1.6-.4 5.8-2.6 5.8-2.6l.2-.6-1.6-3.9s-.6-.2-.7 0l-5.7 2.3-.5.8z"/><path fill="#9c7953" stroke-width="1.4" d="m419.7 256.2.6 1.5c.1 0 .7.3 1 .2 1.6-.4 5.8-2.6 5.8-2.6l.2-.6-.6-1.4-7 2.9z"/><path fill="#ddca9b" stroke-width="1.4" d="m446.6 237-7.7 3.2 3 2.9-1.4 1.1.2 5.6 5.1-2.2.3-.3c.8-1 1.2-2 1.3-3 .1-3.7-.8-7.4-.8-7.4z"/><path fill="#9c7953" stroke-width="1.4" d="M446.7 236.8c0-.3-.3-.4-.5-.4-2.2.6-8.3 3-8.5 3.9-.2.7 1.9 2.6 3 3.4 0 0-4.8 2-5.2 2.4-.4.3-.3.7-.3.7s1.3 3.4 1.8 3.7c.1 0 .4.3.7.3 1-.1 3.4-1.1 3.4-1.1s-.6-4.6.3-4.7c.8-.2 3.8-1.5 3.8-1.5l.2-.4c-.2-1-.3-2-.3-3.1-.1-1 .3-1.8 1.2-2h.5v-1.2z"/><path fill="#ddca9b" stroke-width="1.4" d="m440.4 238.6-1.2 1.5c-.3.3-.3.7-.1 1l.2.5c0 .2 0 .3-.2.1-.6-.5-1-1.1-1-1.9.6-.5 1.7-1 2.3-1.2z"/><path fill="#ffbfc3" stroke-width="1.4" d="M392 254.7s-.1 1-.5 1.3c-.4.2-2.6.5-2.7 0-.1-.5.5-.6.7-.7.2-.2 2.5-.6 2.5-.6zm-1.9 30.4c0-.3.6-1.8 1-2s1.2.1 1.3.4c0 .3-.5 1.5-1 1.8-.6.2-1.3.3-1.3-.2zm-7.9-16.8 3-.8c.2.5 0 1.2-.5 1.4-.5.3-2.4.5-2.6.1a.7.7 0 0 1 .1-.7zm1.5 7.1s-.5.7-.1 1 2.1-.2 2.3-.8.2-1.6-.1-1.5-1.8.8-2.1 1.3"/><path fill="#5a5793" stroke-width="1.4" d="M364.7 272.5a18 18 0 0 0-6.8 2.4c-.7.5-1.3 1-1.8.9-.9-.2-1.5 0-1.5 0l-.2.3c-2.5-.5-5.2-.4-7.6-.4-6.7-.1-2.8 3.7-2 7.6 1 .8 2 1.2 3 1 2-.7 3.8-3.2 5.6-4.1.3-.2.4-.2.4.2a67.1 67.1 0 0 0-1.7 11.7c.5.9 1.7.7 4.2.6-.2-4.2-.6-8.6-.1-12.7 1.2-2.7 4.8 9.8 6 11 .6.9 2.4-1 2.9-1.2.3-.2.4-.6.2-.9-2-3.7-4.8-7.2-6.7-10.3 1.6.4 6.6 2.2 7.7.5 1-1.8.1-1.2.4-2.4.4-1.4-.3-4-2-4.2zm-16.8 9c-1 .3-2.1-2.8-2-3.7 2-1.3 5.7 0 8-.4v.6c-1.8 0-4.8 2.7-6 3.6zm16.6-3.8c-1.5-.3-4.7.1-6.9-.9l2.6-1.6c1.5-.4 3-.7 4.6-.8 1 .8 1 3.2-.3 3.3z"/></g><path fill="#444" d="M301.6 116.1c-.6-3-7.6-3.7-11-3.5-15.7 1-23.6 17.2-30.1 28.5-9.5 16.3-27 18.3-39.1 33.3-12 12.6-12.8 30.1-.4 42.8 2.2 3.9 5.5 7.9 9.3 10.1 2 1 4.6 1.4 4.8.4-10.3-1.4-9.8-16-6.4-23.2.4-1.4 3-6.1 3.2-4.7.6 4.9 2 12.7 5.7 16.2 2 2 4.6 5.7 7.3 7 4 5 11.1 10.4 18 8.6.4-.2.6-1.2 0-1.1a6 6 0 0 1-5.6-1.1c-4.2-3-6.6-7.8-7.2-12.8a35 35 0 0 1 1.1-13.7c.4-1 1.2 1.4 1.6 2.4 3.2 7 6.9 13.3 15 14.3 1.8.1 4.5.4 5.7-1.1.8-1 .6-1.1-.4-.7-10 3-14.5-10-15.3-17.8-1.3-10.4 2.7-19 7.1-28.7 8.8-14.7 26-26.3 33.3-39.9 1.9-2.3 6.9-11.6 3.4-15.3zM221 214.8a39.5 39.5 0 0 1-3.3-19.7 28 28 0 0 1 12.2-18.3c1-.6 1-.5.4.5a51 51 0 0 0-9.3 37.5z"/><path fill="#2b121c" d="M270 164.5c-9.8 13.4-16 29.3-10 45.1l-5.9-4.3c-.5-.4 0 2-.2 2.2-1-.8-1.6-4.9-2.5-2.9a26.6 26.6 0 0 0-1.3 12.2c-4-21.4 5-39.8 18-54.1 10.2-10.3 21.6-21 29.9-33.2 4.6-6.8 3-13.2 2.2-14.8.4-.4.9 0 1.3 1 2.2 4.8-.7 10.9-2.8 14.8-3.5 5.1-5.9 9.1-12 15.5-5.8 6.4-15.7 16.6-16.8 18.5zM244.9 223c-7.8-2.8-13-12.4-13.6-20.7-.2-1.3-1.3 2-1.7 3.4-2.6 5.8-3.6 13.3-.3 19-5.5-2.3-6.2-8.4-6.5-13.7-.3-13.9 11.7-25.9 21.7-34.3.6-.1 3.2-4 3.3-2.7-10.3 13.7-13 34-3 49z"/><path fill="#e6cdd7" d="M304.3 235.7c-.8 0-2.4-.2-2.8.2-1.3 1-1.9 4.3.3 6.2 1.3-.7 3.4-1.4 4.5-1.8-.6-1.3-.7-3.8-2-4.6z"/><path fill="#dbb5b6" d="M398.6 298h-.2c-4.5 4.6-9.5 9-15 13.2-1.1.9-3.4 2-4.6 2.4-.2 0 3 19.7 3.2 19.5 4.1-3.6 8.5-8.3 11.8-12.7L406 304a16 16 0 0 1-7.5-6zm-44.9-51.6c2.6.9 4.4 2.7 5.2 5.3 1.3 3.9 1.7 8.1 1.3 12.8 0 0-4.7-3.2-6.3-4.7a48.8 48.8 0 0 1-5.2-6.8c-.8-1.7-1-3.8-2-5 2.2-1.3 5.5-2 7-1.6z"/><path fill="#403e4f" d="m394.3 331.8-1-1.5c.2-2.3 0-4.5-.6-6.5l-4.7-.6c-.3-.4-2.7-1.6-2.5-2.2.7-4.7-2.6-7.6-3.6-11.7-.5-3.8-4 .7-4.5 1.8-2.6 7.3.9 17.2 6.1 23 2.6 2 11 2.8 10.8-2.3zm-34.6-81.7c-4.7-6.4-12.5-6.5-14.8-6.4-4.9 2.7 13.2 27.4 18.2 27 0-7.4-.6-16.1-3.4-20.6z"/><path fill="#343443" d="M351.2 245c11.5 1 11.6 15.8 12 24.3-6.6-2.2-10-8.6-14.2-14 3 1.6 10.3 8 11 9.6 2.4 1.1.3-6.7 0-8.9-.8-2.9-1-3.5-2.2-6-2.1-3.4-7.7-4.9-6.6-5zm36.8 78.2 4.8.6c.6 2 .9 5.5.5 7.8-4.5 1-6.5-4.1-5.3-8.4zm-7.7 9.2c-.2-.2.7-.3.6-.8 1-2.6 8.4-.3 6.6 1.5l-7.2-.7z"/><g transform="scale(1.4)"><path fill="#dbb5b6" d="m244 476.1.5-.2v-1.6l-1-1.1-.5.4v1.2l1 1.3zm-55.4-26.3-.8-1-2.5-2.2-.9-.6c-.1-.5.4-2 .5-2l2 .7 2.5 1.2-.8 4z"/><path fill="#f4e7de" d="M281.2 270.7c0-1.8.4-4 .2-6-.4-3.6-2.7-7.1-3.7-10.8-1.2-4.4-2.5-8.8-4-13l-3.5-19.3c-1.2-5.2-3-10.3-5.3-15-.4-.9-.7-2.4-.7-3.2a80.5 80.5 0 0 0-.9-8.1c-2.2-2.1-4.3-4-6.2-6.6a32 32 0 0 0-3-4.5c-1.2-1.1-2.9-1.7-4.2-3.5-.5-1.3-1.1-2.3-1.8-3.2a10 10 0 0 1 4.4-1.5l-.5-.2a170 170 0 0 1-8.6-2.6 3 3 0 0 1-1.6-1.2c-1.4-2.1-.3-5.9.6-8-.5-.7-1.6-.3-2.8-.4h-.4c-.4-.2-.4-.4 0-.5a23 23 0 0 1-9.6-4.5v.3l-.1.2c-.1 0-.2 0-.2-.2h-.1l-.1.2c0 2.7-.1 5.2-.6 7.4-.9 1.6-2 2.7-3.5 3.4-2.4 1-5.8-.6-7.9.7a9.5 9.5 0 0 0-3 3.8c-2.8 6-3.7 12.8-5.5 19.1-3 10-6.2 20-9.9 29.9l10.1 4.6.3-.6c4.1-8.5 8-17.2 11.5-26.1l2.5 4.9c.6 1.1 1.2 2.2 1.6 3.4 2 6.2 5.3 11.5 8.3 17.1 1.2 2.4 2.1 4.6 2.3 7 .6 6.4-.5 12.4-3.3 18a207.4 207.4 0 0 0-5 11.2 54.7 54.7 0 0 0-3.5 18.8c0 6.7-.6 13.4-.6 20.1a485.6 485.6 0 0 0 2.3 32c.4 3 .5 6.3.6 9.4l-.4 4.5c-.7 3.4-3 4.7-6 6.2-2.9 1.6-4.8 2.6-7 5.1a58.9 58.9 0 0 0-8.9 14.3l-5.5 15.6-6.1 15c-2 3-4.1 4.5-6.7 6.5-4.3 3.3-3.1 8.2-2.2 12.7 1 4 .6 8-.3 12.2a15 15 0 0 0-.3 4c.1 2 .1 5.6 2 7 0 0 .5.3.6 0 .2-.2.3-1.4.3-1.4l.2.4c0 .7-.1 2 .2 2.6.2.5.5.8 1.3 1l.5-.3.1-2.1.2-.1c.2 0 .2 0 .2.2-.2 1.7-.5 4 2.3 3.5l.2-3.5a.1.1 0 1 1 .3 0l.2 3.7c.2.5.6.9 1 1.1h.5c.3 0 .6-.2.9-.5a19.3 19.3 0 0 1-.2-5.4l.1.1.7 5.5c1 .6 2.5.8 3-.7.5-1.4-.3-2.5-.4-3.7-.2-3-.4-6-.8-9.1-.4-4.4.2-8.7.8-13 1-5.3 1.2-10.8 3.7-15.6a299.5 299.5 0 0 1 25-35c2.2-2.8 4.3-4.8 6.2-6.3 3.2-2.4 6.1-4.7 7.6-8 .5-1 1-2 1.2-3.5l2.2-11c2-12.1 4.4-24 7.2-36h.6c-.1 1.2-.4 2.3-.4 3.4-.5 7.5-1 15-1.7 22.5-.3 4.6-.8 7.8-1.3 9.6-.9 3-1.6 6-2.2 8.9-.3 1.9-.3 4-.2 6.1a50 50 0 0 1-.3 12.8c-.7 3.5-1.3 7.1-1.7 10.7-.6 4.5-1.2 8.8-1.2 13.5 0 12.2-.3 24.6-2.6 36.5a29 29 0 0 1-2.8 8.3 8.4 8.4 0 0 0-1.7 6c0 1 0 1.7-.3 2.2a17 17 0 0 0-1.2 9c.2 1.4 0 2.5 0 3.8-.5 1.7-1.1 3.4-1.9 5a5 5 0 0 0-.5 2.2c0 3 .6 6 2 8.6.2.7.7 1 1 1 1.7.8 2.7.4 3-1.3l-.5-5v-.1h.3c.7 1.5 1.1 3 1.3 4.5 0 .2.2.3.3.4 1.4 1 2.5.8 3.6-.4 0-.2.2-.3.4-.3.8 0 1.6-.4 2.2-1 .2 0 .2-.2.1-.3l-.4-2c0-.3 0-.3.2 0 .3.5.4 1 .3 1.6a.4.4 0 0 0 .8.2c.2-.5.5-.8.9-.9.1 0 .2 0 .2-.2.7-1.4 1-2.9.7-4.4-.5-3.3-.8-6.4-1-9.4 0-2.9-.4-5.4-.8-8.2-.2-2.1 1.8-4 1.9-6.3.1-3.9.4-6.6.8-8.2l4-16.3c2-7.8 4.2-15 6.7-22.3 3-9 4.3-18.3 3.7-27.8l-.3-8a47 47 0 0 1 2.5-14.4c4.2-11.8 7.3-20.5 9.1-26.2 3.2-9.8 5.5-18.7 6.7-26.5 1-6.4 1.5-12 1.4-16.7l-.2-9.1zm-57-100.1z"/><path fill="#dbb5b6" d="m245.7 474.8-.3-.9c-.1-.5-.2-1.7 0-1.8l.3 1.7c0 .4.2.9 0 1zm-4.6 2.2-.3-.9c-.1-.5-.2-1.7 0-1.8l.4 1.7v1zm-4.4-114.7c.8-.7 1.4-1.8 2.4-2.6a22 22 0 0 1-7.6 8c-2 1.5-4 3.5-6.2 6.2a299.2 299.2 0 0 0-25 35c-2.5 4.8-2.7 10.4-3.7 15.7l-.1-1.5c0-.5-.1-1-.3-1.4-1.3-3.2-1.8-7.6-2.3-10.2-.3-1.1-1-2.3-1-3.7l-.3-.4c-.8-.8-1-2-.7-3.5a491.3 491.3 0 0 0 11.6-30.6c1-2.7 2.2-5 3.8-7.2l4.8-5.8c1.8-2.3 3.4-3.5 5.9-4.7 2-1 3.9-2.2 5.7-3.4.8-.6 1.4-1.2 1.7-1.8.3-1 .3-1.8 0-2.7l.4-4.5.3 1s1.2 2 1.5 4.1.3 10 1.5 11.7c1.1 1.7 4.5 4.8 7.6 2.3zM228 193.6c.4.8.5 1.7.4 2.5 0 .2 0 .3-.2.3l-1-.2a3 3 0 0 0-2-.9l-.4.2-.8 2.9c-.5 3.7.2 7 .4 10.3l-3.8-7.4c1-2.9 2-5.8 2.8-8.7.3-.8 1-1.7 2-3h.2l.2.2-.5.9.1.3 2.7 2.6zm14.5 189.6c.4-3.7 1-7.4 1.7-11 .9-4.5.5-9.3.3-13.7-.1-1.7 0-3.3.1-5l.2 1.4a.2.2 0 0 0 .3 0l.3-1.3h.2c.1 2.6 0 5.1.6 7.7.7 2.3 1.9 5.4 1.7 7.8 0 .6-.4 1.5-1 2.5-1 2-1.9 4.1-2.5 6.3 0 .2-.2.3-.3.4l-.5.2s-.2.2-.1.3c.1.5 0 .9-.2 1.3l-.2.4-.6 2.7zm30.1-145.5c2.7 6.7 2.6 14 5.7 20.4 3.6 6.3 1.3 19 1.6 25-1-.2-.3-12-4.5-9.5-5 3-9.8 9.4-14.7 12.5a10.2 10.2 0 0 1-8.5.9c-2.5-19.1 7.5-4 13.7-13.6a48 48 0 0 0 6.7-35.7z"/><path fill="#dbb5b6" d="m271.6 276.6-9.5 8.7c-.9.8-6 6.5-7.1 8-3.2 4.7-3.7 10.6-4.7 16-.3-.2-.5-.2-.6 0a124 124 0 0 0 2.6-23h.3c1.7 1.2 5.6.1 5.6.1s2.5-.5 3-1l6.5-5.9c1.8-1.5 3-2.5 3.9-3zm-43.6-83c1.1.7 2.2 2.4 1.3 3.7h-.3l-1.9-1h1c.2 0 .3 0 .3-.2.1-.8 0-1.7-.3-2.5zm-4 4.8.2 3c0 .8.1 1.8.4 3 .3 1.3.2 2.6.7 4a75 75 0 0 0 3.3 7.7c1 1.7 2.5 4.2 4.8 7.5 1 1.5 2.4 3 3.6 4.4 1 1.3 1 2.3.4 3.8a6 6 0 0 0-.3 1.8v7a19 19 0 0 1-.6 4.9 212.5 212.5 0 0 1-10.9 26c-.5 1.6-1.5 17.4-1.8 20.7l-.2 1-.1.5c0 2.7-.2 5.4-.6 8l.1-7.8a1476 1476 0 0 0 .5-13.6c0-3.7.5-7.5 1.4-11.2.9-4 3-8.1 4.6-12.2l2.2-4.5a37.2 37.2 0 0 0 3.4-20.8c-1.7-4-4.2-9-7.4-14.8a40 40 0 0 1-3.3-8.1c-.2-3.2-1-6.6-.4-10.3zm11.9 243.2a7 7 0 0 1-.1 2.2 9 9 0 0 0-.3 2 31.3 31.3 0 0 1-1.6 10.1l-.2.4a22 22 0 0 1-1 6.2c0-1.3.2-2.4 0-3.9a14 14 0 0 1 .7-7c.7-2.3 1-4.7 1-7.5 0-1 .5-1.8 1.5-2.5zm6.7-277.7c-.9 2.1-2.1 6-.8 8.1.4.5 1 1 1.9 1.2 3 1 6 2 9 2.8-1.6 0-3 .6-4.6 1.5a22.1 22.1 0 0 1-5.3 1.8c-1.9.2-2.5-1.6-3.7-1.8-3.5-.7-6.4-1.6-8.7-3a141.5 141.5 0 0 1-6.1-4h.2a9 9 0 0 1 2.8 1.3c2.2 1.6 4.6 2.9 7.2 3.8a.3.3 0 0 0 .3-.4c-1-1.2-2.2-2.2-3.1-3.4a71.7 71.7 0 0 1-3.3-5.3c.6-2.3.7-6.2.5-8.8 2.4-2 7-1.2 10 0s3.8 2.8 3.7 6.2zm22.1 85.9a8.3 8.3 0 0 1 0-6.2c.1-.1.2-.2.3-.1.1 0 .2 0 .2.2-.3 1.8-.3 3.8 0 5.7 0 .3-.1.5-.3.5l-.2-.1z"/><ellipse cx="234.6" cy="478" fill="#dbb5b6" rx="1.2" ry=".8" transform="rotate(-19.1 234.6 478)"/><path fill="#dbb5b6" d="m194 451.1-.6-.2c-.4-1.7-.5-3.5-.3-5.3a.1.1 0 0 1 .2 0l.7 5.5zm-3-.8-.7-.2.2-3.5a.1.1 0 1 1 .3 0l.2 3.7z"/><ellipse cx="195.6" cy="449.5" fill="#dbb5b6" rx="1" ry="1.1" transform="rotate(-85.1 195.6 449.5)"/></g><path fill="#f4e7de" d="M314 238.8z"/><path fill="#2b121c" d="M296 182.4c-.4-2.9-5.9-26.7.5-43.6 1.8-5.2 5.2-10.7 8.2-16 .3-.6.2-.7-.3-.3a61.2 61.2 0 0 0-8.4 16.1c-2.7 6.6-4 14-6.2 20.6-3.2 5-4.8 7.1-7.8 11.9-3.9 7.7-5 14.3-5.3 17.8-.6 5.4-.4 11.8-.4 11.6 0 0 .7-14.2 4.3-22.8.6 1.8.9 7.3 7.6 13 .5.8 8.2 6.1 8.5 7 .6 0-.1-12.4-.6-15.3z"/><path fill="#9a7978" d="m374 219 .7 1c5.3-1.4 8.3-2.9 11-7.5l.3-4.8c-.9 6.5-4.5 9.4-12 11.2z"/><path fill="#dbb5b6" d="M384.5 202c1.2.4 1.8 1 1.8 1.6.1 9.4-3.4 13.2-12.4 15.4l10.6-17z"/><g transform="scale(1.4)"><path fill="#f4e7de" d="M280.9 93.6a44.6 44.6 0 0 0-46.3-14.9 32 32 0 0 0-19.4 14c-7 11.2-4.8 31-3.5 37.3v.1c-.1-.2 2.1 9.2 3.4 13 .3.8 5.9 8.4 8.5 10.9.9.9 3 2.4 6 4.6 3 2.3 12.2 5 13.6 5.2h7c4.8-.2 10.6-1.3 14.1-4.3.5-.3 1.4-1.4 2.8-3.1l7.5-12.1s7.5-13.5 7.7-14.1c.3-.7 11-21.2-1.4-36.6z"/><ellipse cx="248" cy="144.6" fill="#dbb5b6" rx=".3" ry=".5"/><path fill="#dbb5b6" d="M218 133c-1.8-11-9.4-35.3 16.6-54.3a32 32 0 0 0-19.4 14c-7 11.2-4.8 31-3.5 37.3 2.2.8 6 2.3 6.2 3z"/></g><path fill="#dbb5b6" d="M387 197.6c-1.1.7-1.4-6.4-2.5-7.4l14.8-18.3c0-.1-1.7 8.3-12.2 25.7z"/><path fill="#9a7978" d="M374 219h-.1a36 36 0 0 1-3.8 4.4 55.6 55.6 0 0 1-30 5.8l-.4.5a53.2 53.2 0 0 0 29.8-4.8c2.7-1.9 4-4.6 5.2-5l-.7-1z"/><g filter="url(#a)" opacity=".5" transform="scale(1.4)"><path fill="#ffd9d7" d="M263.1 148.7c-.6-.2 6.5 1.7 3.6 7.7-.8 1.5-1.6 2-2.6 3.4-4.4 1.6-9.5-1.4-9.4-7.6.2-5.8 4.7-4.7 8.4-3.5zM219.8 138c2.4-1.4 5.8-1 11.3 2 3 1.6 4.6 6.4.7 8.8-2 2-5.8 2.7-8.5 1.7-9-4.2-6.3-11-3.5-12.5z"/></g><path fill="#fdfcfc" d="M339.4 462.8a28.6 28.6 0 0 0-24.4 1.6l.3 2.8c.5 4.4.6 8.9.8 13.3l-.6 6.3c-.9 4.7-4.2 6.5-8.3 8.7-4.1 2.2-6.8 3.6-9.8 7.2a82.4 82.4 0 0 0-12.4 19.9c-3.5 9.8-6 17.1-7.8 21.8a350 350 0 0 1-8.6 21c-2.6 4.4-5.7 6.3-9.3 9.1-6 4.7-4.4 11.5-3 17.9 1.2 5.7.7 11.1-.5 17a21 21 0 0 0-.5 5.6c.1 1.6.2 4 .8 6.2h-.1s.4 4.1 5 7.2c4.5 3 11 6.7 13.9 3.6v-.1c.3-.3.7-.7.9-1.3.7-2-.4-3.6-.5-5.2l-1.1-12.8c-.7-6.2.1-12.2 1-18.2 1.4-7.4 1.8-15.2 5.2-21.9a419.4 419.4 0 0 1 35-49c3-3.8 6-6.7 8.8-8.8 4.4-3.3 8.5-6.6 10.5-11.2.7-1.2 1.3-2.8 1.8-4.8 1.2-5.6 2.2-10.7 3-15.5l3.3-18c-1-.9-2.1-1.7-3.4-2.4z"/><path fill="#403e4f" d="m274.5 615-.8 1.6c-.6 1.2-1.5 4.7-1.5 4.7-.2.3-.6 0-.6-.2-.2-5-4-6.8-7.9-8.2-.3-.2-.3-.3 0-.4 2.7-.6 8.5-1.5 8.3-6.5-.1-.4.6-.6.7-.3.3 1.5.9 3.1 1.3 4.7.3 1.3.3 3.9.5 4.6z"/><path fill="#fdfcfc" d="m370 488.8 5.6-16.1a41.3 41.3 0 0 1-15.7 2c-4.5-.6-9.4-1.7-12.4-5.2a77 77 0 0 1-1.9 13.1 45.4 45.4 0 0 0-3.3 21c.4 5.7.7 11.9-.4 17.9-1 5-1.8 10-2.5 15-.7 6.3-1.6 12.3-1.6 18.9 0 17-.4 34.4-3.6 51.1-.8 4.3-2.1 8.1-4 11.6-1.7 2-2.5 4.7-2.4 8.5a9 9 0 0 1-.3 3c-1.4 4.3-2.6 7.6-1.7 12.5.3 2 0 3.5 0 5.4-.7 2.4-1.6 4.8-2.7 7a7.2 7.2 0 0 0-.7 3c0 4.3 1 8.4 2.8 12.2a2 2 0 0 0 1.3 1.4c1 .4 1.7.6 2.3.5a25 25 0 0 0 15.5-7v-.1l.2-.2c.9-2 1.2-4 .8-6.2-.6-4.5-1-8.9-1.2-13-.2-4.2-.7-7.7-1.2-11.5-.4-3 2.5-5.6 2.6-9 .2-5.3.6-9.2 1.1-11.5l5.7-22.8c2.7-10.8 5.8-20.9 9.3-31.1 4.3-12.7 6-25.7 5.3-38.9a67.9 67.9 0 0 1 3-31.5z"/><path fill="#403e4f" d="M326.2 655.6c-.2-1 1.5-.7 4.9-3.2.3-.2.8-.5 1.2-1.2 5.5-10-.3.6 9.9 4.3 1.4 1.3-1.7 1-4.5 2.3a7.3 7.3 0 0 0-3.7 6c0 .3-.6.3-.7 0-1.2-4.7-1.7-7-7-8.2z"/><path fill="#e9dae2" d="m370 488.8 5.6-16.1a41.3 41.3 0 0 1-15.7 2c-4.5-.6-9.4-1.7-12.4-5.2a77 77 0 0 1-3.7 20.1c4.2.6 15.1 2.4 17.7 6.4 3.1 5 .9 17.1 2.7 21a24 24 0 0 0 2.7 4.5v-1.2a67.9 67.9 0 0 1 3-31.5z"/><path fill="#343443" d="M343.3 636.8s.8-4.2.8-5.7v-1.8s-.9 1.3-1.2 2.8c-.3 1.5.1 4.7.4 4.7z"/><path fill="#403e4f" d="M345.2 645.5c.2-.6.3-2.4.1-3-.3-.8-1-1.3-1.2-1.8 0-3.3.3-5-1.5-7.3-2.4-3-11-3.7-12.9 0-.9 1.3-1.3 3-1.3 3-.9-1-1-4.6-.8-7.4.3-4.2 1.1-6.8.4-7.5-.5 1.4-1.4 3-2 4.5-.5 1.5-1 3-1 4.5-.3 3.5-.4 6.8 0 10.4-.3 4.8-2.5 10.6-3.6 15.6-.8 5.7.6 12.8 5.3 16.4 4 1.9 9 2.5 13.3.7 3.2-1.9 5-4.4 6-7.6 1-4 .7-8.8.2-12.8"/><path fill="#fff" d="M327.3 663.9c2.4 1.4 2.8 2.5 2.7 2.8-.3.4-1.2.4-1.7 0-.6-.4-1.1-1.2-1.3-2.6 0-.2 0-.3.3-.2zm8.5-23.8c1.6 0 4 .6 4.2 1.2 0 .3-1.5-.2-3.8-.3-1.6-.1-3.3.1-4.3.2-1 0-.6-1 .3-1 0 0 2-.2 3.6-.1z" opacity=".4"/><path fill="#343443" d="M345.3 644.5s-.2 1.7-.6 2.3c-.4.5-.7.6-.9.8 0 1.1.4 3.2.4 4.2a17 17 0 0 1-1.6 10.8c-.7 1-3 1.8-3.9 2-.3.1-.3 0-.1-.2 1.7-1.1 3.6-2 4.3-4.4 1-4.2 1-8.7.2-12-1.2-2.8-3.8-4.6-9.2-4.2-2 .3-4.5.2-5.6 2-1.5 4.8-2.2 10.4 0 15a15 15 0 0 0 2.8 3.2l-1.3-.5c-1.2-.8-2-1.7-2.6-2.7-2.5-4.2-.5-10 .4-14.8.2-.8-.4-2.5.5-2.8.3.4.3.5.7.6 1.2 0 2.3-.5 3.5-.7a14 14 0 0 1 5.2 0c4 1 4.3 1.7 6.1 3.3.8.6 1.2-2.2 1.7-1.9z"/><path fill="#343443" d="M346.4 663.6c0-.1-.1-.1-.2 0-.6.2-1.6 5.3-7.7 7.5-5.6 1.4-12.6-.6-14.8-6.2-1.2-2.6-1.4-5.8-2-8.6l-.3.2c-.8 5.6.6 12.8 5.3 16.4a16 16 0 0 0 13.4 1c3.3-1.9 5-4.7 5.9-8l.4-2.3zm-16.2-27.1c-.3 0-.1-.5-.2-.8l-.1-.2c-.3 0-.1.4-.3.3 0 .6-.4.8-1 .8l-.2-.2c-.3-.5-.6-1.5-.8-3.3-.4-2.4.3-6.3.1-6.5a19.8 19.8 0 0 0 0 10.5c0 1.3-1 2.6-.4 3.5.1 0 .3-.1.3-.3.2-2 1-2.9 3-3.1 3.3-1 7.5.1 9.4.8-2.7-2-6.4-2-9.8-1.5z"/><path fill="#403e4f" d="M276 605.2c.9-2.3 1.1-4.6.1-6.8 1-2.8 1.5-4.4-.6-7.1-3.9-1.3-9.6-2-11.6 2.5-.5-2.2-1.8-4-1.8-6.2.4-1.6.5-3 .5-4.1.4-5-1.8-11.3 3.3-14.4-.1-.7-1.7 0-2 .4l-4.2 2.3c-1.5.7-2 2.5-3 3.5-2.3 2.3-3.3 3.9-4.9 5.9-.8 2-.3 4.7.2 7 .2 1 1 4.2 1.7 5 .1.1.8 0 .9.2.2.8 0 4.4 0 5.3 0 3.3-.3 7.3-.6 10.6-.2 5-1 9.6 1.6 14 2.9 6.2 11 13.2 17.6 10.8a9 9 0 0 0 3.2-2c1.7-1.6 2.5-4 2.7-7.1-.3-6.8-2.4-13.3-3.2-19.8zm-11.5-3zm0 0z"/><path fill="#343443" d="M268 631.3c-7.5-3.3-10.5-9.9-11.5-17.3-1-7.2.3-14.7.8-21.2-.8-5.1-2.7-11-1.9-16.1-3.4 3.3-5 6.7-3.4 11.6.5 1.3.8 5 2.6 5.1 1 9.8-4 21.8 1.2 31a20 20 0 0 0 13.6 10.7c2.6.3 5.3-.8 7.7-3.8-2.1 1.5-6.2 1-9 0z"/><path fill="#343443" d="M275.6 591.2c1 .6 1 1.3 1.3 2 .5 1.7 0 3.2-.8 5.2 1 2.2.8 4.5-.2 6.8-.6.1-.5-.6-1.4-1.2l-1.2-.7c-.1 0-.1-.1 0-.1.8 0 1.8 1 2.4.1 2.7-4-2.3-5-5.2-5.7-.4-.6 1.2-.2 2.1 0l2.5.6c.9-2.3 2.1-6.9-1.7-7-2.4.2-6-1.2-7.3 1.2-.3 1.1-.3 2.4-.5 3.5.4.2 2.6.3 2.7 1-1-.3-3.1-.4-4.2 0-1.5.4-1.3 3.2-.5 4.9.2.5 1.3.4 1.6.6-.6.6-1.5.5-1.8 1.3-1.6 3.9-.8 10.4-.4 14.2a6 6 0 0 1-.6-1.5c-1.1-6.2-.7-9 0-14.8 0-2-1-4.9 1.3-5.7.7-.4.4-1.2 0-1.8.5-1.8.8-2.5 1.7-3 2.6-1.9 7.6-1 10.2 0zm3.5 33.8c-.3 4.7-6.6 4-9.7 2-.1-.1-.1-.5.1-.4 3.6 1.7 8 2.2 8.5-2.8 1-2.4 1 .4 1.1 1.2z"/><path fill="#fff" d="M266.2 621c.3.3 1.1 3.3 0 2.8-.7-.3-2.3-2.8-1.4-3.1.5 0 1 0 1.4.4zm2.1-21.8s4 .2 5.4 1.4c.6.4.7 1-.8.5-1.6-.5-4.7-1.1-5.5-1.2-.8 0-.5-.7 1-.7z" opacity=".4"/><path fill="#fdfcfc" d="M349 259.3c-1.5-8-2.8-17.8-11-22.6 1 5.8 1.6 7.7.6 7.5-2-.5-9.8-12.8-20.8-13.3-1.1 1-1.5 2-2.6 3.3 6.7 3 12.4 8 17.7 13l6.4 5.5c.1 0 .1 0 0 0 3.1 2.7 6 5 8.8 8l.8-1.4z"/><path fill="#e9dae2" d="M347 259.2c-1.5-1.8-4.9-5.1-4.9-5.4l-.6-4c0-.2 0-.4.2-.4 1.4-.3 2.5-1 3.8-.4 1.3 3.2 1.8 7 2.3 10.4l1.1-.1c-1-5.2-2-13.2-5-18.7-2-1.8-3.4-4-6-5.4-.3 1.1-.4 2.8-.3 4.3.2 1.2.2 2 .2 3.6a30.5 30.5 0 0 0-20.1-13.5c-1.1 1-1.4 3.3-2.5 4.6 6.7 3 12.4 8 17.7 13 1.9.4 3.9 1.4 5.7 1.3.5 0 1.5-.7 1.8 0 .5 1.5 1 4 .6 5.1-.6-.6-1.2-1-1.7-1 3.1 2.8 6 5.1 8.8 8v-.5c-.4-.3-.8-.5-1-.9z"/><path fill="#403e4f" d="M385.8 346s-7.4-37.3-7.9-39.2c-1.7-7-4.9-14.9-7.8-20.7.1-.8 1-5.9-1.3-13.3-.9-1.6-5-6.8-5.3-7.3a116 116 0 0 1-8.2-17.2c-1.4-2.6-3.5-3.6-5.9-4.8-2-2.7-4.8-4.3-7.9-5.1 0 0 2 2.1 3.7 5.8a93.1 93.1 0 0 1 3 15.4c-.2-.2-10.4-9.4-15.7-13.9a58.7 58.7 0 0 0-19.2-13.2c-2-.4-5.3 3.4-7 4.8-2.3 1.1-3.4.7-5.8 4.8 2.8-.7 8.8 2 11.4 8.4 5.5 10.5-3 31.6-3 31.7a655.5 655.5 0 0 0 10.4 22.8c1.7 3.7 5 9 7.3 14.6l1.6 4.8c.8 3 1.2 8.2.5 13.3-.6 5.5-1 7.4-1 7.4s9.2 16.7 43 10c15.7-3.4 15-9 15-9z"/><g fill="#343443"><path d="M349.5 243.5c-2-2.7-5-4.6-8.1-5.4a15.2 15.2 0 0 0 4.3 8c1.5 0 3.8-1.5 5-.4 3.5 5.6 5 11.3 6.2 17.4l.5-.1c-1.4-7.1-3.6-14-7.9-19.5zm-.2 31.5c0-6.4-.5-12.6-.9-16-.1 0 0 .4-.4.3.6 4.6.6 9.8.8 15a417 417 0 0 0-24.2-21.9c-.4 0-.2.2-.3.4 6.3 5.6 13 11.1 18.9 17.1 1.7 1.8 4 3.4 5 5.6.6 1.2.2 2.5 0 3.9.1 0 .5.2.4-.1 0-1.5.8-2.8.7-4.3zm-34-31.5a80.9 80.9 0 0 0-7.2-4.8c-2.4-1.5-2.6-1.1-.2.3l1.1.7a59 59 0 0 1 5.8 3.9l.5-.1z"/><path d="M324.6 252.4c-.4 0-.2.2-.2.4l-10.5-10.1c-.7-.7 1 .3 1.3.6 3.2 2.9 6.3 6 9.4 9zm36.9 9.5c1.2 2.1 3.8 4.6 5 6.8 2 2.3 2.6 4.2 2.9 7.2-.7-5.1-4-6.6-6.5-9-3.1-3-6-6.8-5.6-13.1l4.2 8zm-33.2 61.7-.1-.5c1.5-.5 10.4-10 15-22 3.8-10 5-21 5.3-24.6.2-1.4.2-1.4.4-1.5h.2l.1.2-.2.1.2.1-.1 1.2c-.4 3.6-1.6 14.7-5.4 24.7a53 53 0 0 1-15.4 22.3zm20.7-48.3-.3.1h.3z"/><path d="m330 337.6-.4-.3a289 289 0 0 1 6.3-6.3c6.5-6.4 11.3-11 14.5-19.2a121 121 0 0 0 6.7-27.4c.7-5.3 0-19.2-.3-21.6l.5-.1c.4 2.4 1 16.5.3 21.7-1 7.5-3 18.4-6.6 27.6-3.4 8.4-8.1 13-14.7 19.4l-6.3 6.2z"/></g><path fill="#3d3c4f" d="M351.5 380.3c2.4.1 27.7 2.5 31 5-.4 1-14.4 13.6-16.4 15.2s-10.7 4.5-13 4.3c-.2 0 .3-18-1.6-24.5z"/><path fill="#f5f3f3" d="M399 377.4c-5.6-6.5-14.7.2-21.6 0l-6.1 1c-17.6-.5-34-8.8-51.2-12-3.6 1.4-6.7 4.9-10.6 5.5-4.3.3-5.4 3.2-8.1 5.6-.3.3-.3.5 0 .6l10 5c.3.4 1.6 1.5 1.9 1.4.2 0 2-7.2 2-7.2l6.4-.2c1.2-1 .4-5 3.5-4.2 2.5 2.7 4.8 5.4 8.4 6.8 0 .2 3.9-.4 4-.4.3 0 .4-.1.4-.3 2-6 11.2 1.3 14 3.6 2.9.1 4 1.4 5.1 3 5.2 4 10-1.3 14.9 2 1.8-.7 5-3.7 7-2.8 4.5 2.6 8.4 0 12.5-1.6 3.8.6 5.7-2.2 7.6-4.7.3-.4.3-.8 0-1.1z"/><path fill="#e9dae2" d="m335.9 370.4.8.3c-.1 0-4.3 3.9-4.3 3.2-.3-.2 3.4-3.4 3.5-3.5zm41.6 7.7c-1.8.9.2.8 0 1.6-.3.4-.7.8-.4 1.2l2 3.9c-1-.4-2-.3-2.7.3l-4-5.1c-.5-.7.2-1.6-1.1-1.5l6.2-.4zm-12 1.4c.3-.1-.2 4.7-.4 4.6-5.3-2.4-7.7-8.6.4-4.6zm-50.2-2.2s-1.8 7.2-2 7.2c-.3 0-1.6-1-2-1.4.4.2 1 0 .7-.3-2-3.3-1.3-6.7-7-5.2-.2 0-.3 0 0-.3 3-3.6 6.6-.9 10.3 0z"/><path fill="#3d3c4f" d="M394.1 373.2s-10.7 4-22.2 3.8c-3.7 0-10-.5-19.6-2.9-13.2-3.3-27-7.6-27.5-7.7-.9 0-4.1-.6-6.8.4l-.5.8s2.3-.9 5.2-.6c2.9.3 22.9 6.7 26.8 7.6 7.2 1.8 15.4 3.5 21.3 3.6 6.2 0 16.2-.7 23.4-4 .6-.4.2-.8 0-1z"/><path fill="#fdfcfc" d="M477.3 414.1c-5-5.8-13.8-7.6-20.9-9.8-16 11.2-172.5 20.1-192.8 7.1-4.3 1.8-18 8.7-17.4 14l7.3 7.8c1.5.5 9.8 8.4 10.7 3.2.2 0 .3.1.4.4-4.9 8 22.5 12.6 27.3 12.9 1.1-.4 1-3.6 2.8-2.7a84.3 84.3 0 0 0 32.2 8c.3-.5 0-2.5.9-2.3 6.9.4 13.8.6 20.7.6 4.3.3 10.8-2.2 15-1.1l-.3 1.2c1.7 1 4.5.6 6.6.5a33 33 0 0 1 16.5 0c6 .7 11.5.3 16.7-1l9-2.4c.2 0 1.2-2.7 2-2.8 5.3-1.2 10.2-1 15.2-3.1 3.5-1.2 6.7-3.4 10.1-4.3.8.3 1.2.3 2 0 13.6-7.1 29-13 36-26.2z"/><path fill="#e9dae2" d="M451.1 410.5c.3-.7.7-1.2 1.4-1.6h.6c3 1.7 4.7 3.2 3.2 7 0 .2 2 2.4 1.7 2.4-2.4-.5-8-5-6.9-7.8zm-5.8.5c.5-.2.9 0 1 .5 1 2 3 5.7 2.2 8.1-.1.3-.5.5-.8.4a20 20 0 0 1-8.4-4.7l-.6-.3-.8-.3a.3.3 0 0 1-.1-.3v-.1l7.5-3.3zm-181.7.4c4.6 3 9 5.6 13.5 7.6-5 5.4-9.1 11.3-12.5 17.8-.1-.3-.2-.4-.4-.4a146.5 146.5 0 0 1 9.9-16.2c-1.5 0-2.6.2-3.6.7-6 3-11.6 7.1-17 12.3l-7.3-7.8c-.4-.4-.4-1 0-1.5 1-1.6 2.2-3 3.8-4.3a47 47 0 0 1 13.6-8.2zm154 7.4.7 15.3c0 .8 0 1-.5 1.6-.2 0-.2.2-.2.4v3a.6.6 0 0 1-1.2.1c-1.8-4.7-4-9.4-6.4-14a.7.7 0 0 0-1-.2 36.6 36.6 0 0 0-10.2 6.6c-1 .8-2 1-3.4.7a.6.6 0 0 1-.4-.4s-1.8-4.2-1.3-4.4c-1.2-2.5 24-8.7 24-8.7zm-130.1 4.7c3.6 1.6 7.3 2.8 11 3.6-.5 0-.7.3-.6 1 0 .2 0 .4-.2.5a29.6 29.6 0 0 0-4.6 7.3c-1 2-1.8 3.4-3.3 4.7a.6.6 0 0 1-1-.4l.1-3.2c0-1 0-2-.2-3-.8-3.4-1.2-6.9-1.2-10.5zm43.3 6.5.2.6v.5l-4.8 15a.3.3 0 0 1-.6 0c.3-5.3 0-10.5-1-15.5l6.2-.5zm40.2 1c-.3 0-.6.2-.8.4v.5c.5.3.6.6.5 1-1.6 4.7-3.4 9.4-5.4 14a.3.3 0 0 1-.5 0l-5.2-15.6 11.4-.2z"/><g fill="#403e4f"><path d="M384.3 328.1c-15.5 15-55 3.7-56.8 4-8.6 4.6-22.3 18.8-30.5 29.4a412 412 0 0 0-33.4 50.8c20.3 13 42.8 20.7 67.2 18.7 1.4-.3.5-2.6 2.5-2.1 22.9 5.4 45.9 3.5 68.2-3.5 19.1-5.4 40-10 56-21.2 0 0-45.6-60.6-73.2-76z"/><path d="M392.1 334.1c-1.3-.6-3.7-3-5-3.4-1.5-1.1-4.5-9-6-9.2-13.9 9-37 9.3-51.5 3.3-.6-.3-1.3 0-1.4.3-.6 2.4.3 4.8-1 7.5-.2.5-.6 1.1-1 1.3 18.3 12 48 13.3 66 .2z"/></g><path fill="#231e25" d="m352.6 298.7 15.5-3.2.4 2-15.5 3.2z"/><path fill="#36343f" d="M373.5 293.2c-.3-.7-1.3-1-4.6-.8l-2.3.3 12 47.2c1.5-.8 3-2.2 4.5-4 .8-1.1 2.6-4.9 3.5-5.9.3-.2-9.9-29.4-13-36.8z"/><path fill="#36343f" d="m371.8 294.6 1.3-1.4-1-2.4s2 .8 2.3 1.7 1 7.4 1 7.4l-4.4 1.9m-28.8-4a47.4 47.4 0 0 0-19.2 11.5s-1 2-.8 2.7c.2.6 1.9 5.1 3.2 7.7.3 2.6.4 7.2.1 8.7-.4 2-1 4-1.6 6.2-.3.8.2 1.6 1 1.8l7.9 2.3 8 2c3 .7 9.2 4.7 23.8 3.7l-8.5-50c-3.4.6-12 2.8-14 3.4z"/><path fill="#36343f" d="M330.8 303.6s-9.1 2.6-12.8-1c.8 3 .5 3.7 1.3 5l4.6 7.5 8.3-8"/><path fill="#231e25" d="M338.8 335.3c.6-4.5.8-8 1.7-12.2-2.5-6.6-4.6-14.3-6.9-21.4l-.8.4c1.5 6.8 4.4 13 5.9 20.2 0 .1 0 .2-.2.2-2.2-.5-4.4-.8-6.5-1.4-.2-.1-.3 0-.1.2 1.7 1.7 7.3 1.9 7.2 2l-1.5 16.6.7.3.5-4.9z"/><g fill="#231e25" transform="scale(1.4)"><circle cx="252" cy="213.9" r="1.3"/><circle cx="266.5" cy="216.1" r="1.3"/><path d="m265.4 216.7-13-2a.7.7 0 1 1 .2-1.5l13 2c.4 0 .7.5.6.9 0 .4-.4.7-.8.6z"/></g><g fill="#231e25" transform="scale(1.4)"><circle cx="253" cy="219.3" r="1.3"/><circle cx="267.4" cy="221.5" r="1.3"/><path d="m266.4 222-13-2a.7.7 0 1 1 .2-1.5l13 2.1c.4 0 .7.4.6.8 0 .5-.4.7-.8.7z"/></g><g fill="#231e25" transform="scale(1.4)"><circle cx="253.9" cy="224.7" r="1.3"/><circle cx="268.4" cy="226.9" r="1.3"/><path d="m267.3 227.4-13-2a.7.7 0 1 1 .2-1.5l13 2c.5.1.8.5.7 1 0 .3-.5.6-.9.5z"/></g><g fill="#231e25" transform="scale(1.4)"><circle cx="254.9" cy="230.1" r="1.3"/><circle cx="269.4" cy="232.2" r="1.3"/><path d="m268.3 232.8-13-2a.7.7 0 1 1 .2-1.5l13 2c.5.1.7.5.7.9-.1.4-.5.7-.9.6z"/></g><g fill="#231e25" transform="scale(1.4)"><circle cx="255.9" cy="235.4" r="1.3"/><circle cx="270.4" cy="237.6" r="1.3"/><path d="m269.3 238.2-13-2.1a.7.7 0 1 1 .2-1.5l13 2.1c.4 0 .7.5.6.9 0 .4-.4.6-.8.6z"/></g><g fill="#231e25" transform="scale(1.4)"><circle cx="265.1" cy="211.1" r="1.3"/><path d="m264.7 212.2-11 7.2c-.3.2-.8.1-1-.2a.7.7 0 0 1 .2-1l11-7.2c.3-.2.8-.2 1 .2.2.3.1.8-.2 1z"/></g><path fill="#231e25" d="m372 304.7-15.3 10.1a1 1 0 1 1-1.1-1.7l15.3-10.1a1 1 0 0 1 1.1 1.7zm1.6 7.7-15.4 10a1 1 0 1 1-1.1-1.7l15.4-10a1 1 0 0 1 1.1 1.7zm1.5 7.6-15.4 10.1a1 1 0 1 1-1.1-1.7l15.4-10.1a1 1 0 1 1 1.1 1.7z"/><g fill="#231e25" transform="scale(1.4)"><circle cx="257.2" cy="240.7" r="1.3"/><path d="m269 233.7-11 7.2c-.4.3-.8.2-1-.2a.7.7 0 0 1 .1-1l11-7.2c.4-.2.8-.1 1 .2.3.4.2.8-.2 1z"/></g><path fill="#231e25" d="M381 335.3c-.3 0-.5-.2-.5-.5l-4.5-1.7-3.8-1-4.2-.2-2.6 1.2-2.3.9-1 1-.9 1.1a8 8 0 0 0-1.2 2.5c-.9 2.3.3 3.1 1.8 4.5l.4.2a3 3 0 0 0 3.3-1.7l1.2-2c.5-.8.8-1.6 1.1-2.4h.1l-.3 3c0 2.2-.3 4.3-.5 6.5v.7c0 .2.2.3.3.3h1.6c.2 0 .3-.1.3-.3a950.2 950.2 0 0 0 .5-12.2c.1-.2.3-.2.4-.1.5.3 1 .7 1.2 1.2 1.6 3.2 3 6.4 4.3 9.7 0 .3.2.4.5.3l1.5-.5c.3 0 .4-.2.3-.5a43 43 0 0 0-2-4.7l-1.1-1.7c-.2-.2-.1-.3 0 0l.7.7c.7.7 2.1 1.4 3.1.8 1.9-1 3.5-3 2.3-5zm-14.8 1.5-2.6 4.8c-.4.7-1.2.5-1.8 0-1-1.2-1.2-2.2-.1-3.4 1-1 2-1.9 3-2.4a39.1 39.1 0 0 0 2.4-1.2l-1 2.2zm12.2 2.5c-.2.2-.4.2-.6 0l-4.8-4.6c-.3-.3-.3-.4.2-.3l4.5 1c.8 0 1.4.4 2.1.9l.2.3c0 1-.5 2-1.6 2.7z"/><path fill="#f4e7de" d="M276.8 316.5c-1.5 4.2-4.1 7.5-6.6 11.1a22 22 0 0 0-2.3 4.6l-3.4 10a239.8 239.8 0 0 1-12.4 30.8c-2.8 5.8-6.5 10.8-12.9 13-5.8 2-11.7 3.7-17.6 5.5-1.4.4-3.2 1.2-5.4 2.4l4.7-.8c2-.4 4.1-1.5 6.3-2l.2.1v.3c-.2.4-.6.6-1 .8a128 128 0 0 1-12 3.2l-3.6.4a.7.7 0 0 0-.2 1.3c4.2 1.1 7.6 1 12.1-.1s8.7-1 13-1.3c1.7-.1 3-.7 4.4-1.4l.2.1v.2a117 117 0 0 1-11.3 5.4 3.5 3.5 0 0 0-2.3 2.4v.4c0 .5.5 1 1 1 .9-.1 1.8-.2 2.7-.5a61 61 0 0 1 10.6-2.2c4.3-.6 8.3-2.4 12-5.4 3.5-2.9 2.6-6.3 4.3-9.9 5.5-11.3 11.9-22 19.2-32.2 4.6-6.4 8-11 10.5-16.4 1.4-3.2 2.5-7.2 3.3-12 0-.7.3-1.3.5-2l1.9-5-14.4-5.8-1.5 4z"/><path fill="#dbb5b6" d="m267.5 333.3-3 9a239.8 239.8 0 0 1-12.4 30.7c-2.8 5.8-6.5 10.8-12.9 13-5.8 2-11.7 3.7-17.6 5.5-1.4.4-3.2 1.2-5.4 2.4l4.7-.8c2-.4 4.1-1.5 6.3-2l.2.1v.3c-.2.4-.6.6-1 .8-4.4 1.4-8.3 2.4-12 3.2l-3.6.4a.7.7 0 0 0-.2 1.3 23 23 0 0 0 12.2-.1c4.4-1.1 8.6-1 13-1.3 1.6-.1 2.9-.7 4.3-1.4l.2.1v.2a117 117 0 0 1-11.3 5.4 3.5 3.5 0 0 0-2.3 2.4v.4c0 .5.5 1 1 1 1-.1 1.8-.2 2.7-.5a61 61 0 0 1 10.6-2.2c4.3-.6 8.3-2.4 12-5.4 3.5-2.9 2.6-6.3 4.3-9.9a233 233 0 0 1 9.2-17c-.7-11.7.7-24.1 1-35.6z"/><path fill="#dbb5b6" d="M214.4 395.5c.5-1.1 1-1.7 1.8-1.6l4.7-.8c2-.4 4.1-1.5 6.3-2a.2.2 0 0 1 .3.4c-.3.4-.7.6-1.1.8-4.4 1.4-8.3 2.4-12 3.2z"/><path fill="#403e4f" d="M314 240.6c0-1.6-5.5-4-9.5-3-3.8 1-8 3.5-9.6 6a211.1 211.1 0 0 1-16 33.2c-5.2 13.1-24 16.2-21.2 28.6 1.5 7 5.2 13.7 12.4 17.6-.8 1.6-6.2 1.8-7.7 3-1.2 2.8 3.2 7.2 5 8.4 4.8 3.6 10.4 3.8 16.2 2.4 5.6-.5-.3 4.4 9 4.1 2-1.1 1.3-9.6-1.4-11.4 11-.2 17.2-9 17.4-11.6 1.6-9.8-.6-15.2 0-21.8 2.7-29.5 11.8-33.8 5.5-55.5z"/><path fill="#343443" d="M306.2 308.7c-1.3-3.8-.4-9.3 0-11.8 1.3-7 1.3-26.6 4.9-28.9 2.3-3.2 3-7.3 3.7-10.2 0 0 .2 4.1-2.6 16.7-2.3 12.3-4.7 22.5-6 34.2zm-4.4-69.7c.1.2-4.4 1.9-8.6 11.8a83.7 83.7 0 0 1-9.3 21.2c-5.5 9.3-12.6 19.5-22.5 24.1-.2.9-1 .2-1.4.9-.7 0 3.2-4 4.6-5.1 12.7-9.2 18-22.7 24.6-37 3.1-6 4-13.3 12.6-16zm-33.5 85.8c.8-.6 1.5-1.2 1.8-1.8 5.2-1 .2-6.9.2-9.3.2-11.8 4.2 3.7 4.9 7 1 7.5 15 6.2 10.6 8.5-11 1.2-11.4-7.4-18.5-2.4-.3 0-.3-.3-.3-.6.3-.4 1-.2 1.3-1.4z"/><path fill="#fff" d="M361.7 261.4c0-1-1.2-1.9-1.7-3-.4-1.2 0-2.5.5-3.5.5-2-3-2.7-3-6.3.6-3.3-5-2.2-3.5-5.6 1.4-4.5-3-3.5-6.1-3.2-2.5.7-4.4-1.2-6-2.7-.7-1.6.7-4.6-1.2-5.5a12 12 0 0 1-4 1c-4.4.2-10.6-1.3-13.3-2.1-2-.7-4.3-3.4-5-.8 0 1.9-.6 3.5-2 4.2-.5.3-5.9 2.6-8.5 1.8-1.6-.5-3.4-2-4.5-.6-1.8 1-.4 4 1.6 4.3.3.2 1.4.8 1.1 1-1.1 1.3-.4 3.2.4 4.5 2 3.3 3 2.5 2.6 6.6.2 1.4 1.5 2 2.2 2.9.9 1.2 2 1.7 3.4 2 .6 2-.7 3.9 1.7 5 6 1.5 2.9 3 6.5 6.4 1-.2 2.8.8 3.8.3.9 2.3 1 2.3 3.4 2.7 3.3-.6 4.9 3.5 9.7.8 2.6 2 5.5 1.7 8.6 0 2.2.6 7 .8 7.1-2.9.3-.6 1.1-.8 1.7-.5 3.4.5 3-2.4 4.2-3.2-1-1.4.2-2.6.3-3.6z"/><path fill="#010105" d="M338 242.9c1.7 1.4-.3 3.5-1.9 2-1.7-1.4.3-3.5 2-2zm3.8 7.9c1.9 1.1.2 3.6-1.6 2.6-1.8-1.1-.2-3.6 1.6-2.6zm4.2 8.6c2.2 1.3.4 3.8-1.6 2.5-2-1.3-.3-3.8 1.7-2.5z"/><path fill="#e6cdd7" d="M325.7 237.7c-2.2.5-9.6-1.4-8-3.9a44 44 0 0 0 11.2 3.4c1.6-.2 3 .1 4.5.5 1.4-1 2.4-.4 4.2-.2 1 .2 1.6-.3 2.4-.5 2 0 .7 1-.2 1.3-.5.4-.3 1.3-1.1 1.4-.7 0-2 .5-2.7.1a1 1 0 0 0-1 0c-1.5.6-1.4-2.4-2.9-1.5-2.8 2.4-3.7-1-6.4-.6zm-13 2.4c0-.2.1-1 .3-.5 1.3.8.7 2.4 1.2 3.7.7 1.4 1.5 2.6 2 4.1.3 1 1.4 1.5 1.5 2.6l.6 2.6c-.2 1.3-1.5-2.8-2.4-2.7-.7-.3-2.4.3-2.5-.8.2-.7 2 .4 2.2-.3-.7-1.2-1.8-2.1-1.6-3.6-.3-1.3-.5-3.4-1.9-4-.6-.4-4.8.8-2.9-.7.4-.4 3.5.4 3.5-.4zm35.9 2.9c.6 1.8 1.8 3.4 2.6 5 .8.6 4.6 4.4 2.8 4.7-1.2-1.7-3.7-2-4-4.4-.4-2.4-1.9-4.4-3-6.3.2-1.2 1.6.4 1.6 1zm-27.2 13.8c-1.2-.8-.9-2.2-1.5-3.3-.3-.4.5-.6.7-.3.9.6.7 1.5 1.1 2.4.7 1.5 2.2 2.6 2.9 3.8-1.1.2-2.5-1.8-3.2-2.6zm35.8 1.7c-.6 1.5-1.4-3.6-2.4-4.2-.2-.3.2-.6.6-.6.8 0 1.2.6 2 0 .1 0 .2 0 .3.2 0 .6-1 .9-.5 1.6.5 1 .4 2 0 3zm.6 3.2c0 .5-1.5 1.3-1.9 1.6-.5.7-.7 1.5-1.8 1.1-1.4-.8 2.8-2.3 2.8-3.9.7-1 1.5.6 1 1.2zm-30 3.6c.7-1.8.1-3.1-1.6-4-1-.9 1-1.3 1.5-.4 1 1.6 2.6 2.6 4.3 3.5 1 1.3 5.4-.3 5 1.3-.9.4-1.7 1-2 2-1 1.2-1-1.1-1.7-1.4l-2.6-1.3c-1.2-.6-2 0-2.5 1-.2.4-.4.4-.7.2-.3-.3.2-.6.3-1zm23.3.9c-.7.3-2.8.5-1.5 1.6.7.3.7.7 0 1-2.4 1.3-6-4.3-7.5-1 .1.6.7 1.8-.5 1.6-.6 0-1.4 0-1.5-.8l-.6-1.8c-.2-.5.4-1 1-.8 1 .3 1.9-.1 3 .2 1.7.8 3.4-.3 5-.6 1 .2 2.4-.4 3.1.1.1.5-.2.4-.5.5z"/><path fill="#f6f2ee" d="M332.3 174.2c0 .3 1.1 13.3-7 21.8-2.7 1.4-9.5-.3-12.3-1.9-4.4-5.8-4.2-12-3.8-21 2.2-3.4 9-4.7 13.8-3.3s9.3 4.4 9.3 4.4z"/><g transform="scale(1.4)"><path fill="teal" d="M234.8 123.7s-1.1-.7-3.7-1c-2.6-.4-5.1 0-5.1 0s-1.6 1.7-2.3 4.4c-.6 2.2-2.2 8.5 1.7 12.2l5.7 1c3.7-2.5 4.2-8.4 4.3-9.8.4-3-.6-6.7-.6-6.8z"/><ellipse cx="228.5" cy="132.1" fill="#004e58" rx="2.7" ry=".7" transform="rotate(-82.3 228.5 132)"/></g><path fill="#f6f2ee" d="M370.8 208.8c-.3 0-9-1-10.9-4.7-.6-5 1.3-15 4.7-18.5 3.2-3.5 12.2 0 14.6 1.8 2.3 1.8 4.2 9 4.2 9s-5.1 11.7-12.6 12.4z"/><g transform="scale(1.4)"><path fill="teal" d="M268.6 134c-.1-.4-.3-1-3-1.7-2.8-.7-5.4.6-5.5.6 0 0-1 1.3-1.7 3.4a27 27 0 0 0-1.5 6.4c0 1 0 3 .7 3.8.8 1 2.3 1.5 2.7 1.6 1.7.5 3.1.5 3.1.5 1.7-.8 4.3-4.8 5-7.4.8-3 .7-5.7.2-7.2z"/><ellipse cx="260.7" cy="140.9" fill="#004e58" rx="2.4" ry=".6" transform="rotate(-74.2 260.7 141)"/></g><g fill="#87cefa" transform="scale(1.4)"><ellipse cx="224.2" cy="131.5" rx="1.8" ry="1.2"/><ellipse cx="258.5" cy="140.1" rx="1.8" ry="1.2"/></g><g fill="#fff" transform="scale(1.4)"><ellipse cx="229.3" cy="127.4" rx="2.5" ry="1.1" transform="rotate(-81.7 229.3 127.4)"/><ellipse cx="262.2" cy="135.9" rx="2.2" ry=".9" transform="rotate(-74.7 262.2 136)"/></g><path fill="#f4e7de" d="M334 178.2c-.2-.1.2-9.2-8.4-11.6-7.6-2.1-15.4 2-17 4.3 7.2 1 25.3 7.3 25.3 7.3z" class="skincolor"/><g fill="#4c3739"><path d="m308.4 171.1-.2.5c-.5 5 1 12 1 12-.2-2.5 1-6.3 1.8-8.6.5-1.3 1.4-2.2 2.6-2.4l2.2-.4-5.8-2.2-1.6 1.1z"/><path d="M311.5 172.9c.4 0 23 8.2 23 7.2 0-1-.7-4.4-1.1-4.7-.4-.2-18.5-6.2-20.9-6.2s-4 2-4 2l3 1.7z"/></g><path fill="#dabaad" d="M333.7 171.3c-2-1.4-4-2.4-6.3-3.1-.1 0-.2-.1-.1-.2v-.2s0-.1.1 0c2.5.4 4.7 1.5 6.6 3 .1.1.1.3 0 .4h-.1c0 .1-.1.1-.2 0z"/><path fill="#f4e7de" d="M363.3 186.6s3-4.8 11.6-3.2a15 15 0 0 1 11.6 11c-3-2.4-23.2-7.8-23.2-7.8z" class="skincolor"/><g fill="#4c3739"><path d="M381 192.9c.5 1.2.7 2.7.5 4.4-.2 2.2-1 4.2-2.5 6v.1h.3l7.5-8s-.1-.9-.6-2.2l-5.2-.3z"/><path d="M362.4 187.7s20.2 7.6 24 7c.2-1.6-1.5-4-1.5-4s-18.6-6-19.2-5.7c-2.1 1-3.3 2.7-3.3 2.7z"/></g><path fill="#dabaad" d="M373.4 180.8c-2.3-.3-4.7-.3-7 .1l-.3-.1v-.3c2.5-.7 5-.8 7.3-.3.2 0 .3.2.2.3v.2h-.2z"/><path fill="#444" d="M412.7 173.8c-.6-18-6.2-37.2-17.4-51.6A63.3 63.3 0 0 0 349 99c-8.8.6-16.3-2.2-26.2.4a60.7 60.7 0 0 0-39 26.6c-13.7 21.5-22.2 50.8-7.7 74.6 1.2-3.6-2-18.2 11-37.3.8 3.8 4.6 5.8 6.1 8.4 2.5 8.4 10 11.2 10.3 11.5 2 6.2 2 5.3 4 8.3 3 4.8 5.9 6.3 8.2 6.8a27 27 0 0 1-4.8-9.5 35.1 35.1 0 0 1-.9-19.7c8-11.6 17.3-22.6 25.9-33.6 3-3.7.8 2 .8 3.6-1.3 7.6-.3 15.5.9 22.8.5 2.8 1.6 5.2 2.9 7.3.4.6 1.4.8 2.5 1v-3.6c1 1 1.6 2.6 2.2 4 5 1.2 10.2 3 15.4 3.2 2.2-4.4 3.6-9 4.9-13.7.3-.4.5-.4.5.2 0 4.8-.6 9.3-1.8 13.6 0 .3.4.5.5.4.3 0 1.1 0 1.3.2 3.2 2.5 8.1 2.8 11 5.4.2.4.7-.3.9-.4a61 61 0 0 1 8.1 4c2.1 3.6-.8 9.5-1.8 13.5-2.6 5.3-5.5 16.2-11 18.6-.3 0 0 .5.1.4 1-.2 5.8-4 6.7-4 .7 0-4 6.2-5.3 6.7-.5.4-2.4 2.5-1.5 2a31 31 0 0 0 18.8-13.6c1.1 5.3-3 13.4-5.5 18.4-.6.8-.4 1 .6.7 9.9-4.7 16.2-16.3 17.7-26.3.2-.2 1.2-10 1.7-9.7 1 2.2 1.2 12 1 14.6a25.1 25.1 0 0 1-5.7 14.9c1.8-.7 15.4-8.3 10.9-45.9z"/><path fill="#fffeff" d="M290.8 130.2c-.1-1 1.9-3.6 3-2.3.6 1.8-2.6 5.8-3 2.3zm29.2-29.7c2.8.3-5 2.3-11.5 5.3-7.4 3.5-12.2 7.2-14.2 8.6-.3-.2 2.8-3.2 7.7-6.3a59.1 59.1 0 0 1 18-7.6zm-17 36.1c-1-1.3.4-4.2 2-4.7 1.3 0-.4 6.4-2 4.7zm55.2 3.9c-.2 3.3-2.7 3.2-2.5-.2.2-3.3 2.8-3.1 2.5.2zM379 142c1.1 4.9-2.6 5.7-3.6.7s2.7-5.7 3.7-.7zm-18 2c-.8.1-.6-1.3-.7-1.8-.4-3.9 2.2-4.2 2.5-.3.4 1.9 0 2-1.7 2.1z" opacity=".4"/><path fill="#2b121c" d="M338.8 169.6c-3.6-7.4-3.2-16.3-3.1-24.7.3-3.3 1.1-7.2 1.8-10.3 0-.5-.1-.6-.5-.3-9.2 11.1-18 23.4-26.5 35.4-2 6.5.5 22 3.9 26.7-5.3-5.3-5.2-16-5.4-22.1a95.6 95.6 0 0 1 7-44.4 42.7 42.7 0 0 1 10.3-15c6.4-5.2 12.6-7.2 20.3-5.6.3 0 .4.4.2.5-21.7-1.4-33 22.1-35.2 40.5.3 1.8 2-4 2.5-4.6 2.8-6 5-10.2 8-14.9.1-.3.8-.4.6.1a93.2 93.2 0 0 0-12 27.5c5-7 10.9-13.5 17.7-19 .1-.2.4 0 .3.1-6.6 8.5-18.5 15.6-18.6 27.4-.1 1.5.2 1.7 1.1.4a400 400 0 0 1 29.4-38.3 64.9 64.9 0 0 0-3.5 27.5c.2 4.5.5 8.1 2.8 12.8 0 .2-1 .2-1 .3zm52.6 39.2c-4.8 6-7.3 8.6-14.2 10.7 1.8-1 4-1.9 4.3-2.3 14.6-9.3 17.5-29.9 17.1-45.4a68.4 68.4 0 0 0-16.3-45.7 40.1 40.1 0 0 0-21-14.7c-1.5-.5-3-.4-4.4-.7v-.2c12.7-1.2 23 7.7 29.2 17.8a77.4 77.4 0 0 1 13.2 47.6c-.2 9-.5 10.8-2.1 18-1 4.8-2.7 10.9-5.8 15zm-87-86.3c-3.8 4.7-7.3 11-9.4 16.6-2.7 6.6-3 13.4-5.3 20.1l-3 4.8c1.4 3 5.2 7.3 6.6 7.7a59.4 59.4 0 0 1 3.2-32.9c1.8-5.2 5.2-10.7 8.2-16 .3-.6.2-.7-.3-.3z"/><path fill="#444" d="M280.7 157s-6.6 24.6 3 40.3c0 0-3.8-6.6.3-28.1 1-5 2.5-10.5 4.8-16.4"/><path fill="#2b121c" d="M379.7 207.4a85.3 85.3 0 0 0 3-65.9c.4-.5 1 1.7 1.3 2 7 20 7.4 44-2.8 63-.4.7-1.7 3.2-1.5 1zm-15-33.1c-.1.1-.5 0-.5-.4 1.2-4.3 1.8-8.8 1.8-13.6 0-.6-.2-.6-.5-.2a74.3 74.3 0 0 1-5 13.7c-.2-.5-.2-1 .1-1.7 1-2 1.6-4 2.3-5.9 2.4-5.5 3.2-11.7 4.4-17.4-.7 8.5.6 16-2.6 25.5z"/><path fill="#2b121c" d="M377.9 179.5c-.3.3-.9 1-1 .1a41.3 41.3 0 0 0 5-22.2c1.3 6.6 0 15.9-4 22zM343.8 168c-1.2-1.7-.7 1.4-.5 2 .1.6-.5.1-.5-.2-.2-3.7-1.7-7.4-1.5-11 0-.7.7.3.7.6.3 4 2 8 3.7 11.4-1 .5-1.4-2.2-2-2.8zm-67.6 32.7a53 53 0 0 1-7.7-19.2c-1.1-7.7 0-22.7 3.8-30.4-2.4 9-4 23.6-3 30.6a78 78 0 0 0 6.9 19zm31-8.5c2.6 3.4 4.4 4.8 7.9 6.2a22 22 0 0 1-8.5-8.5 63 63 0 0 1-5-17.9 40.8 40.8 0 0 0 3.7 16.7 23 23 0 0 0 2 3.5z"/><path fill="#2b121c" d="M302.7 180.8s-4.4-5.2-3-15.1c0 0-.2 9.7 2.6 12l.4 3.1zm98.3 39.3c7.6-9.1 6.3-17.4 5.5-28.3-.2 0-.7 4-1 5.4-1.6 20.8-18.4 30.8-18.8 29.2a22 22 0 0 0 7.5-5.5 43 43 0 0 0 10.8-26.1c.5-4.2.7-11 1.7-12.8 5 26.8-2.5 37-5.6 38.1zm-28.6.6 6.6-7.9c.1-.2-2.4 1.8-2.6 1.7-.5.2-3.6 2.4-3.3 1.1 4.3-1.9 8.4-5.3 11-8.6-.4 2.5-2.2 5-4 7.8-1.5 2.5-4.4 4.1-6.4 5.4-.2.4-1.4 1-1.3.5zm-88.6-50s1.8-15.9 5.4-19.7c0 0-4.1 10.7-5 20.9l-.4-1.2z"/><path fill="#f4e7de" d="M302 183.2s-1.7-4.8-4-7.8a8.7 8.7 0 0 0-3.8-3.3l-1.8-.3c-1.4 0-2.7.6-3.9 1.6-3.7 3.4-5.3 8-4.8 13.6.4 4 5.6 8.9 10 12.6a9.6 9.6 0 0 0 8.3 2.3h.5l-.5-18.7z"/><path fill="#9a7978" d="M301.7 201.6a9 9 0 0 1-7.8-2.3c-4.4-3.7-9.5-8.4-10-12.3-.4-5.5 1.2-10 4.9-13.3 1-1 2.3-1.6 3.6-1.6l1.7.3c1.2.5 2.5 1.5 3.7 3.2a35 35 0 0 1 3.8 7.5s.3.6.6.5c.2 0 0-.5 0-.5 0-.1-1.7-4.9-3.9-7.9a9 9 0 0 0-4-3.4 5.6 5.6 0 0 0-6 1.4 16 16 0 0 0-5 13.8c.5 4.2 5.7 9 10.2 12.9a10 10 0 0 0 8.4 2.3c.1 0 1.1-.1 1.1-.3 0 0-.1-.4-1.3-.3z"/><path fill="#dbb5b6" d="M292 191.4c-.6-3.9 3.7-5.6 4-9 0-.1 0-.2-.2-.3a10 10 0 0 0-7.8 3.2 1 1 0 0 0-.3.4l-.8 3.4c0 .2-.3.3-.5.3a.4.4 0 0 1-.3-.3c-1.1-5.6-.9-11.2 4.8-14.1 3.1-1.6 6.1 5.6 6.5 7.5.3 1.6.6 2.9 1.1 3.7.1.2 0 .4-.1.5l-1.1.6c-.2 0-.3.2-.3.4-.3 1-.3 1.7 0 2.2a34 34 0 0 1 2.3 4.8.9.9 0 0 1-1 1.1c-2-.5-5.8-2-6.2-4.4z"/><path fill="#dbb5b6" d="M298 191.8h-4.2a.6.6 0 0 0-.3 1.2l4.8 2.6a.4.4 0 0 0 .6-.4l-.2-1.7c.4.6.5 1.1.4 1.6-.1.6-.5.9-1.2.6-2-.7-5.5-2.1-5.8-4.4-.3-2 1.4-4.7 2.7-6.1.7-.7.9-1.5 1.3-2.4a.5.5 0 0 0-.5-.7c-3.3-.1-6 1-8 3.5a1 1 0 0 0-.2.7 5 5 0 0 1-.7 2.7c0 .1-.2.2-.3.1l-.1-.1c-.8-3-1-5.5-.4-7.5a9 9 0 0 1 5-6.5c3-1.4 6 5.3 6.3 7.2.3 1.7.7 3.1 1.2 4 .1.3 0 .5-.1.6l-1 .4c-.3.1-.4.3-.5.6-.3 1.1.1 2.4 1.2 4z"/><g transform="scale(1.4)"><path fill="#fddad4" d="M246.7 155.6s-1 1.2-3.5.5c-2.5-.6-2.8-2.1-2.8-2.1l6.3 1.6z" class="lip"/><ellipse cx="244.5" cy="156.1" fill="#fff" opacity=".5" rx=".1" ry=".2" transform="rotate(-75 244.5 156)"/></g><path fill="#f2abaa" d="M336.7 215.4c-.2 1 1.2 1.4 2 1.6 1.6.5 5.2 1.8 6.4.8.4-.5.1-2.4.1-2.4-.6-1-3.6-1.6-5.8-1.4-1.5.2-2.6 1-2.7 1.4z"/><path fill="#d47e81" d="M339.6 214c.2.1 5.1 1 4.8 3-.2.9-.6 1-1.1 1 2.1.7 2.4-1.3 1.8-2.7l-.1-.2c-1.9-1-3.5-1-5.4-1z"/><path fill="#444" d="M327.1 119.3c-2.4-2.6-17 .6-19.9 4.8a30 30 0 0 1 13-11.4c-.9-1.4-5.8-.8-12.3 1.4-11 5-21.7 19-28.9 36.7-9.1 24-6.5 40.4-6 41.5 1.5.7 3.2 1.6 3.6 1.5a114 114 0 0 0 13.2 7.2c.5.6 1.9 1.4 2.8.8 1.4.9 3.2 1.5 5.5 2 2.6 3 11.5 4.6 14.9 6.3.2 0 .4 0 .3-.2-8.5-21-7.2-43.7-3.2-62 1.8-3.4 3.3-9 6-14.6a45 45 0 0 1 11-14z"/><path fill="#2b121c" d="m283.7 198-2.2-1.7c-3.5-20.6 1.5-37.9 8.5-54.6a40 40 0 0 1 7.4-11.4c-1.8 3.2-4.6 6.8-6.5 11.5-6.8 17.7-12.5 37.6-7.2 56.2zm31.9-63.2c-2 4.8-5 13.1-6.8 18 .3-3.1 3.4-13.3 6.8-18zm-7 21.9c-1.6 17.6-2.1 36.2 4.6 52.7-6.7-10.7-7.2-26.3-6.5-40.3a63 63 0 0 1 1.9-12.4zm-5.9 49.7a8 8 0 0 1-4.6-2.6 69 69 0 0 1 0-30.8c-.5 10.8-1.5 23.2 4.6 33.4zm-10.1-4.6c-1 .1-1.9-.2-2.5-1-2.2-2.5-1.6-13.6-1.3-16.8.6 3.8 1 14.8 3.8 17.8z"/><path fill="#444" d="M410.6 160.9c-2.2-12.7-10.2-29.5-12-28.8 1.7 4.7 1.4 11.6 1.2 16.6-.9-5.2-9-11.8-10.6-11.5 3.3 6.7 4.6 21.6 3.7 35.7-1.4 10.7-2.3 19.3-8.2 29.8-4.7 6.7-9 13.8-16.5 17.8-.7 1 2 1.2 2.7 1.2 8 2.4 17.2 1.8 25.1-.5 4.6-2.3 6.5-7.7 7.7-10.5-.5 3.6-2 7-4.6 9.4-.6 1.2 5.7-1.1 6.7-1.5 9.4-14.2 7.4-38.9 4.8-57.7z"/><path fill="#2b121c" d="M393 170.6a60.3 60.3 0 0 1-22.8 50.2c-.5.5.1.9.7 1-.7 0-3.3-.5-2.7-1.3 7.6-5 12.2-12.4 16-18.5 7.3-14.2 6.8-18 8.9-31.4zM377.3 223c-1.1-.3-2.7-.3-3.8-.5 5.5-2 10.5-11.4 12.9-13.7-2 5.3-5.1 10.1-9.1 14.2zm14.2-.8a28 28 0 0 1-8.3 1c7.3-1.3 10.8-7.2 14.4-13a34 34 0 0 1-6.1 12zm-48.1-61.9c-.4-.6-13.6-8.8-15.1-9.4 8.3.1 12.2 3.6 12.9 4.5.7 1 2.2 5 2.2 5zm23.4 6.5c.5-.4 13.8-2 15-1.8-5.7-3.4-10.1-2-11-1.5-1 .5-4 3.3-4 3.3z"/><path fill="#403e4f" d="M381.7 247.7c-.2-.2-1-2.7-1.4-3.3.7-.1.7-2.3 0-2.3.6-1.9 0-5 0-7.5 1-.1.4-1.7.3-2.4 0 0 0-5.5-.2-6.1.3-.6 1-2.2 0-2.1a27 27 0 0 0 0-7.7s.9-2-.1-1.9c.4-1.7.2-4 0-5.9 0-.8.3-2.7-1.2-2.3-.2 1.3-.2 2.8-.1 4.2l.1 3.8c-.1 1-1.2 1.7-.1 2.1v7.5c-.2.5-.8 1.6 0 2.2-.5.4.2 5.2 0 6.4v2.3a42 42 0 0 0 .2 7.3c.2.3-.3 2.1-.2 2.4l-1 2.8a4 4 0 0 0-.3 1 47.7 47.7 0 0 0 1.8 10.7c.7 0 2.6-9.6 2.2-11.2z"/><path fill="#343443" d="M379 256.7c1 3.5 1.2-1.3 1.5-2.5.3-2 1.2-4 1-6 0-.6-.3-1.2-.5-1.7.5.6.6 1 .7 1.4.2 1.3-.2 3.1-.4 4.5-.3 1.3-1.3 6.7-1.7 6.5-.3-.1-.5-1.2-.6-2.2z"/><path fill="#eeeae7" d="M379.6 216.7c.3 2.7-.1 10.3-.3 2.7 0-.7-.3-3 .3-2.7zm-.2 9.7c.3-.2.4 5.7.1 5.6a15 15 0 0 1 0-5.6zm.2 14.7c-.2.2-.5-5.6-.1-5.8.3-.1.2 5.7 0 5.8zm-.8 6.3c-.1.4-.5 1.6-.7 1 .1-.8.5-2.3.8-2.8.3-.5.6-.2.5.2l-.6 1.6zm.8-40.4c.3 2.8 0 10.4-.3 2.8 0-.6-.2-3 .3-2.7z"/><path fill="#fff" d="M369.8 193c6 1.4 9.6 7.4 8 13.3-1.5 6-7.5 9.7-13.5 8.3-6-1.4-9.5-7.3-8-13.3 1.5-6 7.6-9.7 13.5-8.3z" opacity=".2"/><path fill="#403e4f" d="M380.4 203.3c-.3-.4-.8-.7-1.5-.9h-.3c-.4-4.9-3.9-8.9-8.7-10a11.9 11.9 0 0 0-13.7 7.3l-.5 1.5a11.4 11.4 0 0 0 11.2 14c5 0 9.7-3.2 11.3-8.3.9.1 1.6-.2 1.8-.8l.5-2-.1-.8zm-15.8 10.3a9.8 9.8 0 0 1-7.4-12.2 10.5 10.5 0 0 1 12.4-7.6 9.8 9.8 0 0 1 7.3 12.2 10.5 10.5 0 0 1-12.3 7.6z"/><path fill="#fff" d="M379.5 205.2c.2-.3.4-1 .3-1.4 0-.3-.2-.5-.5-.5.4.4.1 1.3.2 1.9z"/><path fill="none" stroke="#fff" stroke-linecap="round" stroke-linejoin="round" stroke-miterlimit="10" stroke-width=".3" d="M375.6 196.8s-1.2-2.1-4.5-3.3"/><path fill="#343443" d="M380.3 244.4a5 5 0 0 1-1.4 0c-.3-.4-.7-1-.7-1.3 0-.5.5-1 1-1.2.2.2.8.1 1.2 0 .4 0 1 .7.9 1.2 0 .8-.7 1.3-1 1.3z"/><path fill="#eeeae7" d="M379.2 242.4c-.4.2-.6 1 0 1.2.2 0 .3-1 0-1.2z"/><path fill="#343443" d="M380.3 234.7a5 5 0 0 1-1.4 0c-.3-.4-.7-1-.7-1.3 0-.5.5-1 1-1.2h1.2c.4 0 1 .7.9 1.2 0 .7-.7 1.3-1 1.3z"/><path fill="#eeeae7" d="M379.2 232.7c-.4.2-.6 1 0 1.2.2 0 .3-1 0-1.2z"/><path fill="#343443" d="M380.3 226.2a5 5 0 0 1-1.4 0c-.3-.4-.7-1-.7-1.3 0-.6.5-1 1-1.3.2.2.8.2 1.2 0 .4 0 1 .8.9 1.3 0 .7-.7 1.2-1 1.3z"/><path fill="#eeeae7" d="M379.2 224.2c-.4.1-.6 1 0 1.2.2-.1.3-1.1 0-1.2z"/><path fill="#343443" d="M380.3 216.4a5 5 0 0 1-1.4 0c-.3-.4-.7-1-.7-1.3 0-.5.5-1 1-1.2.2.2.8.2 1.2 0 .4 0 1 .7.9 1.2 0 .8-.7 1.3-1 1.3z"/><path fill="#eeeae7" d="M379.2 214.4c-.4.2-.6 1 0 1.2.2 0 .3-1 0-1.2z"/><path fill="#403e4f" d="M408.4 129s7.1-9.4 7.3-10c2.7-10.2-11.2-20.9-19.2-25.5-12.8-6.2-11.6-1.2-19 6.4-5.6-2.9-16.6-9-20.8-2.5-4.1 15 19.7 36.9 33.1 46.8 6 4.5 19.4 9.2 23.8 4.7 5.4-5.5-5.2-20-5.2-20z"/><g fill="#343443"><path d="M416.1 117c0 1.4-.5 2-.5 2 0-3-1.5-6.1-3.1-8.7a36.4 36.4 0 0 0-10.8-11.8c-7.7-5.1-12-6.5-15.8-6.3-1.2 8 20.3 31.1 29.3 27.4-2.7 3.9-5 7.5-7.3 9.8-9.5 9.3-15.7 6.5-16 6.2-3.8-4-9.9-6.4-13.2-11.3-3.6-4.1-8-11.5-8.6-17.3-.5-3.9-.2-5-1.9-6-2.9-2.2-11.5-1.6-11.3 1.6-3.5-10.5 10.9-9.2 17.8-4 1.2.8 2 1.6 2.8 1.4 2-1.3 5.2-7.8 9-9.1a33 33 0 0 1 19.4 9.2c5.4 4.8 10.3 10.5 10.2 16.9z"/><path d="M413.4 138.3c0 .2-.7 1.2-.7 1.2 5.3 11.7-4.5 12.2-13 8.8a88 88 0 0 1-24-17.3 88.9 88.9 0 0 1-14.4-17.8 27.2 27.2 0 0 1-4-16c-6.8 16 28.6 49.8 47.1 53.2 4.8 1.3 8.3.2 9.8-2.4 1.3-2.3 1.1-6.3-.8-9.7z"/></g><path fill="#251416" d="M417 127.3c-1.4-.7-7.9 2.4-8.8 2-.3 0-.3-.7-1.5-1-1-.2-.9.2-1.8 0-2.3-1.5-3.3-6.7-6-8-2.1-.5-3 4-3.6 4.3A35.5 35.5 0 0 1 381 113a17.6 17.6 0 0 1-3.7-12.9c-3.7.2-5 3.2-4.9 6.2a27 27 0 0 0 5.8 13c4 6 11.4 10.2 14.9 12.3-1 2.7-.7 3.8.3 4.4 2 1 6.5-.5 9.5-1.8.5.6 1 1.2 3.2 1.1 2.4 2.1 4.8 6.4 6 5.8.5-.2 1.4-2.2 1.4-2.4 1.3-3.4 5.4-8.4 3.6-11.5z"/><path fill="#352427" d="M417 128c-2.8-.6-6.4 2.6-8.7 2 .3-.3-1.2-1-1.9-1.1-.4 0-.7.2-1.2 0-2.4-1.7-4.3-7-6.1-7.9-1-.5-2-.1-3.1 3.2-1.6 1.2-4.8-1.5-6-2 .4 1.3 6.5 2.9 5.1 4.1-.6 1.4-1.3 2.8-1.6 4.1 0 .4-1 5.4.9 5.8.9.1 2.6 0 5.6-.9-1.8-.2 1.7-1 2.3-1.3.7-.2.5-1.6.6-2 0-1-1.4-.9-2-1.4-1.6-1 1-3 1.9-.6.4 1.2 1.6 2.1 1 3.5-.2 1 1.6.8 2 .3 2 .3 2-2 3.1-2.7.6 0 .4.9 1 .9 3.1-.2.4 1.9-.9 2.3-.7.2-1.5 0-2.2.4-1.4.6 3.7 3.5 2.1 3.7.8.7 3.6 4.7 4 .8-.6-4 3.7-7.3 4.1-11.3z"/><path fill="#f0f0f0" d="M445 209.7a.3.3 0 0 0-.3-.4h-1.6a37.4 37.4 0 0 0-11.7 4.7c2.6-2 5.6-3.5 8.5-5l6.3-3.9a12 12 0 0 0 3.9-4.3.3.3 0 0 1 .5 0l.8 2.6a.3.3 0 0 0 .5.2c2.4-1.4.5-5.3-.8-6.9l-3-3.7c-2-2.3-2.7-4.8-1.8-7.6 2.2-6.5 12.1-7.2 17.5-6.3a31 31 0 0 1 18.6 10.2c2.4 2.7 4.2 6.2 2.5 9.6 0 .2 0 .4.2.5 2 1.3 3.7 3 5.2 5 2 2.8 2.8 7 1.8 10.2-2 6.4-10.4 7.9-16.3 7-.2-.1-.6 0-.7.2-4.8 5.8-13.7 5.7-20.2 3.5-.5-.2-1-.1-1.4.2a21.1 21.1 0 0 1-7.5 3.8 65.8 65.8 0 0 1-12.4 2.6c-.7 0-1.1.8-1.6 1.2-1 .9-1.1 2-.5 3.2l.4.2c1.6.2 3.2 0 4.9-.4a34.2 34.2 0 0 1 9.2-.7c-1.3.2-2.7.2-4 .5-2.5.4-5 1-7.6 1.2a18 18 0 0 0-4 1c-.5.1-1.2 0-1.7-.2l-5.7-2.1c-1.8-.7-3-2-3.6-4-1.2-4-.5-7.4 2-10.3 2-2.3 5.6-4 8.6-5.5a48 48 0 0 1 4.6-2 1539.2 1539.2 0 0 0 10.3-4.2v-.1z" opacity=".5"/><path fill="#f4e7de" d="m403 257-2.8-4.4c-.7-1.1-1.5-1.4-2.8-.9l-2.2 1.2c-.6.6-1.3 1-1.9 1.3a12 12 0 0 1-3.8 1c-.5.1-.8.5-.7 1 0 .4.2.7.6.9 1.3.7 3.4.8 4.6.4l4-1.4c.3 0 .6 0 .8.4l2.9 5.2 3.4-1.8-.8-1.1c-.5-.6-1-1.2-1.3-1.8z" class="skincolor"/><path fill="#393b3f" d="m437.3 245.9 1.7 3.8-64.4 27.6s-1.5.5-2.3-1 .9-2.5.9-2.5l64-28z"/><path fill="#e0c9c0" d="m394.7 276 .1 1.2 6.4.4-.1-1.2zm9.3-11.3c.9.5 1.6 1.3 2.1 2.3.1.2 0 .3-.2.4-1.7.5-3.2.2-4.4-1a8 8 0 0 1 2.5-1.7z" class="skincolor2"/><path fill="#f4e7de" d="M403.9 264.7a5 5 0 0 1 2 2.2c.1.1 0 .3-.1.3-1.8.5-3.3.2-4.4-1l-6.4-3.5c-1-.5-1.9-.5-2.6 0l-4.6 2.9a10.5 10.5 0 0 1-5.6 2.7c-.3.3-.3.8 0 1.3.1 0 2.3 1.6 4 .8l7.7-3.4c.5-.2 1.1 0 1.8.6 1.8 1.7 3.5 3.4 5.7 4 1.3.4 1.3.6 0 .6h-4.9l-3.2-.4c-3.5-.3-5.4 1.2-8.3 2.6-.5.3-1 .6-1.3 1l-.2.3v1c0 .4.2.6.5.6 1 0 1.7 0 2.5-.5a6 6 0 0 1 2.8-.8 54.2 54.2 0 0 1 11.5 1.3v.1l-4.5-.5c-.7-.2-1.4-.1-2.3 0-1.1.2-1.7 1.2-2 2.2l-.7 2.8c-.2 1.1-.9 2-1.2 3.2l.1.3c.8.5 1.5.3 2.1-.4a7 7 0 0 0 1.5-2.8l.8-1.4a25.5 25.5 0 0 1 5.6 2.9c-.1.6-.3.7-.7.1-.2-.3-.5-.8-1-.8-.1 0-.2 0-.2.3a18 18 0 0 0 2.8 10.4l-.1.1h-.2c-.2 0-.3 0-.4-.3L399 291l-.4 1.4c-.5 1.9-2.5 7.4-2.4 7.6a13 13 0 0 0 9.5 4.5c.2 0 .2-.1.3-.2.7-3 1.7-5.7 2.8-8.4.4-.9.3-1.8-.3-2.6l-.2-.4a26 26 0 0 1 0-4l.7-10.4c.1-1.2.4-2.4.7-3.6l.1-1.6a4 4 0 0 0-.4-1.9c-.8-1.4-1.6-2.8-2-4.5a15.7 15.7 0 0 0-.9-3.2l-2.7 1.1z" class="skincolor"/><path fill="#e0c9c0" d="M396.5 272.1s2.8.2 2-1.5l-2.7-2.7c-1-.9-2-1-2-1 .6-.1 1.2 0 1.9.7 1.8 1.7 3.5 3.4 5.7 4 1.3.4 1.3.6 0 .6h-4.9zm4.6 21.5a18 18 0 0 1-2.8-10.3c0-.2 0-.3.3-.3.4 0 .7.5 1 .8.3.6.5.5.6-.1l-.5-.5c-1.7-1-3.4-1.8-5.1-2.4l-.2.3 3.2 1.4c.2 0 .3.2.3.4l.1 2.8a51.4 51.4 0 0 0 1 5.2l1.4 2.6c0 .2.2.3.4.3h.2l.1-.2z" class="skincolor2"/><path fill="#ddca9b" d="m418.8 253.9 1.5 3.8c.1 0 .7.3 1 .2 1.6-.4 5.8-2.6 5.8-2.6l.2-.6-1.6-3.9s-.6-.2-.7 0l-5.7 2.3-.5.8z"/><path fill="#9c7953" d="m419.7 256.2.6 1.5c.1 0 .7.3 1 .2 1.6-.4 5.8-2.6 5.8-2.6l.2-.6-.6-1.4-7 2.9z"/><path fill="#ddca9b" d="m446.6 237-7.7 3.2 3 2.9-1.4 1.1.2 5.6 5.1-2.2.3-.3c.8-1 1.2-2 1.3-3 .1-3.7-.8-7.4-.8-7.4z"/><path fill="#9c7953" d="M446.7 236.8c0-.3-.3-.4-.5-.4-2.2.6-8.3 3-8.5 3.9-.2.7 1.9 2.6 3 3.4 0 0-4.8 2-5.2 2.4-.4.3-.3.7-.3.7s1.3 3.4 1.8 3.7c.1 0 .4.3.7.3 1-.1 3.4-1.1 3.4-1.1s-.6-4.6.3-4.7c.8-.2 3.8-1.5 3.8-1.5l.2-.4c-.2-1-.3-2-.3-3.1-.1-1 .3-1.8 1.2-2h.5v-1.2z"/><path fill="#ddca9b" d="m440.4 238.6-1.2 1.5c-.3.3-.3.7-.1 1l.2.5c0 .2 0 .3-.2.1-.6-.5-1-1.1-1-1.9.6-.5 1.7-1 2.3-1.2z"/><path fill="#ffbfc3" d="M392 254.7s-.1 1-.5 1.3c-.4.2-2.6.5-2.7 0-.1-.5.5-.6.7-.7.2-.2 2.5-.6 2.5-.6zm-1.9 30.4c0-.3.6-1.8 1-2s1.2.1 1.3.4c0 .3-.5 1.5-1 1.8-.6.2-1.3.3-1.3-.2zm-7.9-16.8 3-.8c.2.5 0 1.2-.5 1.4-.5.3-2.4.5-2.6.1a.7.7 0 0 1 .1-.7zm1.5 7.1s-.5.7-.1 1 2.1-.2 2.3-.8.2-1.6-.1-1.5-1.8.8-2.1 1.3"/><path fill="#5a5793" d="M364.7 272.5a18 18 0 0 0-6.8 2.4c-.7.5-1.3 1-1.8.9-.9-.2-1.5 0-1.5 0l-.2.3c-2.5-.5-5.2-.4-7.6-.4-6.7-.1-2.8 3.7-2 7.6 1 .8 2 1.2 3 1 2-.7 3.8-3.2 5.6-4.1.3-.2.4-.2.4.2a67.1 67.1 0 0 0-1.7 11.7c.5.9 1.7.7 4.2.6-.2-4.2-.6-8.6-.1-12.7 1.2-2.7 4.8 9.8 6 11 .6.9 2.4-1 2.9-1.2.3-.2.4-.6.2-.9-2-3.7-4.8-7.2-6.7-10.3 1.6.4 6.6 2.2 7.7.5 1-1.8.1-1.2.4-2.4.4-1.4-.3-4-2-4.2zm-16.8 9c-1 .3-2.1-2.8-2-3.7 2-1.3 5.7 0 8-.4v.6c-1.8 0-4.8 2.7-6 3.6zm16.6-3.8c-1.5-.3-4.7.1-6.9-.9l2.6-1.6c1.5-.4 3-.7 4.6-.8 1 .8 1 3.2-.3 3.3z"/><filter id="a"><feGaussianBlur stdDeviation="1"/></filter></svg>